<svg width="117" height="56" viewBox="0 0 117 56" fill="none" xmlns="http://www.w3.org/2000/svg">
<path d="M109.106 19.9305C109.049 19.8985 108.992 19.8688 108.932 19.8413C108.905 19.8276 108.873 19.8185 108.846 19.8047C108.756 19.7636 108.665 19.7247 108.573 19.6881C108.519 19.6653 108.464 19.6447 108.406 19.6241C108.306 19.5875 108.201 19.5555 108.093 19.5258C108.054 19.5143 108.018 19.5006 107.977 19.4892C107.961 19.4846 107.942 19.4823 107.926 19.4778C107.899 19.4709 107.874 19.4663 107.846 19.4595C107.732 19.432 107.618 19.4092 107.499 19.3909C107.476 19.3863 107.455 19.3817 107.432 19.3794C107.297 19.3588 107.163 19.3428 107.023 19.3314C106.991 19.3291 106.959 19.3268 106.927 19.3245C106.797 19.3154 106.664 19.3108 106.529 19.3085C106.513 19.3085 106.497 19.3085 106.481 19.3085C106.335 19.3085 106.184 19.3154 106.033 19.3245C105.996 19.3268 105.96 19.3291 105.925 19.3314C105.77 19.3428 105.612 19.3589 105.452 19.3817L91.8991 21.2865V21.8856C91.412 21.5175 90.9021 21.1745 90.4105 20.8177C89.6147 20.2438 88.8235 19.5898 88.2702 18.794C88.2999 18.7849 88.3296 18.7758 88.3571 18.7643C88.3959 18.7483 88.4348 18.7323 88.4737 18.7163C88.5263 18.6957 88.5766 18.6751 88.6269 18.6523C88.6338 18.65 88.6429 18.6454 88.6498 18.6431C88.6772 18.6294 88.7046 18.6134 88.7321 18.5997C88.7847 18.5745 88.8373 18.5471 88.8876 18.5196C88.9219 18.4991 88.9562 18.4785 88.9905 18.4579C89.0362 18.4305 89.0842 18.4007 89.1277 18.371C89.1391 18.3619 89.1528 18.355 89.1643 18.3481C89.178 18.339 89.1871 18.3299 89.2008 18.3207C89.2946 18.2544 89.3861 18.1835 89.4684 18.1103C89.473 18.1058 89.4798 18.1012 89.4844 18.0966C89.4844 18.0966 89.4867 18.0943 89.489 18.092C89.5621 18.0257 89.6307 17.9548 89.697 17.884C89.7039 17.8771 89.7108 17.8702 89.7153 17.8657C89.7291 17.8497 89.7405 17.8336 89.7519 17.8176C89.7908 17.7719 89.8297 17.7239 89.864 17.6759C89.8731 17.6621 89.8846 17.6507 89.8937 17.637C89.9028 17.6233 89.9097 17.6096 89.9189 17.5981C89.9509 17.5501 89.9806 17.5021 90.008 17.4541C90.0172 17.4381 90.0309 17.4198 90.04 17.4038C90.0446 17.3969 90.0469 17.3878 90.0492 17.3809C90.0904 17.3009 90.1292 17.2208 90.159 17.1385C90.159 17.1385 90.159 17.1339 90.1612 17.1316C90.1818 17.0745 90.2001 17.015 90.2138 16.9579C90.2184 16.9419 90.2207 16.9258 90.2253 16.9098C90.2367 16.8618 90.2458 16.8161 90.2527 16.7681C90.255 16.7498 90.2573 16.7315 90.2596 16.7132C90.2664 16.6514 90.271 16.5897 90.271 16.528C90.271 16.0386 90.0515 15.7231 89.6765 15.5173L87.8266 14.5111C87.9569 14.111 88.117 13.7177 88.293 13.3404C88.7458 12.3845 89.306 11.479 89.7679 10.5323C89.7862 10.5323 89.8068 10.5346 89.8251 10.5369C89.8548 10.5392 89.8846 10.5438 89.9143 10.5461C90.0332 10.5598 90.1498 10.5735 90.2687 10.5895C90.2893 10.5918 90.3099 10.5964 90.3305 10.5987C90.4311 10.6124 90.5294 10.6284 90.6277 10.6444C90.6597 10.649 90.6917 10.6535 90.7215 10.6604C90.8381 10.681 90.957 10.7016 91.0713 10.7267C91.0782 10.7267 91.0828 10.729 91.0896 10.7313C91.1994 10.7542 91.3069 10.7793 91.4143 10.8067C91.4486 10.8159 91.4829 10.825 91.5172 10.8342C91.579 10.8502 91.6384 10.8662 91.6979 10.8845C91.7345 10.8959 91.771 10.9051 91.8053 10.9165C91.8694 10.9371 91.9311 10.9577 91.9929 10.9782C92.0249 10.9897 92.0569 10.9988 92.0866 11.0103C92.1712 11.04 92.2558 11.072 92.3381 11.1063C92.345 11.1086 92.3541 11.1132 92.361 11.1154C92.4502 11.152 92.5394 11.1932 92.6263 11.2344C92.6994 11.2687 92.7726 11.3052 92.8435 11.3441L90.0812 9.84178C90.1452 9.68628 90.207 9.53079 90.2618 9.37301C90.646 8.2777 90.7878 7.01547 90.2458 5.98647C89.7702 5.08553 88.8304 4.50014 87.8494 4.22346C86.7976 3.92848 85.6725 3.80043 84.5338 3.82101C84.6847 3.68609 84.8448 3.56033 85.0025 3.42999C85.0368 3.41855 85.0711 3.40712 85.1054 3.39569C85.1763 3.37282 85.2472 3.35224 85.3181 3.32937C85.3707 3.31337 85.4256 3.29736 85.4782 3.28135C85.5513 3.26077 85.6268 3.24019 85.7 3.2219C85.7526 3.20818 85.8074 3.19446 85.86 3.18074C85.9378 3.16245 86.0178 3.14416 86.0978 3.12586C86.1482 3.11443 86.2007 3.103 86.2533 3.09156C86.3425 3.07327 86.4317 3.05726 86.5209 3.03897C86.5643 3.02982 86.6078 3.02296 86.6535 3.01382C86.7884 2.99095 86.9256 2.96808 87.0628 2.94979C87.2183 2.92692 87.3715 2.91092 87.5224 2.89491C87.5659 2.89034 87.6116 2.88576 87.6551 2.88348C87.7671 2.87433 87.8792 2.86518 87.9889 2.85832C88.0301 2.85604 88.0735 2.85375 88.1147 2.85146C88.261 2.8446 88.4051 2.84003 88.5469 2.83774C88.5583 2.83774 88.5697 2.83774 88.5812 2.83774C88.7115 2.83774 88.8395 2.83774 88.9676 2.8446C89.0088 2.8446 89.0499 2.84918 89.0911 2.84918C89.194 2.85375 89.2946 2.86061 89.3952 2.86976C89.4318 2.87204 89.4684 2.87433 89.505 2.8789C89.6353 2.89034 89.7656 2.90634 89.8937 2.92464C89.912 2.92692 89.928 2.9315 89.9463 2.93378C90.0561 2.94979 90.1635 2.96808 90.271 2.98866C90.3076 2.99552 90.3442 3.00238 90.383 3.01153C90.4745 3.02982 90.566 3.05269 90.6552 3.07327C90.6872 3.08242 90.7215 3.08928 90.7512 3.09614C90.8152 3.11214 90.877 3.13044 90.941 3.15102C90.9776 3.16245 91.0142 3.1716 91.0508 3.18303C91.1239 3.20589 91.1971 3.23105 91.268 3.2562C91.2908 3.26535 91.316 3.27221 91.3389 3.28135C91.4326 3.31565 91.5241 3.35224 91.6156 3.39111C91.6384 3.40026 91.6613 3.41169 91.6842 3.42313C91.7505 3.45285 91.8168 3.48258 91.8808 3.51231C91.9563 3.54889 92.0317 3.58777 92.1049 3.62664L86.8936 0.791184C86.825 0.754597 86.7564 0.718011 86.6855 0.683711C86.6809 0.681424 86.6741 0.679138 86.6672 0.676851C86.6032 0.644838 86.5369 0.617398 86.4706 0.587671C86.4477 0.576238 86.4248 0.567091 86.402 0.555658C86.3128 0.516785 86.219 0.480198 86.1253 0.445898C86.1024 0.436752 86.0773 0.429892 86.0544 0.420745C85.9835 0.395592 85.9103 0.370439 85.8372 0.347572C85.8006 0.336139 85.764 0.326992 85.7274 0.315559C85.6657 0.297266 85.6016 0.278972 85.5376 0.260679C85.5262 0.258392 85.517 0.253819 85.5056 0.251532C85.485 0.246959 85.4622 0.242386 85.4393 0.235526C85.3501 0.212659 85.2586 0.192079 85.1672 0.173786C85.1306 0.166926 85.094 0.157779 85.0551 0.150919C84.9477 0.13034 84.8402 0.112046 84.7304 0.0960396C84.7121 0.093753 84.6961 0.0891797 84.6778 0.086893C84.5498 0.0685997 84.4217 0.0548798 84.2891 0.0411598C84.2525 0.0365865 84.2159 0.0342999 84.1793 0.0320132C84.0787 0.0228666 83.9781 0.0182933 83.8752 0.0114333C83.8341 0.0114333 83.7929 0.00685997 83.7517 0.00685997C83.6237 0.00228666 83.4956 0 83.3653 0C83.3539 0 83.3424 0 83.331 0C83.1892 0 83.0452 0.00685998 82.8988 0.0137199C82.8577 0.0137199 82.8142 0.0182933 82.773 0.0205799C82.6633 0.0274399 82.5512 0.0365865 82.4392 0.0457332C82.3958 0.0503065 82.35 0.0525931 82.3066 0.0571665C82.1556 0.0731731 82.0024 0.0891797 81.847 0.112046C81.7098 0.13034 81.5725 0.153206 81.4376 0.176073C81.3919 0.182933 81.3485 0.192079 81.3027 0.201226C81.2135 0.217233 81.1244 0.233239 81.0352 0.253819C80.9826 0.265252 80.9323 0.276686 80.8797 0.288119C80.7997 0.306412 80.7219 0.322419 80.6442 0.342999C80.5893 0.356719 80.5367 0.370439 80.4818 0.384159C80.4086 0.402452 80.3355 0.423032 80.2623 0.443612C80.2074 0.459618 80.1548 0.475625 80.0999 0.491632C80.0291 0.512212 79.9582 0.535078 79.8896 0.555658C79.8347 0.573951 79.7821 0.589958 79.7295 0.608251C79.6609 0.631118 79.5923 0.656271 79.526 0.679138C79.4734 0.697431 79.4208 0.718011 79.3705 0.736304C79.3042 0.761457 79.2379 0.788897 79.1716 0.81405C79.1213 0.83463 79.0709 0.85521 79.0206 0.87579C78.9543 0.90323 78.8903 0.932957 78.8263 0.962683C78.7943 0.97869 78.76 0.99241 78.7257 1.00613C78.7165 1.0107 78.7097 1.01528 78.7005 1.01985C78.5084 1.11132 78.3232 1.20736 78.1426 1.31026C78.122 1.32169 78.1014 1.33312 78.0808 1.34456C77.9002 1.44745 77.7264 1.55721 77.5595 1.67155C77.548 1.67841 77.5366 1.68527 77.5252 1.69441C77.516 1.70127 77.5092 1.70585 77.5 1.71271C77.3857 1.79274 77.2759 1.87277 77.1684 1.95738C77.1456 1.97567 77.125 1.99168 77.1044 2.00997C77.0175 2.08086 76.9329 2.15175 76.8483 2.22492C76.8323 2.23864 76.8163 2.25236 76.8003 2.26608C76.7866 2.2798 76.7729 2.29352 76.7569 2.30724C76.6974 2.36212 76.6402 2.417 76.5831 2.47188C76.5533 2.49932 76.5259 2.52904 76.4962 2.55648C76.4253 2.62966 76.3567 2.70283 76.2881 2.77829C76.2789 2.78972 76.2675 2.80116 76.2538 2.81488C76.1783 2.89948 76.1074 2.98638 76.0388 3.07327C76.0183 3.09842 76 3.12358 75.9817 3.14873C75.9336 3.21275 75.8833 3.27678 75.8376 3.34081C75.833 3.34767 75.8262 3.35453 75.8216 3.36367C75.8033 3.38883 75.7873 3.41627 75.769 3.44142C75.737 3.48944 75.7027 3.53746 75.6707 3.58777L72.3962 1.80646L67.6331 2.47645C67.6308 4.12284 67.6262 5.76695 67.6239 7.41335C67.6239 8.5521 67.6194 9.69086 67.6171 10.8296C67.6171 11.2344 67.7131 11.8083 67.5142 12.1719C67.1849 12.7778 66.2154 12.9836 65.6002 12.9311C64.9097 12.8716 64.2626 12.5949 63.5948 12.4074C63.3387 12.3365 63.0735 12.2794 62.8059 12.2519L62.8151 6.72049L67.5782 6.0505L62.3669 3.21504L57.6038 3.88503L57.5672 23.763L58.8912 24.4832C58.5688 24.8697 58.3561 25.3476 58.3401 25.8278C58.3058 25.8278 58.2738 25.8232 58.2395 25.8209C58.1777 25.8187 58.1183 25.8164 58.0566 25.8141C57.8691 25.8072 57.6815 25.8049 57.4895 25.8072C57.4712 25.8072 57.4529 25.8072 57.4323 25.8072C57.414 25.8072 57.3957 25.8072 57.3751 25.8072C57.2677 24.7485 56.4696 23.7767 55.5001 23.2667C54.6151 22.798 53.6182 22.6242 52.6257 22.5464L50.6501 21.4717L50.9725 22.4093C50.1081 22.3064 49.2484 22.1783 48.3726 22.2217C47.4716 22.2675 46.5547 22.487 45.7841 22.9398L47.2933 18.3504L51.1577 20.4542L54.3682 20.0037L52.7721 15.4304L48.9374 13.3449L50.5495 8.44692L54.9947 7.82266L49.7834 4.9872L45.3382 5.61146L38.4851 26.4475L32.5855 29.6168L29.6951 28.0459V30.0238L28.673 30.1679L28.6867 23.1707L33.443 25.7592L35.206 25.5122C35.3706 25.4894 35.5284 25.4574 35.6839 25.4208C35.7273 25.4116 35.7708 25.3979 35.8142 25.3888C35.9331 25.3568 36.0498 25.3225 36.1618 25.2836C36.1961 25.2721 36.2327 25.2607 36.267 25.2493C36.3973 25.2013 36.5231 25.151 36.6443 25.0938C36.6534 25.0892 36.6626 25.0824 36.674 25.0778C36.706 25.0618 36.738 25.0435 36.7701 25.0275C36.8707 24.9772 36.969 24.9223 37.065 24.8651C37.1062 24.84 37.1474 24.8148 37.1862 24.7897C37.2228 24.7668 37.2594 24.7439 37.296 24.7211C37.36 24.6753 37.424 24.6296 37.4858 24.5816C37.4972 24.5747 37.5064 24.5656 37.5178 24.5587C37.5978 24.4947 37.6756 24.4307 37.751 24.3621C37.7693 24.3461 37.783 24.3278 37.7991 24.3118C37.8791 24.2386 37.9545 24.1585 38.0277 24.0808C38.0574 24.0488 38.0917 24.0191 38.1215 23.9848C38.1306 23.9756 38.1375 23.9642 38.1466 23.955C38.2495 23.8361 38.3479 23.7126 38.437 23.5846C38.4416 23.5754 38.4485 23.5686 38.4576 23.5594C38.4599 23.5549 38.4622 23.5526 38.4645 23.548C38.5399 23.4382 38.6108 23.3262 38.6771 23.2119C38.6954 23.1821 38.7114 23.1524 38.7274 23.1227C38.7434 23.0952 38.7617 23.0655 38.7755 23.0381C38.8075 22.9786 38.8349 22.9169 38.8646 22.8574C38.8875 22.8117 38.9104 22.7683 38.931 22.7202C38.979 22.6128 39.0247 22.503 39.0681 22.3932C39.0773 22.3681 39.0887 22.3429 39.0979 22.3178C39.0979 22.3155 39.1002 22.3109 39.1025 22.3086C39.1093 22.2903 39.1139 22.2698 39.1207 22.2492C39.1733 22.1028 39.2191 21.9565 39.2602 21.8056C39.2762 21.7484 39.2877 21.6912 39.3037 21.6341C39.3334 21.5152 39.3586 21.394 39.3814 21.2728C39.3929 21.211 39.4043 21.147 39.4134 21.0853C39.4317 20.9618 39.4477 20.836 39.4615 20.7103C39.466 20.6531 39.4752 20.5982 39.4797 20.5411C39.4935 20.3604 39.5026 20.1798 39.5026 19.9991C39.5026 19.3566 39.4249 18.7689 39.2785 18.2475C39.3563 15.0188 36.969 11.5956 33.6053 11.1932C28.3414 10.5644 28.1494 18.8832 30.5298 21.8353C30.6967 22.0411 30.8819 22.2309 31.0831 22.4047C31.074 22.4093 31.0648 22.4138 31.0557 22.4161C31.0214 22.4275 30.9871 22.439 30.9528 22.4504C30.8385 22.4893 30.7241 22.5236 30.6029 22.5556C30.5595 22.567 30.516 22.5785 30.4726 22.5876C30.3171 22.6242 30.1593 22.6562 29.9947 22.6791L28.6867 22.862L28.7073 11.5202L34.5772 10.6947C34.7624 10.6695 34.9453 10.6467 35.1259 10.6284C35.1785 10.6238 35.2311 10.6192 35.2814 10.6124C35.4186 10.5987 35.5536 10.5895 35.6885 10.5804C35.7365 10.5781 35.7845 10.5735 35.8302 10.5712C36.004 10.5621 36.1755 10.5552 36.3447 10.5529C36.3722 10.5529 36.3973 10.5529 36.4248 10.5529C36.5688 10.5529 36.7106 10.5529 36.8501 10.5575C36.9004 10.5575 36.9484 10.5598 36.9987 10.5621C37.1268 10.5666 37.2548 10.5735 37.3806 10.5827C37.4172 10.5849 37.4538 10.5872 37.4904 10.5895C37.6481 10.6032 37.8036 10.6192 37.9545 10.6398C37.9888 10.6444 38.0231 10.6513 38.0574 10.6558C38.1763 10.6741 38.2953 10.6924 38.4119 10.7153C38.4553 10.7244 38.5011 10.7313 38.5445 10.7404C38.668 10.7656 38.7915 10.793 38.9127 10.8228C38.9355 10.8296 38.9607 10.8342 38.9835 10.8388C39.075 10.8616 39.1642 10.8891 39.2534 10.9142C39.2808 10.9234 39.3082 10.9302 39.3357 10.9371C39.4523 10.9737 39.5644 11.0103 39.6764 11.0514C39.7061 11.0629 39.7359 11.0743 39.7656 11.0857C39.8479 11.1177 39.9279 11.1475 40.008 11.1818C40.0491 11.1978 40.088 11.2183 40.1269 11.2344C40.1932 11.2641 40.2618 11.2938 40.3258 11.3258C40.4173 11.3716 40.5087 11.4173 40.5979 11.4653L35.3866 8.62985C35.3043 8.5864 35.222 8.54295 35.1374 8.50179C35.1282 8.49722 35.1214 8.49494 35.1122 8.49036C35.0482 8.45835 34.9819 8.42862 34.9156 8.40118C34.8744 8.38289 34.8355 8.3646 34.7944 8.3463C34.7144 8.312 34.6343 8.28228 34.5543 8.25026C34.5246 8.23883 34.4948 8.2274 34.4651 8.21596C34.3531 8.1748 34.2387 8.13593 34.1244 8.10163C34.097 8.09248 34.0695 8.08562 34.0421 8.07876C33.9529 8.05132 33.8614 8.02617 33.77 8.00102C33.7654 8.00102 33.7608 7.99873 33.754 7.99644C33.7357 7.99187 33.7174 7.98958 33.6991 7.98501C33.5779 7.95528 33.4544 7.92784 33.3309 7.90269C33.2875 7.89354 33.2417 7.8844 33.1983 7.87754C33.0817 7.85696 32.9628 7.83638 32.8439 7.81808C32.8096 7.81351 32.7753 7.80665 32.741 7.80208C32.5878 7.7815 32.4346 7.76549 32.2768 7.75177C32.2402 7.74948 32.2036 7.7472 32.167 7.74491C32.0412 7.73576 31.9132 7.7289 31.7851 7.72433C31.7371 7.72433 31.6868 7.71976 31.6388 7.71976C31.4993 7.71518 31.3552 7.71518 31.2112 7.71518C31.1838 7.71518 31.1586 7.71518 31.1334 7.71518C30.9642 7.71747 30.7927 7.72433 30.6189 7.73348C30.5732 7.73576 30.5252 7.74034 30.4772 7.74262C30.3423 7.75177 30.2073 7.76321 30.0702 7.77464C30.0176 7.77921 29.9672 7.78378 29.9147 7.79064C29.734 7.80894 29.5511 7.8318 29.3659 7.85696L23.496 8.68244L23.4594 28.5604L26.878 30.4194L21.5478 31.1694L21.5409 34.8761L18.287 33.1062C18.2001 33.0582 18.1109 33.0125 18.0217 32.969C18.008 32.9622 17.9943 32.9576 17.9806 32.9507C17.9166 32.921 17.8525 32.8913 17.7885 32.8639C17.7313 32.8387 17.6742 32.8113 17.6147 32.7861C17.5484 32.7587 17.4798 32.7335 17.4135 32.7061C17.354 32.6832 17.2946 32.6581 17.2328 32.6375C17.1642 32.6123 17.0911 32.5895 17.0202 32.5666C16.9585 32.546 16.8967 32.5254 16.8327 32.5048C16.7595 32.482 16.6841 32.4614 16.6086 32.4408C16.5537 32.4248 16.5011 32.4088 16.4462 32.3951C16.4371 32.3951 16.4302 32.3905 16.4211 32.3905C16.2473 32.3471 16.0712 32.3059 15.8906 32.2693C15.8448 32.2602 15.7991 32.2533 15.7534 32.2442C15.6093 32.2167 15.463 32.1939 15.3143 32.171C15.2618 32.1641 15.2092 32.155 15.1566 32.1481C14.9645 32.123 14.7701 32.1001 14.5712 32.0841C14.5575 32.0841 14.5437 32.0841 14.5277 32.0818C14.3402 32.0658 14.1504 32.0567 13.9584 32.0475C13.8989 32.0452 13.8394 32.0429 13.78 32.0407C13.6131 32.0361 13.4416 32.0338 13.2701 32.0361C13.2243 32.0361 13.1786 32.0361 13.1306 32.0361C12.9156 32.0384 12.6984 32.0475 12.4789 32.0589C12.4263 32.0612 12.3737 32.0658 12.3234 32.0704C12.1473 32.0818 11.9667 32.0955 11.786 32.1115C11.722 32.1184 11.658 32.123 11.5917 32.1298C11.3607 32.1527 11.1298 32.1801 10.8919 32.2144C10.6861 32.2442 10.4826 32.2762 10.2814 32.3105C10.2174 32.3219 10.1534 32.3333 10.0893 32.3448C9.95213 32.3699 9.81493 32.3951 9.68231 32.4225C9.61142 32.4362 9.53825 32.4523 9.46736 32.4683C9.33931 32.4957 9.21354 32.5254 9.09006 32.5552C9.02146 32.5712 8.95057 32.5895 8.88198 32.6055C8.74706 32.6398 8.61672 32.6763 8.4841 32.7129C8.42922 32.7289 8.37434 32.7427 8.32174 32.7587C8.13881 32.8113 7.95816 32.8684 7.7798 32.9256C7.75008 32.9347 7.72264 32.9462 7.6952 32.9553C7.54657 33.0056 7.40022 33.0559 7.25616 33.1108C7.19671 33.1337 7.13954 33.1543 7.08237 33.1771C6.96804 33.2206 6.856 33.264 6.74624 33.312C6.6845 33.3372 6.62276 33.3623 6.5633 33.3898C6.45583 33.4355 6.34836 33.4835 6.24317 33.5316C6.20658 33.5476 6.16771 33.5636 6.13112 33.5819C6.11055 33.591 6.08997 33.6024 6.0671 33.6139C5.98249 33.655 5.90017 33.6962 5.81557 33.7374C5.75383 33.7671 5.69209 33.7991 5.63263 33.8311C5.54803 33.8768 5.46342 33.9226 5.3811 33.9683C5.32622 33.998 5.27134 34.0278 5.21646 34.0598C5.125 34.1124 5.0381 34.165 4.95121 34.2198C4.90776 34.2473 4.86203 34.2724 4.81858 34.2999C4.68824 34.3822 4.56248 34.4645 4.43671 34.5514C4.27893 34.6589 4.1303 34.7709 3.98395 34.8853C3.94737 34.915 3.90849 34.9447 3.87191 34.9744C3.73471 35.0842 3.59979 35.1962 3.46946 35.3129C3.46488 35.3174 3.45802 35.322 3.44888 35.3312C3.33454 35.4341 3.22478 35.5392 3.11731 35.6467C3.0853 35.6787 3.05328 35.713 3.02127 35.745C2.9481 35.8205 2.87492 35.8983 2.80404 35.976C2.78803 35.992 2.77202 36.008 2.75602 36.0263C2.73315 36.0537 2.71257 36.0789 2.6897 36.1063C2.6394 36.1658 2.58681 36.2252 2.53879 36.287C2.5022 36.3327 2.46333 36.3807 2.42674 36.4265C2.37872 36.4882 2.33299 36.5499 2.28725 36.6117C2.26667 36.6391 2.24609 36.6666 2.22551 36.694C2.21179 36.7146 2.20036 36.7352 2.18664 36.7535C2.14319 36.8175 2.10203 36.8792 2.06087 36.9433C2.02886 36.9913 1.99913 37.0393 1.96941 37.0896C1.92825 37.1559 1.89166 37.2222 1.85279 37.2908C1.83221 37.3274 1.81163 37.3617 1.79105 37.396C1.78419 37.4074 1.77961 37.4189 1.77504 37.4303C1.70873 37.5561 1.6447 37.6841 1.58525 37.8145C1.58525 37.819 1.58296 37.8236 1.58068 37.8282C1.5258 37.954 1.4732 38.0797 1.42518 38.2078C1.42061 38.2215 1.41375 38.2329 1.40918 38.2444C1.40003 38.2672 1.39546 38.2924 1.38631 38.3152C1.34286 38.4364 1.30628 38.5576 1.26969 38.6811C1.25826 38.72 1.24682 38.7566 1.23768 38.7954C1.1988 38.9486 1.16222 39.1019 1.13478 39.2573C1.1302 39.2825 1.12792 39.3099 1.12334 39.3351C1.10048 39.47 1.08218 39.6049 1.06846 39.7398C1.06389 39.7833 1.05932 39.8267 1.05703 39.8702C1.04331 40.0302 1.03645 40.1926 1.03416 40.3572C1.02959 42.4701 1.85507 43.7026 3.12188 44.3932C4.24692 45.0037 5.36967 45.6165 6.4947 46.2271C7.0435 46.5266 7.63803 46.9748 8.23028 47.176C8.76764 47.359 9.39647 47.2424 9.97271 47.3841C10.4872 47.5099 10.9788 47.7294 11.4156 48.029C11.395 48.0335 11.3767 48.0358 11.3561 48.0404C11.1435 48.0747 10.924 48.109 10.6976 48.141C10.5489 48.1616 10.4049 48.1799 10.2608 48.1959C10.2265 48.2005 10.1922 48.2028 10.1579 48.2073C10.0184 48.221 9.87896 48.2348 9.74633 48.2439C9.73718 48.2439 9.73032 48.2439 9.72118 48.2439C9.59541 48.2531 9.47193 48.2599 9.35074 48.2645C9.32101 48.2645 9.289 48.2668 9.25927 48.2668C9.20211 48.2668 9.14723 48.2668 9.09235 48.2668L6.12198 46.6501L0.460213 47.4527C0.419053 49.513 1.41375 51.0862 3.19506 52.0558L8.40635 54.8912C6.62504 53.9217 5.63035 52.3485 5.67151 50.2882L10.1648 49.6571L12.0947 50.7066C12.1222 50.7204 12.1496 50.7364 12.1793 50.7501C12.1862 50.7524 12.1953 50.757 12.2022 50.7592C12.2731 50.7935 12.3485 50.8256 12.4286 50.8553C12.4423 50.8599 12.456 50.8644 12.4675 50.869C12.5429 50.8941 12.6207 50.9193 12.703 50.9422C12.7121 50.9445 12.7213 50.949 12.7304 50.9513C12.735 50.9513 12.7396 50.9513 12.7441 50.9536C12.8287 50.9742 12.9179 50.9948 13.0117 51.0108C13.0323 51.0153 13.0551 51.0176 13.078 51.0222C13.1626 51.0359 13.2472 51.0496 13.3364 51.0611C13.3524 51.0611 13.3661 51.0657 13.3821 51.0679C13.485 51.0794 13.5902 51.0885 13.6977 51.0954C13.7228 51.0954 13.7503 51.0977 13.7754 51.1C13.876 51.1045 13.9789 51.1091 14.0864 51.1114C14.1001 51.1114 14.1138 51.1114 14.1276 51.1114C14.2465 51.1114 14.3677 51.1114 14.4911 51.1068C14.5209 51.1068 14.5529 51.1068 14.5826 51.1045C14.7015 51.0999 14.825 51.0931 14.9508 51.0839C14.9599 51.0839 14.9691 51.0839 14.9782 51.0839C15.1108 51.0748 15.2503 51.0611 15.3898 51.0474C15.4241 51.0428 15.4584 51.0405 15.4927 51.0359C15.6345 51.0199 15.7808 51.0016 15.9295 50.981C16.1558 50.949 16.3731 50.9147 16.588 50.8804C16.6589 50.869 16.7275 50.8553 16.7961 50.8438C16.9356 50.8187 17.0751 50.7958 17.21 50.7707C17.29 50.7547 17.3655 50.7387 17.4455 50.7227C17.5095 50.7089 17.5736 50.6952 17.6376 50.6838C19.5058 50.7387 21.4929 50.6129 22.8626 49.3804C23.8344 48.5046 24.2826 47.2378 24.5319 45.987C24.6348 45.4702 24.8909 44.6676 24.7811 44.1439C24.6805 43.6729 24.2941 43.5357 23.9007 43.3207C22.794 42.7148 21.685 42.1157 20.5782 41.512C20.7635 41.3977 20.9349 41.2582 21.0744 41.0912C21.4403 40.6614 21.2917 40.483 20.9555 40.0965C19.5675 38.4936 17.6513 37.3617 15.5865 36.8792C15.5316 36.7786 15.4721 36.6803 15.4081 36.582C15.1268 36.1521 14.8113 35.7473 14.4706 35.3632C14.546 35.3449 14.6192 35.3289 14.6947 35.3106C14.7655 35.2946 14.8364 35.2786 14.9096 35.2648C15.0445 35.2374 15.1817 35.21 15.3189 35.1848C15.3829 35.1734 15.4447 35.1619 15.5087 35.1505C15.7099 35.1162 15.9134 35.0842 16.1192 35.0545C16.3548 35.0202 16.588 34.995 16.819 34.9699C16.883 34.963 16.9493 34.9561 17.0133 34.9516C17.194 34.9356 17.3746 34.9196 17.5507 34.9104C17.6033 34.9081 17.6559 34.9035 17.7062 34.899C17.9257 34.8875 18.1452 34.8784 18.3579 34.8761C18.4036 34.8761 18.4494 34.8761 18.4951 34.8761C18.6666 34.8761 18.8381 34.8761 19.0073 34.8807C19.0667 34.8807 19.1262 34.883 19.1857 34.8853C19.3777 34.8921 19.5698 34.9035 19.755 34.9196C19.7688 34.9196 19.7848 34.9196 19.7985 34.9218C19.9974 34.9379 20.1918 34.9607 20.3839 34.9859C20.4365 34.9927 20.4891 35.0019 20.5416 35.0087C20.6903 35.0316 20.8366 35.0545 20.983 35.0819C21.0287 35.0911 21.0744 35.0979 21.1202 35.1071C21.2688 35.1368 21.4151 35.1711 21.5592 35.2077V36.0583L26.7705 38.8938L26.7796 34.0095L29.7089 33.5979L29.6883 49.9063L34.8996 52.7418L34.9247 32.8639L45.6469 31.3569C45.6469 31.3569 45.6446 31.3615 45.6423 31.3638C45.6171 31.4004 45.592 31.4393 45.5668 31.4781C45.4868 31.597 45.4068 31.716 45.3313 31.8371C45.2924 31.8989 45.2558 31.9606 45.2193 32.0224C45.1507 32.1367 45.0843 32.2533 45.018 32.3699C44.9975 32.4088 44.9746 32.4454 44.954 32.482C44.9426 32.5026 44.9334 32.5254 44.922 32.5483C44.8145 32.7518 44.7116 32.9599 44.6156 33.1703C44.6041 33.1977 44.5927 33.2251 44.5813 33.2526C44.499 33.4424 44.4212 33.6345 44.348 33.8288C44.3366 33.8608 44.3229 33.8883 44.3115 33.9203C44.2954 33.9614 44.284 34.0026 44.2703 34.0438C44.2451 34.1169 44.22 34.1924 44.1948 34.2679C44.1651 34.3616 44.1354 34.4531 44.1079 34.5468C44.0851 34.6223 44.0622 34.6978 44.0416 34.7732C44.0142 34.8693 43.9913 34.9653 43.9662 35.0613C43.9479 35.1368 43.9273 35.2145 43.9113 35.29C43.8884 35.3883 43.8678 35.4866 43.8473 35.5873C43.8313 35.6627 43.8153 35.7405 43.8015 35.8182C43.7832 35.9211 43.7672 36.024 43.7512 36.1269C43.7398 36.2024 43.7261 36.2778 43.7169 36.3533C43.7032 36.4631 43.6918 36.5728 43.6781 36.6826C43.6712 36.7535 43.662 36.8266 43.6552 36.8975C43.6437 37.021 43.6369 37.1445 43.63 37.268C43.6255 37.3297 43.6209 37.3891 43.6186 37.4509C43.6095 37.6361 43.6049 37.8236 43.6049 38.0134C43.598 41.6309 45.0843 44.3337 47.73 45.7743L52.9413 48.6098C50.2956 47.1715 48.8093 44.4664 48.8162 40.8489C48.8162 40.6591 48.8207 40.4716 48.8299 40.2863C48.8322 40.2246 48.839 40.1629 48.8413 40.1034C48.8482 39.9799 48.855 39.8565 48.8665 39.733C48.8733 39.6598 48.8825 39.5889 48.8893 39.5157C48.9008 39.406 48.9122 39.2962 48.9282 39.1887C48.9397 39.1133 48.9511 39.0355 48.9625 38.9601C48.9785 38.8572 48.9945 38.7543 49.0128 38.6537C49.0265 38.5759 49.0426 38.4982 49.0586 38.4227C49.0791 38.3244 49.0997 38.2261 49.1203 38.1277C49.1386 38.05 49.1569 37.9745 49.1775 37.8968C49.2026 37.8007 49.2255 37.7047 49.2529 37.611C49.2735 37.5355 49.2964 37.4577 49.3192 37.3823C49.3467 37.2885 49.3764 37.1948 49.4061 37.1033C49.4313 37.0279 49.4564 36.9547 49.4816 36.8792C49.5067 36.8083 49.5342 36.7352 49.5616 36.6643C49.6348 36.4699 49.7125 36.2778 49.7949 36.088C49.8063 36.0606 49.8177 36.0332 49.8292 36.0057C49.9252 35.7953 50.0281 35.5873 50.1356 35.3837C50.1676 35.3243 50.1996 35.2648 50.2316 35.2054C50.2956 35.0888 50.3642 34.9721 50.4328 34.8555C50.4694 34.7938 50.5083 34.7321 50.5449 34.6703C50.6203 34.5491 50.7004 34.4302 50.7804 34.3113C50.8147 34.261 50.8467 34.2107 50.8833 34.1604C50.9862 34.0163 51.0914 33.8746 51.1989 33.7351C51.2103 33.7191 51.2217 33.7053 51.2332 33.6893C51.3544 33.5361 51.4801 33.3852 51.6105 33.2366C51.6471 33.1931 51.6882 33.152 51.7248 33.1108C51.8231 33.001 51.9237 32.8936 52.0266 32.7884C52.0769 32.7358 52.1295 32.6855 52.1821 32.6329C52.2782 32.5391 52.3742 32.4454 52.4748 32.3539C52.5274 32.3059 52.58 32.2579 52.6326 32.2099C52.7995 32.0612 52.9687 31.9172 53.1448 31.7777C53.1517 31.7708 53.1608 31.764 53.1677 31.7594C53.3506 31.6153 53.5427 31.4758 53.7371 31.3386C53.8102 31.2883 53.8834 31.238 53.9566 31.1877C54.0275 31.1397 54.0984 31.0917 54.1715 31.046C54.2561 30.9911 54.343 30.9385 54.4299 30.8859C54.5031 30.8402 54.5763 30.7967 54.6517 30.7533C54.7409 30.7007 54.8324 30.6504 54.9238 30.6001C54.9993 30.5589 55.0748 30.5155 55.1502 30.4766C55.244 30.4263 55.34 30.3805 55.436 30.3325C55.5138 30.2936 55.5893 30.2548 55.667 30.2182C55.7607 30.1725 55.8591 30.1313 55.9551 30.0879C56.0397 30.049 56.122 30.0124 56.2089 29.9758C56.3073 29.9346 56.4079 29.8935 56.5085 29.8546C56.5954 29.8203 56.68 29.7837 56.7669 29.7517C56.8698 29.7128 56.975 29.6763 57.0802 29.6397C57.167 29.6077 57.2539 29.5756 57.3431 29.5459C57.4506 29.5093 57.5626 29.475 57.6724 29.4407C57.7593 29.4133 57.8462 29.3858 57.9354 29.3584C57.9857 29.3447 58.036 29.331 58.0863 29.3172C58.0634 29.6122 58.1206 29.9186 58.2486 30.1862C58.754 31.2426 59.9911 31.4324 60.6794 32.3288C61.3676 33.2206 61.5803 34.3822 61.578 35.4844C61.578 35.6924 61.5689 35.896 61.5529 36.0926C61.5529 36.104 61.5529 36.1155 61.5529 36.1269C61.5369 36.3167 61.514 36.5019 61.4843 36.6849C61.482 36.7032 61.4797 36.7214 61.4751 36.7397C61.4454 36.9158 61.4088 37.0873 61.3654 37.2542C61.3608 37.2748 61.3539 37.2977 61.3493 37.3183C61.3059 37.4806 61.2556 37.6407 61.2007 37.7962C61.1916 37.8236 61.1824 37.8488 61.1733 37.8762C61.1321 37.986 61.0887 38.0957 61.0406 38.2055C60.9926 38.313 60.94 38.4181 60.8852 38.521C60.8669 38.5553 60.8486 38.5896 60.828 38.6239C60.7983 38.6765 60.7685 38.7291 60.7388 38.7794C60.7159 38.816 60.6954 38.8526 60.6725 38.8869C60.6405 38.9372 60.6085 38.9875 60.5742 39.0355C60.5513 39.0698 60.5261 39.1064 60.501 39.1407C60.469 39.1842 60.437 39.2276 60.405 39.2711C60.3775 39.3054 60.3524 39.3397 60.3249 39.374C60.2906 39.4174 60.2563 39.4586 60.2197 39.4997C60.1923 39.5317 60.1649 39.5638 60.1351 39.5958C60.0917 39.6461 60.046 39.6918 60.0002 39.7398C59.9751 39.765 59.9522 39.7901 59.927 39.8153C59.8653 39.877 59.8036 39.9342 59.7395 39.9937C59.7281 40.0051 59.7167 40.0165 59.7052 40.0257C59.6206 40.1011 59.5315 40.1743 59.4423 40.2475C59.4148 40.2681 59.3874 40.2886 59.3622 40.3092C59.2959 40.3618 59.2273 40.4121 59.1564 40.4601C59.129 40.4784 59.1038 40.4967 59.0764 40.5173C58.9415 40.6088 58.8043 40.6957 58.6602 40.778C58.6374 40.7917 58.6145 40.8054 58.5894 40.8191C58.443 40.9015 58.2921 40.9792 58.1366 41.0524C58.116 41.0615 58.0931 41.073 58.0726 41.0821C57.8873 41.1667 57.6953 41.2467 57.4986 41.3222C57.4757 41.3313 57.4506 41.3405 57.4277 41.3496C57.2265 41.4228 57.0207 41.4891 56.808 41.5509C56.7852 41.5577 56.7623 41.5646 56.7394 41.5714C56.5176 41.6332 56.2913 41.6881 56.0557 41.7384C56.0397 41.7429 56.0237 41.7452 56.0054 41.7498C55.7539 41.8024 55.4955 41.8458 55.2302 41.8847C55.0336 41.9122 54.8415 41.9327 54.654 41.951C54.6037 41.9556 54.5511 41.9602 54.5008 41.9648C54.3453 41.9762 54.1944 41.9853 54.0458 41.9899C54.0115 41.9899 53.9772 41.9945 53.9429 41.9945C53.7668 41.9991 53.5953 41.9968 53.4284 41.9922C53.3872 41.9922 53.346 41.9876 53.3049 41.9853C53.1723 41.9785 53.0419 41.9693 52.9139 41.9556C52.8727 41.951 52.8315 41.9487 52.7927 41.9419C52.6372 41.9236 52.484 41.9007 52.3353 41.871C52.3102 41.8664 52.2873 41.8596 52.2645 41.855C52.1501 41.8298 52.0381 41.8024 51.9283 41.7727C51.8506 41.7521 51.7728 41.7269 51.6974 41.7018C51.6219 41.6766 51.5464 41.6515 51.4733 41.624C51.4001 41.5966 51.3315 41.5646 51.2606 41.5349C51.1646 41.4914 51.0662 41.448 50.9748 41.3999L56.1861 44.2354C56.2364 44.2628 56.289 44.2903 56.3393 44.3154C56.3804 44.336 56.4285 44.352 56.4719 44.3703C56.5428 44.4023 56.6114 44.4321 56.6846 44.4618C56.7577 44.4892 56.8332 44.5144 56.9087 44.5395C56.9841 44.5647 57.0596 44.5898 57.1396 44.6104C57.1693 44.6196 57.1968 44.6287 57.2265 44.6379C57.3065 44.6584 57.3911 44.6767 57.4757 44.6927C57.5009 44.6973 57.5238 44.7042 57.5466 44.7087C57.6953 44.7385 57.8462 44.7613 58.004 44.7796C58.0451 44.7842 58.084 44.7888 58.1252 44.7934C58.2532 44.8071 58.3835 44.8162 58.5185 44.8231C58.5596 44.8231 58.5985 44.8276 58.6397 44.8299C58.8066 44.8368 58.9781 44.8368 59.1542 44.8322C59.1862 44.8322 59.2228 44.8299 59.2548 44.8276C59.4034 44.8231 59.5566 44.8139 59.7121 44.8025C59.7624 44.7979 59.8127 44.7956 59.8653 44.7888C60.0551 44.7705 60.2449 44.7499 60.4415 44.7225C60.7068 44.6859 60.9652 44.6401 61.2167 44.5875C61.2327 44.5853 61.2487 44.5807 61.267 44.5761C61.5026 44.5258 61.7289 44.4709 61.9507 44.4092C61.9736 44.4023 61.9965 44.3955 62.0193 44.3886C62.232 44.3269 62.4378 44.2606 62.639 44.1874C62.6642 44.1782 62.687 44.1691 62.7122 44.1599C62.9111 44.0868 63.1009 44.0067 63.2861 43.9198C63.2976 43.9153 63.3113 43.9107 63.3227 43.9038C63.3319 43.8993 63.341 43.8947 63.3525 43.8901C63.508 43.8169 63.6589 43.7392 63.8052 43.6569C63.8281 43.6432 63.8532 43.6294 63.8761 43.6157C64.0202 43.5334 64.1596 43.4465 64.2923 43.355C64.3014 43.3482 64.3129 43.3436 64.322 43.3367C64.3403 43.3253 64.3563 43.3116 64.3723 43.2979C64.4432 43.2476 64.5095 43.1973 64.5781 43.147C64.6055 43.1264 64.633 43.1058 64.6604 43.0852C64.7496 43.0143 64.8388 42.9412 64.9257 42.8611C64.9371 42.852 64.9463 42.8405 64.9577 42.8314C65.8449 42.0219 66.4669 41.3565 67.8 41.7818C68.5157 42.0105 69.1354 42.4495 69.778 42.8405V44.2697L74.987 47.1052L75.0236 27.2272L75.6364 27.1403C75.6867 27.2272 75.7416 27.3096 75.8079 27.3873C76.1966 27.8355 76.8232 28.0184 77.4177 28.0116C78.0122 28.0047 78.5908 27.8355 79.1647 27.6846C80.7151 27.2821 82.302 27.0283 83.9004 26.9208C84.0856 27.5931 84.2205 28.2036 84.2205 28.4415C84.2205 28.5078 84.2182 28.5741 84.2136 28.6358C84.2136 28.6564 84.2091 28.677 84.2068 28.6953C84.2022 28.7364 84.1999 28.7776 84.1931 28.8165C84.1885 28.8393 84.1839 28.8599 84.1793 28.8828C84.1725 28.9171 84.1679 28.9514 84.1588 28.9834C84.1542 29.0063 84.145 29.0268 84.1382 29.0497C84.129 29.0794 84.1222 29.1092 84.1107 29.1366C84.1062 29.1503 84.0993 29.164 84.0947 29.1778C84.0764 29.2212 84.0581 29.2647 84.0376 29.3058C84.0284 29.3241 84.0193 29.3424 84.0078 29.3584C83.9941 29.3813 83.9804 29.4041 83.9667 29.427C83.9552 29.4453 83.9415 29.4659 83.9278 29.4842C83.9141 29.5025 83.9004 29.5208 83.8844 29.539C83.8706 29.5573 83.8546 29.5756 83.8386 29.5916C83.8226 29.6099 83.8043 29.6282 83.786 29.6442C83.77 29.658 83.754 29.674 83.738 29.6877C83.7106 29.7128 83.6808 29.7334 83.6511 29.7563C83.6397 29.7654 83.6283 29.7746 83.6145 29.7837C83.5528 29.8249 83.4888 29.8615 83.4179 29.8958C83.4019 29.9026 83.3859 29.9118 83.3699 29.9186C83.3401 29.9324 83.3104 29.9438 83.2807 29.9552C83.2601 29.9644 83.2372 29.9712 83.2167 29.9804C83.1846 29.9918 83.1503 30.001 83.116 30.0124C83.0955 30.0193 83.0749 30.0261 83.052 30.0307C83.0131 30.0398 82.9743 30.049 82.9331 30.0581C82.9148 30.0627 82.8942 30.0673 82.8759 30.0718C82.8142 30.0833 82.7525 30.0947 82.6884 30.1039L75.0853 31.1717L80.2966 34.0072L87.8997 32.9393C87.9638 32.9302 88.0255 32.9187 88.0872 32.9073C88.1078 32.9027 88.1261 32.8982 88.1444 32.8936C88.1833 32.8844 88.2244 32.8753 88.2633 32.8661C88.2862 32.8593 88.3068 32.8524 88.3273 32.8478C88.3616 32.8387 88.3959 32.8273 88.428 32.8158C88.4508 32.809 88.4714 32.7998 88.492 32.7907C88.5217 32.7792 88.5514 32.7678 88.5812 32.7541C88.5903 32.7495 88.5994 32.7472 88.6086 32.7427C88.6155 32.7404 88.62 32.7358 88.6269 32.7312C88.6955 32.6969 88.7618 32.6603 88.8235 32.6192C88.8258 32.6192 88.8281 32.6169 88.8327 32.6146C88.8418 32.6077 88.851 32.5986 88.8601 32.5917C88.8899 32.5689 88.9196 32.546 88.947 32.5231C88.9539 32.5186 88.9607 32.514 88.9653 32.5071C88.9745 32.498 88.9836 32.4888 88.9928 32.4774C89.0111 32.4591 89.0293 32.4431 89.0453 32.4248C89.0522 32.418 89.0591 32.4111 89.0659 32.4042C89.0751 32.3951 89.0819 32.3837 89.0911 32.3722C89.1048 32.3539 89.1208 32.3356 89.1345 32.3173C89.1414 32.3082 89.1482 32.3013 89.1528 32.2945C89.1597 32.283 89.1665 32.2716 89.1734 32.2625C89.1871 32.2396 89.2031 32.2167 89.2146 32.1939C89.2191 32.1847 89.226 32.1756 89.2329 32.1664C89.2374 32.1573 89.2397 32.1481 89.2443 32.1413C89.2649 32.1001 89.2854 32.0567 89.3015 32.0132C89.306 32.0041 89.3106 31.9949 89.3152 31.9858C89.3152 31.9812 89.3175 31.9766 89.3197 31.9743C89.3289 31.9469 89.338 31.9172 89.3472 31.8874C89.354 31.8646 89.3609 31.844 89.3655 31.8211C89.3746 31.7891 89.3792 31.7548 89.3861 31.7205C89.3906 31.6977 89.3952 31.6771 89.3998 31.6542C89.4066 31.6153 89.4089 31.5742 89.4135 31.533C89.4135 31.5124 89.4181 31.4941 89.4204 31.4736C89.4249 31.4118 89.4272 31.3455 89.4272 31.2792C89.4272 30.6778 89.2489 30.3074 88.915 30.1244L85.4324 26.8659C87.0057 26.8545 88.5789 26.9871 90.1246 27.2638C90.7123 27.369 91.3046 27.4948 91.8991 27.4994L91.8739 41.1667L97.0852 44.0022L97.1218 24.1242L105.217 22.9878C105.752 23.875 106.321 24.9863 106.319 25.3407C106.319 25.4071 106.316 25.4734 106.312 25.5351C106.312 25.5557 106.307 25.574 106.305 25.5946C106.3 25.6357 106.298 25.6769 106.291 25.7158C106.287 25.7386 106.282 25.7615 106.278 25.7821C106.271 25.8164 106.266 25.8507 106.257 25.8827C106.25 25.9056 106.243 25.9261 106.236 25.949C106.227 25.9787 106.22 26.0085 106.209 26.0359C106.204 26.0496 106.198 26.0633 106.193 26.0771C106.175 26.1228 106.156 26.1639 106.136 26.2051C106.127 26.2234 106.118 26.2417 106.106 26.26C106.092 26.2829 106.079 26.3057 106.065 26.3286C106.054 26.3469 106.04 26.3675 106.026 26.3857C106.012 26.404 105.999 26.4223 105.983 26.4406C105.969 26.4589 105.953 26.4772 105.937 26.4932C105.921 26.5115 105.903 26.5298 105.884 26.5458C105.868 26.5595 105.852 26.5755 105.836 26.5893C105.809 26.6144 105.779 26.635 105.749 26.6579C105.738 26.667 105.724 26.6762 105.713 26.6853C105.651 26.7265 105.585 26.7631 105.516 26.7973C105.5 26.8042 105.484 26.8134 105.468 26.8202C105.438 26.8339 105.409 26.8454 105.379 26.8568C105.358 26.8659 105.335 26.8728 105.315 26.882C105.283 26.8934 105.249 26.9025 105.214 26.914C105.191 26.9208 105.171 26.9277 105.148 26.9323C105.109 26.9414 105.07 26.9506 105.031 26.9597C105.011 26.9643 104.993 26.9688 104.972 26.9734C104.91 26.9849 104.848 26.9963 104.784 27.0054L97.1813 28.0733L102.393 30.9088L109.996 29.8409C110.06 29.8317 110.121 29.8203 110.183 29.8089C110.204 29.8043 110.222 29.7997 110.24 29.7952C110.282 29.786 110.32 29.7769 110.359 29.7677C110.382 29.7609 110.403 29.754 110.423 29.7494C110.458 29.7403 110.492 29.7288 110.524 29.7174C110.547 29.7105 110.567 29.7014 110.588 29.6923C110.618 29.6808 110.647 29.6694 110.677 29.6557C110.686 29.6511 110.695 29.6488 110.705 29.6442C110.711 29.642 110.716 29.6374 110.723 29.6328C110.791 29.5985 110.858 29.5619 110.92 29.5208C110.922 29.5208 110.926 29.5185 110.929 29.5162C110.938 29.5093 110.947 29.5002 110.958 29.4933C110.988 29.4705 111.018 29.4476 111.045 29.4247C111.052 29.4201 111.059 29.4156 111.064 29.4087C111.073 29.3996 111.082 29.3904 111.091 29.3813C111.109 29.363 111.128 29.347 111.144 29.3287C111.15 29.3218 111.157 29.315 111.164 29.3081C111.173 29.299 111.18 29.2875 111.189 29.2761C111.203 29.2578 111.219 29.2395 111.233 29.2212C111.24 29.2121 111.247 29.2052 111.251 29.1961C111.258 29.1869 111.265 29.1755 111.272 29.164C111.285 29.1412 111.301 29.1183 111.315 29.0954C111.32 29.0863 111.327 29.0771 111.333 29.068C111.338 29.0611 111.34 29.0497 111.345 29.0428C111.365 29.0017 111.386 28.9582 111.402 28.9125C111.407 28.9034 111.411 28.8942 111.413 28.8851C111.413 28.8805 111.416 28.8759 111.418 28.8736C111.427 28.8462 111.436 28.8165 111.445 28.7867C111.452 28.7639 111.459 28.7433 111.466 28.7204C111.473 28.6884 111.48 28.6541 111.487 28.6221C111.491 28.5992 111.496 28.5787 111.5 28.5535C111.507 28.5146 111.509 28.4735 111.514 28.4323C111.514 28.4117 111.519 28.3934 111.521 28.3729C111.525 28.3111 111.528 28.2448 111.528 28.1785C111.528 27.5794 111.349 27.2067 111.013 27.026L105.77 22.9123L110.668 22.224C110.828 22.2012 110.986 22.1852 111.141 22.1737C111.178 22.1714 111.215 22.1692 111.249 22.1669C111.402 22.1577 111.551 22.1509 111.697 22.1509C111.713 22.1509 111.729 22.1509 111.745 22.1509C111.88 22.1509 112.013 22.1577 112.143 22.1669C112.175 22.1669 112.207 22.1714 112.239 22.1737C112.378 22.1852 112.516 22.2012 112.648 22.2217C112.671 22.2263 112.694 22.2309 112.717 22.2332C112.836 22.2538 112.95 22.2766 113.064 22.3018C113.092 22.3086 113.119 22.3132 113.144 22.3201C113.202 22.3338 113.254 22.3521 113.309 22.3681C113.414 22.3978 113.519 22.4298 113.622 22.4664C113.68 22.487 113.734 22.5076 113.789 22.5304C113.883 22.567 113.972 22.6059 114.061 22.6471C114.148 22.6882 114.237 22.7294 114.322 22.7751L109.111 19.9397L109.106 19.9305ZM48.4114 14.9959L49.1706 17.1728L47.6248 17.39L48.4114 14.9959ZM12.1427 40.3938C12.0444 40.403 11.9461 40.4098 11.8478 40.419C11.7494 40.4281 11.6534 40.435 11.5574 40.4441C11.4796 40.451 11.4019 40.4578 11.3264 40.4624C11.1869 40.4739 11.0474 40.4853 10.9102 40.4967C10.8942 40.4967 10.8782 40.499 10.8622 40.5013C10.7433 40.5104 10.6267 40.5196 10.5124 40.5287C10.4712 40.531 10.43 40.5356 10.3889 40.5379C10.2997 40.5447 10.2105 40.5493 10.1213 40.5562C10.0756 40.5585 10.0299 40.563 9.98414 40.5653C9.89954 40.5699 9.81722 40.5745 9.7349 40.579C9.69145 40.5813 9.64572 40.5836 9.60227 40.5859C9.50852 40.5905 9.41934 40.5928 9.32787 40.5973C9.29815 40.5973 9.26842 40.5996 9.24098 40.5996C9.12436 40.6019 9.01003 40.6042 8.89798 40.6065C8.87054 40.6065 8.84539 40.6065 8.82024 40.6065C8.73563 40.6065 8.65331 40.6065 8.57328 40.6065C8.53669 40.6065 8.5001 40.6065 8.46352 40.6042C8.39492 40.6042 8.32632 40.5996 8.26 40.595C8.22342 40.595 8.18683 40.5905 8.15253 40.5882C8.08622 40.5836 8.02219 40.5767 7.95816 40.5722C7.92844 40.5699 7.89642 40.5653 7.8667 40.563C7.78438 40.5539 7.70663 40.5424 7.63117 40.5287C7.62203 40.5287 7.61288 40.5264 7.60373 40.5242C7.52141 40.5082 7.44138 40.4921 7.36592 40.4716C7.34305 40.467 7.32476 40.4601 7.30189 40.4533C7.2493 40.4373 7.19899 40.4213 7.15097 40.4053C7.12811 40.3961 7.10524 40.387 7.08237 40.3778C7.04579 40.3641 7.01378 40.3481 6.97948 40.3321C6.98862 40.3138 6.99777 40.2955 7.00692 40.2772C7.03207 40.2292 7.05951 40.1834 7.08466 40.1377C7.12353 40.0714 7.16012 40.0028 7.20128 39.9365C7.23101 39.8885 7.26073 39.8404 7.29275 39.7924C7.33391 39.7284 7.37507 39.6644 7.41851 39.6003C7.45053 39.5523 7.48483 39.5043 7.51913 39.4563C7.56486 39.3945 7.61059 39.3305 7.65861 39.2688C7.6952 39.2208 7.73179 39.175 7.76837 39.1293C7.81868 39.0676 7.86898 39.0081 7.91929 38.9487C7.95588 38.9052 7.99475 38.8618 8.03362 38.8183C8.10451 38.7406 8.1754 38.6628 8.25086 38.5874C8.28287 38.5553 8.3126 38.521 8.34461 38.489C8.45208 38.3816 8.56184 38.2764 8.67618 38.1735C8.68303 38.1666 8.6899 38.162 8.69676 38.1552C8.82481 38.0408 8.96201 37.9265 9.09921 37.8168C9.13579 37.787 9.17238 37.7573 9.21125 37.7276C9.3576 37.6132 9.50852 37.5012 9.6663 37.3914C9.78978 37.3068 9.91783 37.2222 10.0482 37.1399C10.0916 37.1125 10.1351 37.0873 10.1808 37.0599C10.27 37.005 10.3569 36.9524 10.4483 36.8998C10.5032 36.8678 10.5581 36.8381 10.613 36.8083C10.6953 36.7626 10.7799 36.7146 10.8645 36.6711C10.924 36.6391 10.9857 36.6094 11.0452 36.5797C11.1275 36.5385 11.2121 36.4951 11.2967 36.4562C11.3539 36.4288 11.4133 36.4013 11.4705 36.3762C11.5757 36.3281 11.6831 36.2801 11.7906 36.2344C11.8501 36.2092 11.9118 36.1818 11.9735 36.1566C12.0856 36.1109 12.1976 36.0652 12.312 36.0217C12.3691 35.9989 12.4263 35.976 12.4835 35.9554C12.5429 35.9325 12.6024 35.9143 12.6618 35.8914C12.8859 36.1246 13.11 36.3716 13.3364 36.6208C13.174 36.6208 13.0094 36.6231 12.847 36.6323C12.0787 36.6734 11.2144 36.8701 10.8256 37.5332C10.4735 38.1323 10.6541 38.9304 11.0863 39.4723C11.4064 39.8702 11.8386 40.156 12.2982 40.387C12.2434 40.3915 12.1908 40.3961 12.1382 40.4007L12.1427 40.3938ZM65.8563 20.022C64.7839 20.493 63.732 21.1493 62.7991 21.9016L62.8128 14.9296C62.9386 14.9433 63.0643 14.9593 63.1878 14.973L66.1353 19.9031C66.0416 19.9397 65.9478 19.9808 65.8541 20.0197L65.8563 20.022ZM75.7827 23.5526L74.0586 23.795C74.0654 23.6052 74.0632 23.4154 74.0426 23.2233C73.8597 21.5243 72.4739 20.1043 70.8481 19.5829C70.3451 19.4206 69.826 19.336 69.3023 19.3177L67.5713 16.4251L65.3716 15.2269L69.6659 15.7208C70.233 15.7871 70.8253 15.842 71.3923 15.7482C71.8382 15.675 72.4877 15.1262 72.8398 15.172C72.746 11.9615 72.8467 8.7236 72.8535 5.50856C72.8535 5.44453 72.8535 5.38051 72.8535 5.31877L75.0144 5.01464C74.9893 5.09696 74.9641 5.17928 74.9412 5.26389C74.9367 5.27989 74.9321 5.29819 74.9275 5.31419C74.8864 5.47197 74.8498 5.63661 74.82 5.80125C74.8132 5.83327 74.8086 5.86528 74.804 5.89729C74.7766 6.06193 74.756 6.22657 74.74 6.39578C74.7377 6.42551 74.7354 6.45524 74.7332 6.48496C74.7194 6.66332 74.7103 6.84397 74.7103 7.0269C74.7011 7.68088 74.7606 8.25026 74.8726 8.74875C73.8048 10.4112 73.2491 12.3868 73.4732 14.3419C73.8368 17.5112 76.1166 20.4221 75.7827 23.5549V23.5526Z" fill="#F9B739"/>
<path d="M110.663 22.2172C114.48 21.6798 116.84 24.1014 116.835 27.4262C116.828 31.4599 114.194 33.8448 110.643 34.3456L102.406 35.5027L102.393 43.2544L97.076 44.0022L97.1126 24.1243L110.666 22.2195L110.663 22.2172ZM109.991 29.834C110.965 29.6968 111.519 29.2212 111.521 28.1716C111.523 27.1221 110.97 26.7722 109.996 26.9094L102.393 27.9773L102.388 30.9019L109.991 29.834Z" fill="#FF5E2C"/>
<path d="M88.5583 25.3248C92.3747 24.7874 94.7368 27.209 94.73 30.5338C94.7231 34.5674 92.0889 36.9524 88.5354 37.4532L80.3011 38.6102L80.2874 46.362L74.9709 47.1097L75.0075 27.2318L88.5583 25.327V25.3248ZM87.886 32.9416C88.8601 32.8044 89.4135 32.3288 89.4135 31.2792C89.4135 30.2296 88.8647 29.8798 87.8906 30.017L80.2874 31.0848L80.2828 34.0095L87.886 32.9416Z" fill="#FF5E2C"/>
<path d="M60.4576 28.8188C67.6674 27.8058 72.1058 31.3272 72.0944 37.5744C72.0829 43.8238 67.6285 48.5938 60.4187 49.6068C53.2088 50.6198 48.7956 47.096 48.807 40.8466C48.8185 34.5994 53.2729 29.8295 60.4576 28.8188ZM60.4278 44.7225C64.4546 44.1577 66.7733 41.9579 66.7802 38.3221C66.787 34.6886 64.4752 33.1405 60.4484 33.7054C56.4216 34.2702 54.1281 36.4676 54.1235 40.1011C54.1189 43.7346 56.4285 45.285 60.4301 44.7225" fill="#FF5E2C"/>
<path d="M87.0628 2.95208C91.6682 2.30495 94.5562 4.48185 94.5516 7.80437L90.0263 9.35015C89.6079 7.76092 88.3982 7.27844 86.8456 7.49567C85.7411 7.65116 84.687 8.31201 84.6847 9.21752C84.6801 12.0278 95.0524 7.79065 95.0387 15.627C95.0295 20.3147 92.1072 22.8552 87.0011 23.5709C81.895 24.2866 79.2447 21.5106 79.2516 17.3923L83.8569 15.9197C83.8775 18.1035 84.8242 19.3611 87.4561 18.9907C89.1414 18.7529 90.2733 17.6301 90.2756 16.5211C90.2824 13.1414 79.8027 18.108 79.9239 9.8555C79.9307 6.0505 82.8554 3.53746 87.0651 2.94522L87.0628 2.95208Z" fill="#FF5E2C"/>
<path d="M77.6166 4.64878L77.58 24.5267L72.8169 25.1967L67.569 16.4228L67.553 25.9353L62.7899 26.6053L62.8265 6.72735L67.5896 6.05736L72.8352 15.172L72.8535 5.31648L77.6166 4.64878Z" fill="#FF5E2C"/>
<path d="M55.0107 7.82494L61.7906 26.747L56.9498 27.4285L55.8773 24.314L49.6668 25.1875L48.5555 28.6084L43.7146 29.2898L50.5677 8.45377L55.013 7.82952L55.0107 7.82494ZM51.1737 20.4587L54.3841 20.0083L52.7881 15.4349L51.1737 20.4587Z" fill="#FF5E2C"/>
<path d="M48.432 30.9636L48.4228 35.8479L40.2389 36.9981L40.2114 51.9918L34.8949 52.7395L34.9224 37.7436L26.7659 38.8915L26.775 34.0072L48.432 30.9636Z" fill="#FF5E2C"/>
<path d="M34.5932 10.6947C40.7237 9.83265 44.2955 12.8236 44.2841 19.3269C44.2726 25.5466 40.6871 29.7129 34.5566 30.5749L28.6868 31.4004L28.7234 11.5225L34.5932 10.697V10.6947ZM35.222 25.5123C38.1695 25.0984 39.5141 22.551 39.5187 19.9946C39.5232 16.9853 37.8197 15.2086 35.2403 15.5722L33.4773 15.8191L33.459 25.7592L35.222 25.5123Z" fill="#FF5E2C"/>
<path d="M16.1192 35.0499C22.172 34.1993 26.3223 36.399 26.368 40.6225L20.6834 41.4205C20.7382 40.0783 19.1879 39.502 16.5559 39.8725C13.4507 40.3092 11.6076 41.1919 11.6053 42.2712C11.5985 45.9047 26.8939 39.0699 26.8779 47.5625C26.8711 51.6533 22.6819 54.9095 16.3936 55.7945C9.89491 56.7069 5.58456 54.53 5.67146 50.2882L11.3561 49.4902C11.3012 50.8324 13.0093 51.3858 15.9294 50.9765C19.4554 50.4803 21.5363 49.5633 21.5386 48.484C21.5454 45.0769 6.24769 52.2822 6.26599 43.1927C6.27285 39.1019 10.2265 35.8777 16.1192 35.0499Z" fill="#FF5E2C"/>
</svg>
