<svg width="60" height="128" viewBox="0 0 60 128" fill="none" xmlns="http://www.w3.org/2000/svg">
<path d="M42.4575 86.408C42.5546 86.5412 42.6446 86.6779 42.7099 86.8181C42.9976 87.4369 43.1318 88.11 43.2747 88.7708C43.3347 89.0495 43.4565 89.3387 43.4371 89.6157C43.4001 90.1205 43.4795 90.6288 43.3842 91.1319C43.3436 91.351 43.2677 91.5736 43.2765 91.791C43.2977 92.2537 43.2412 92.713 43.19 93.167C43.1494 93.5228 43.1247 93.8839 43.0594 94.2397C42.9482 94.8567 42.6693 95.4246 42.5723 96.0486C42.5158 96.4115 42.3393 96.7673 42.1628 97.0968C41.9722 97.4544 41.7886 97.8103 41.6509 98.1924C41.5662 98.4273 41.4991 98.6727 41.3579 98.8865C40.9732 99.4702 40.5672 100.042 40.2142 100.643C39.5311 101.809 38.6857 102.865 37.9832 104.019C37.4908 104.829 36.9789 105.626 36.3876 106.371C36.2747 106.513 36.2411 106.695 36.1282 106.846C35.6728 107.46 35.1521 108.029 34.7973 108.715C34.4691 109.348 33.996 109.889 33.6624 110.52C33.5583 110.718 33.4595 110.92 33.3324 111.102C32.7782 111.898 32.321 112.753 31.9486 113.637C31.4844 114.736 31.0643 115.858 30.7978 117.027C30.6584 117.637 30.5189 118.259 30.5172 118.878C30.5154 119.709 30.3707 120.518 30.2965 121.337C30.1906 122.499 30.0389 123.652 30.0547 124.823C30.0583 125.13 30.1642 125.312 30.3495 125.504C30.5648 125.726 30.8702 125.808 31.1085 125.998C31.292 126.145 31.4968 126.319 31.7139 126.355C32.2769 126.452 32.7499 126.82 33.3553 126.802C33.643 126.794 33.9307 126.837 34.2184 126.832C34.5061 126.827 34.7585 126.731 35.0427 126.716C35.2386 126.708 35.4416 126.699 35.6198 126.617C35.7981 126.534 35.9481 126.359 35.9358 126.164C35.9234 125.975 35.7663 125.826 35.6093 125.719C35.2563 125.479 34.8909 125.416 34.4938 125.297C34.1178 125.184 33.8019 124.967 33.6042 124.634C33.3906 124.277 33.223 123.894 33.1118 123.486C32.9282 122.811 32.8594 122.119 32.7164 121.439C32.6052 120.915 32.5928 120.389 32.6387 119.861C32.7023 119.123 32.8664 118.401 33.0888 117.7C33.313 116.99 33.5512 116.284 33.8442 115.593C34.1425 114.888 34.5344 114.226 34.7779 113.498C34.7903 113.461 34.8256 113.43 34.8538 113.398C35.1927 113.02 35.2368 112.499 35.5051 112.082C35.7293 111.733 35.7946 111.3 36.0505 110.964C36.1617 110.818 36.2464 110.662 36.3347 110.503C36.6047 110.019 36.8712 109.532 37.1678 109.062C37.3337 108.801 37.5737 108.59 37.7008 108.317C38.0768 107.512 38.6963 106.864 39.1181 106.089C39.4182 105.539 39.8259 105.048 40.1277 104.504C40.5354 103.772 41.0596 103.12 41.4815 102.397C41.831 101.8 42.2581 101.246 42.6093 100.643C42.9712 100.019 43.3312 99.3931 43.7054 98.7761C44.2614 97.8593 44.6815 96.8707 45.0062 95.8471C45.0786 95.6209 45.1986 95.4194 45.2551 95.1827C45.4528 94.3571 45.6257 93.5263 45.7246 92.6849C45.7599 92.3852 45.8658 92.082 45.804 91.7805C45.7546 91.5421 45.7652 91.3072 45.7599 91.0705C45.7475 90.3922 45.7669 89.7103 45.714 89.0337C45.6593 88.3431 45.5569 87.656 45.4228 86.9724C45.2833 86.2695 45.0574 85.5859 44.8262 84.9093C44.7097 84.5675 44.5685 84.2344 44.4008 83.9137C44.2437 83.6157 44.0655 83.2616 43.7989 83.053C43.6242 82.9163 43.4583 82.7691 43.2889 82.6253C43.0435 82.4202 42.7876 82.2239 42.4946 82.0925C42.0551 81.8944 41.6862 81.7594 41.2132 81.9382C40.8408 82.0784 40.5195 82.3571 40.3395 82.7112C40.253 82.883 40.2283 83.039 40.2813 83.223C40.3201 83.358 40.3501 83.5351 40.4384 83.6543C40.6184 83.8997 40.8055 84.138 40.9961 84.3729C41.1867 84.6078 41.4197 84.8339 41.5786 85.0881C41.7692 85.3931 41.9651 85.6928 42.1628 85.9908C42.2528 86.1275 42.3605 86.2642 42.4611 86.4045L42.4575 86.408Z" fill="#17AF82"/>
<path d="M53.1359 76.5237C53.023 76.4238 52.8888 76.3449 52.7706 76.2432C52.5711 76.0749 52.3699 75.9049 52.1369 75.7857C51.8969 75.663 51.6727 75.7156 51.445 75.6858C51.2968 75.6665 51.205 75.8015 51.1185 75.9154C51.0867 75.9575 51.032 76.0013 50.9844 76.0066C50.769 76.0276 50.6949 76.1871 50.5943 76.3431C50.3437 76.7288 50.1583 77.1302 50.1601 77.5999C50.1601 77.6543 50.1478 77.7104 50.1372 77.7647C50.0207 78.3256 50.1866 78.8287 50.3896 79.3423C50.5925 79.8558 50.8343 80.3046 51.1715 80.713C51.5421 81.1635 51.9004 81.628 52.2093 82.1223C52.6806 82.8777 53.1606 83.6087 53.4272 84.4851C53.6213 85.1249 53.789 85.7717 53.9178 86.4167C54.052 87.0916 54.1791 87.777 54.2285 88.4728C54.2867 89.2756 54.4615 90.0662 54.4615 90.8795C54.4615 91.8418 54.5479 92.8041 54.5585 93.7682C54.5621 94.103 54.4491 94.4536 54.6185 94.7831C54.6327 94.8111 54.6168 94.8707 54.5938 94.897C54.4897 95.0127 54.5232 95.1617 54.4844 95.2914C54.3609 95.7121 54.4403 96.1451 54.405 96.5675C54.3397 97.3615 54.1649 98.1293 54.0096 98.8988C53.7537 100.156 53.3036 101.356 52.8394 102.552C52.6329 103.085 52.3982 103.612 52.1458 104.117C51.8439 104.718 51.5704 105.353 51.1238 105.879C51.0709 105.942 51.0356 106.021 50.9985 106.096C50.6931 106.725 50.2589 107.274 49.8795 107.856C49.2635 108.801 48.5681 109.688 48.0209 110.681C47.509 111.61 47.0237 112.552 46.5789 113.512C46.1182 114.511 45.774 115.556 45.5728 116.641C45.5393 116.823 45.4669 116.986 45.4122 117.158C45.3257 117.432 45.1616 117.688 45.1722 117.982C45.1845 118.324 45.1139 118.648 45.0274 118.972C44.9692 119.19 44.9551 119.411 44.9515 119.637C44.9462 119.905 44.9092 120.173 44.8915 120.441C44.8615 120.871 44.7715 121.307 44.8245 121.726C44.8651 122.05 44.8686 122.376 44.9092 122.697C44.9374 122.927 45.0716 123.134 45.2569 123.288C45.9117 123.835 46.7395 123.963 47.5232 124.198C47.5496 124.205 47.5797 124.198 47.6079 124.201C47.9927 124.259 48.3563 124.121 48.7322 124.084C48.9105 124.066 49.0676 123.945 49.1805 123.793C49.2158 123.744 49.2494 123.681 49.2017 123.644C48.9599 123.453 48.8381 123.146 48.561 122.992C48.2521 122.82 47.9415 122.65 47.6202 122.501C47.3431 122.373 47.1031 122.152 46.9654 121.938C46.8278 121.724 46.7342 121.414 46.7201 121.114C46.6971 120.655 46.7624 120.208 46.8172 119.754C46.8948 119.116 46.9937 118.483 47.2461 117.896C47.592 117.092 47.7879 116.236 48.1533 115.437C48.4463 114.795 48.6722 114.122 48.937 113.467C49.1505 112.937 49.4788 112.459 49.6182 111.9C49.7577 111.335 50.2289 110.906 50.289 110.306C50.2925 110.27 50.3366 110.238 50.356 110.201C50.7373 109.46 51.2544 108.792 51.5633 108.01C51.6198 107.868 51.6639 107.709 51.761 107.598C52.0804 107.237 52.2093 106.769 52.4917 106.383C52.6453 106.175 52.8182 105.965 52.9365 105.731C53.3001 105.006 53.7537 104.333 54.2267 103.684C54.5921 103.184 54.9521 102.678 55.2875 102.161C55.7093 101.511 56.1065 100.839 56.4206 100.121C56.5812 99.7524 56.7666 99.4036 56.8848 99.011C57.0366 98.5097 57.3279 98.0504 57.3049 97.5018C57.3049 97.4755 57.3102 97.4439 57.3208 97.4194C57.5096 97.004 57.5291 96.5552 57.5767 96.1135C57.6014 95.8874 57.7567 95.6806 57.7056 95.4597C57.5608 94.8427 57.7603 94.2292 57.6738 93.6017C57.5961 93.0355 57.6526 92.4413 57.5838 91.8611C57.5555 91.6262 57.5926 91.3808 57.5467 91.1512C57.4126 90.4711 57.229 89.805 57.116 89.1161C56.9643 88.1994 56.9325 87.2651 56.6766 86.3589C56.5336 85.8558 56.4595 85.33 56.4224 84.7954C56.3836 84.2239 56.2088 83.6525 56.027 83.1109C55.8382 82.5447 55.764 81.9452 55.5011 81.4036C55.4534 81.3054 55.4128 81.1933 55.4075 81.0846C55.3969 80.8164 55.2645 80.6096 55.1198 80.3992C54.9257 80.1188 54.9415 79.7261 54.6397 79.5C54.6256 79.4895 54.6327 79.4474 54.6327 79.4194C54.6327 79.1827 54.5109 78.9882 54.3909 78.8024C54.2391 78.5657 54.1032 78.3239 53.9955 78.0627C53.7943 77.5736 53.5737 77.0898 53.263 76.6586C53.2242 76.6043 53.1801 76.5587 53.1324 76.5167L53.1359 76.5237Z" fill="#17AF82"/>
<path d="M57.9155 63.8208C57.4619 64.0627 57.2466 64.4974 56.9024 64.7954C56.4735 65.1652 56.2281 65.6823 55.8098 66.0644C55.6333 66.2257 55.5045 66.4553 55.3368 66.6446C55.1656 66.8374 54.9644 66.9654 54.7614 67.1126C54.4031 67.3721 54.036 67.6297 53.7095 67.9347C53.5453 68.0872 53.4129 68.273 53.2417 68.415C52.6663 68.8988 52.1439 69.4527 51.4591 69.7997C51.4344 69.812 51.4202 69.8418 51.3973 69.8558C50.919 70.131 50.6295 70.6078 50.2041 70.9444C49.5617 71.4544 48.9704 72.0294 48.3456 72.5622C47.9661 72.8865 47.5725 73.1985 47.163 73.4842C46.8012 73.7349 46.3882 73.9154 46.0899 74.252C46.0299 74.3203 45.9487 74.3361 45.8834 74.3817C45.5127 74.6324 45.1244 74.8672 44.7961 75.1652C44.5119 75.4229 44.2331 75.6718 43.9171 75.8962C43.1741 76.4203 42.4681 76.9952 41.7832 77.5947C41.5326 77.8155 41.2996 78.0627 41.0243 78.2485C40.6977 78.4693 40.3359 78.6359 40.0923 78.9619C40.0623 79.0022 39.9988 79.025 39.9458 79.0373C39.4905 79.1407 39.2134 79.6034 38.7227 79.6332C38.495 79.8926 38.1526 79.9207 37.8596 80.0434C37.6054 80.1486 37.3319 80.2327 37.0583 80.2643C36.7017 80.3046 36.3399 80.2695 35.9781 80.2783C35.4486 80.2923 34.9297 80.1521 34.4284 79.9733C33.8601 79.7699 33.3482 79.4632 32.8275 79.1652C32.6687 79.0741 32.5857 78.8742 32.388 78.855C31.938 78.8111 31.7667 78.2888 31.3167 78.245C31.2867 78.2415 31.2619 78.1538 31.2408 78.103C31.2055 78.0241 31.156 77.9628 31.0802 77.9154C30.4271 77.5053 29.9294 76.9093 29.3116 76.4518C28.8227 76.0907 28.3567 75.6911 27.8713 75.3265C27.2889 74.8883 26.8035 74.3379 26.1593 73.9698C25.8433 73.7892 25.5662 73.5158 25.3032 73.2423C24.9291 72.8515 24.4366 72.5903 24.043 72.2134C23.8136 71.9926 23.4959 71.8558 23.2858 71.621C22.8693 71.1547 22.3292 70.8497 21.8438 70.4781C21.3743 70.117 20.926 69.7244 20.4353 69.3948C20.0611 69.1442 19.807 68.727 19.3392 68.6096C19.2969 68.599 19.2686 68.571 19.2616 68.5237C19.2192 68.2415 18.9739 68.1223 18.7868 67.9628C18.3826 67.6157 17.9661 67.2827 17.5548 66.9426C16.6335 66.1819 15.8833 65.2529 15.0538 64.4027C14.7431 64.0837 14.436 63.7647 14.0813 63.4895C13.6859 63.1827 13.2835 62.8795 12.9181 62.543C12.4557 62.117 11.9473 61.7419 11.5131 61.2897C11.2272 60.9899 10.9236 60.706 10.7048 60.3396C10.5212 60.0311 10.3023 59.7331 10.0252 59.4702C9.89816 59.6788 9.9617 59.8856 9.89992 60.0732C9.7093 60.6551 9.67753 61.2721 9.52044 61.8646C9.36688 62.4466 9.29805 63.0513 9.16744 63.6402C9.03859 64.2204 8.83561 64.7831 8.82679 65.3913C8.81973 65.8751 8.69441 66.3466 8.7403 66.848C8.80561 67.5859 9.08272 68.245 9.38806 68.89C9.66164 69.465 10.0288 70.0031 10.4559 70.4816C10.6748 70.7253 10.853 71.0215 11.1796 71.202C11.2325 71.0092 11.2025 70.8234 11.3384 70.6762C11.4108 70.5973 11.3931 70.4501 11.3525 70.3519C11.2908 70.2011 11.3137 70.0539 11.2978 69.9049C11.2802 69.7454 11.3013 69.5806 11.2184 69.4176C11.0948 69.1757 11.0719 68.9163 11.116 68.6306C11.1672 68.2976 11.2466 68.0031 11.462 67.7349C11.7991 67.3177 12.0462 66.8427 12.5633 66.5728C13.0293 66.3291 13.4741 66.0504 13.9701 65.8629C14.406 65.6981 14.849 65.777 15.2762 65.8664C15.4668 65.9049 15.6292 66.0048 15.8321 65.9067C15.8869 65.8804 16.021 65.8629 16.0087 65.9996C15.9857 66.2432 16.1781 66.3046 16.3316 66.3361C16.524 66.3747 16.6723 66.4764 16.8064 66.5868C16.9865 66.7358 17.1312 66.9286 17.2936 67.1021C17.4348 67.2529 17.5107 67.493 17.6466 67.5877C17.9025 67.7647 17.9484 68.0031 18.0367 68.2485C18.1196 68.4781 18.1408 68.7305 18.2961 68.9373C18.342 68.9987 18.3597 69.0986 18.3508 69.1775C18.2961 69.7226 18.2061 70.266 18.0561 70.7936C17.989 71.0285 17.8725 71.2669 17.719 71.4544C17.3642 71.8891 16.9335 72.238 16.3899 72.4255C16.2275 72.4816 16.1287 72.578 16.1128 72.7533C16.0545 73.4176 15.908 74.0732 15.9275 74.7445C15.931 74.8848 15.9363 75.018 15.9063 75.1582C15.7916 75.6893 15.9204 76.11 16.3899 76.4658C16.8011 76.7761 17.2053 77.1021 17.5972 77.4404C17.9149 77.7139 18.2096 78.0171 18.552 78.2537C18.808 78.4325 18.9545 78.7323 19.251 78.8427C19.3957 78.897 19.4875 78.9829 19.5687 79.0951C19.6534 79.2108 19.7558 79.2984 19.8723 79.3826C20.167 79.5947 20.4918 79.7805 20.7371 80.0399C21.1625 80.4921 21.6479 80.8672 22.1333 81.2406C22.6769 81.6595 23.3335 81.9417 23.7218 82.5465C24.2054 82.8217 24.5761 83.2406 25.0226 83.5631C25.1356 83.6455 25.3068 83.6455 25.3844 83.77C25.6598 84.2117 26.1434 84.4185 26.5211 84.7393C26.7912 84.9689 27.1318 85.1652 27.3648 85.4176C27.979 86.0802 28.7574 86.5219 29.451 87.0741C30.1076 87.5964 30.886 87.9347 31.5708 88.4203C31.6273 88.4606 31.7014 88.5061 31.7614 88.4991C32.0191 88.4711 32.2027 88.6148 32.4057 88.7323C32.5981 88.8427 32.8152 88.904 33.0446 88.8935C33.1717 88.8865 33.3076 88.8655 33.4223 88.9005C33.8389 89.0267 34.2289 88.9303 34.6173 88.8006C34.7126 88.7691 34.8061 88.755 34.9049 88.7445C35.4698 88.6797 35.9957 88.4956 36.4917 88.2222C36.64 88.1416 36.7776 88.0329 36.9347 87.9803C37.3601 87.8348 37.7484 87.621 38.1155 87.3738C38.3273 87.2318 38.5462 87.1161 38.7703 87.004C39.0086 86.8848 39.2787 86.8076 39.5011 86.585C39.1992 86.4606 39.051 86.2082 38.8198 86.0451C38.0026 85.465 37.5401 84.6481 37.3672 83.6858C37.2524 83.053 37.3672 82.4027 37.5631 81.8033C37.699 81.3861 37.9531 80.9777 38.2832 80.6569C38.4332 80.5114 38.555 80.2695 38.7015 80.2169C39.0651 80.089 39.344 79.8348 39.6829 79.6841C40.5989 79.2774 41.5679 79.0583 42.551 78.8953C42.6604 78.8778 42.7681 78.8883 42.8811 78.9216C43.5871 79.1214 44.1942 79.4387 44.6214 80.0732C45.105 80.7936 45.4704 81.5333 45.3662 82.4325C45.3415 82.6464 45.3027 82.8742 45.4633 83.1004C46.6706 82.4255 47.7243 81.5368 48.8663 80.7848C48.8027 80.6446 48.7074 80.6131 48.628 80.5552C48.4126 80.3992 48.1249 80.3396 47.9608 80.1258C47.5884 79.642 47.3113 79.1144 47.216 78.4974C47.1401 78.0118 47.2389 77.5158 47.1136 77.0373C47.0359 76.7445 47.223 76.4991 47.2248 76.2257C47.2265 75.9768 47.2813 75.7594 47.3801 75.5175C47.5778 75.0285 47.8125 74.5745 48.1267 74.1538C48.4762 73.6876 48.9527 73.3738 49.4434 73.0793C50.0382 72.7235 50.7036 72.8637 51.3408 72.8252C51.9462 72.7884 52.4228 73.1582 52.9399 73.3931C53.0829 73.4579 53.1994 73.5561 53.3106 73.6665C53.5859 73.9435 53.8913 74.1854 54.0413 74.571C54.1348 74.8129 54.3519 74.8287 54.4808 74.6446C54.9062 74.0416 55.328 73.4387 55.7481 72.8322C55.8028 72.7533 55.8646 72.6604 55.8699 72.571C55.884 72.3642 55.9757 72.1854 56.0764 72.0276C56.297 71.6806 56.3535 71.2739 56.5053 70.904C56.5741 70.7358 56.7382 70.5973 56.7347 70.436C56.7276 70.0171 56.95 69.6718 57.0489 69.2897C57.2907 68.3642 57.4548 67.4264 57.6155 66.4869C57.7231 65.8506 57.7849 65.209 57.919 64.5763C57.9667 64.3484 58.0444 64.0925 57.9084 63.8313L57.9155 63.8208Z" fill="#C84217"/>
<path d="M42.8829 42.0907C42.9694 42.2257 43.0806 42.3501 43.213 42.4553C43.9278 43.0267 44.4997 43.7454 45.1651 44.3677C45.4404 44.6253 45.7069 44.6131 45.9099 44.273C46.0388 44.0557 46.1923 43.8576 46.3335 43.6508C46.4783 43.4404 46.6318 43.2318 46.766 43.0127C46.8666 42.8462 46.9495 42.6727 47.0872 42.5254C47.216 42.3887 47.1313 42.1643 47.3025 42.0013C47.4296 41.8786 47.3943 41.6034 47.4949 41.4352C47.7861 40.9514 47.8373 40.3817 48.1021 39.8856C48.3015 39.514 48.3351 39.0671 48.5257 38.6762C48.6898 38.3396 48.7887 37.9891 48.824 37.6017C48.8593 37.2178 49.1028 36.8795 49.147 36.4623C49.1946 36.0259 49.2599 35.5754 49.2599 35.1442C49.2599 34.7463 49.3605 34.3536 49.3041 33.9505C49.2776 33.7682 49.1276 33.5824 49.1805 33.4422C49.2846 33.1722 49.1487 32.9356 49.147 32.6867C49.1452 32.1854 49.0075 31.6841 48.9299 31.1827C48.9069 31.032 48.9299 30.8795 48.8557 30.7323C48.6051 30.2204 48.6104 29.621 48.3068 29.1249C48.2874 29.0916 48.2962 29.0425 48.2874 29.0022C48.1621 28.3834 47.8903 27.8068 47.6079 27.2581C47.4278 26.9093 47.3837 26.5026 47.1066 26.1819C46.9866 26.0434 46.9548 25.7717 46.8401 25.5824C46.3706 24.8041 46.0917 23.9435 45.7264 23.1196C45.5975 22.8287 45.4651 22.543 45.3751 22.2309C45.181 21.5543 44.978 20.8813 44.8809 20.1836C44.8491 19.9558 44.7062 19.7822 44.6621 19.5579C44.5703 19.0951 44.5209 18.6253 44.4291 18.1661C44.3143 17.5947 44.2049 17.025 44.1149 16.4501C43.9896 15.6543 43.9313 14.8567 43.9384 14.0522C43.9419 13.7226 43.8837 13.3896 43.9684 13.0636C44.0302 12.8287 44.0355 12.6026 43.9808 12.3624C43.9278 12.1345 43.9243 11.8891 43.979 11.6595C44.0743 11.2511 44.092 10.8339 44.1449 10.4203C44.1961 10.0311 44.1996 9.61395 44.3867 9.28441C44.5614 8.97591 44.5773 8.69195 44.5614 8.37468C44.5579 8.30983 44.5773 8.22043 44.6215 8.18012C44.918 7.91544 44.7379 7.46671 45.0186 7.20028C44.9286 6.7831 45.1969 6.46583 45.3398 6.12052C45.5587 5.59116 45.631 5.00922 45.9452 4.51316C45.9911 4.44129 46.0052 4.33086 45.9699 4.2292C45.9258 4.1065 45.9435 3.97679 45.9805 3.85584C46.0476 3.63674 45.9435 3.44743 45.8834 3.25111C45.8411 3.11088 45.7528 3.10738 45.6222 3.17574C45.2074 3.3966 44.9003 3.69809 44.805 4.17311C44.7432 4.47284 44.602 4.71298 44.3249 4.87249C43.9878 5.06706 43.7213 4.97591 43.6101 4.61307C43.5236 4.32736 43.5095 4.03463 43.5607 3.74366C43.633 3.32298 43.7054 2.90405 43.6913 2.46759C43.5713 2.5377 43.446 2.6271 43.4336 2.73928C43.4001 3.05128 43.1371 3.21956 43.01 3.47197C42.867 3.75593 42.5529 3.78397 42.3058 3.58064C42.1063 3.41588 42.0339 2.86724 42.1469 2.59379C42.2652 2.30632 42.3534 2.00834 42.4505 1.71386C42.4628 1.6753 42.4593 1.62972 42.4505 1.58941C42.4364 1.51579 42.3958 1.4597 42.3163 1.44568C42.2599 1.43691 42.2122 1.44568 42.1716 1.50177C41.8627 1.91369 41.5291 2.32736 41.365 2.80939C41.2556 3.13016 41.1426 3.45619 41.042 3.78222C40.9379 4.11702 40.9926 4.49914 40.7472 4.79537C40.7261 4.82166 40.7314 4.87775 40.7402 4.91807C40.8037 5.21605 40.6961 5.50352 40.6096 5.76294C40.4348 6.28178 40.4172 6.82692 40.3254 7.35102C40.223 7.93472 40.1101 8.52718 40.013 9.11439C39.8771 9.94524 39.7924 10.7796 39.667 11.6104C39.5594 12.3239 39.547 13.0513 39.4694 13.7717C39.4411 14.0381 39.5153 14.2941 39.5011 14.55C39.487 14.8041 39.5011 15.0478 39.5276 15.2984C39.5912 15.8523 39.57 16.4097 39.6159 16.9671C39.6423 17.2809 39.6635 17.5982 39.6776 17.9119C39.6988 18.3852 39.75 18.8585 39.8471 19.309C39.96 19.8331 39.9406 20.3817 40.1224 20.8813C40.2742 21.3019 40.3766 21.7349 40.4878 22.1626C40.7225 23.0618 41.0949 23.9067 41.538 24.7112C41.8539 25.2844 42.0869 25.8926 42.3993 26.4658C42.6023 26.8374 42.7629 27.2388 42.9465 27.621C43.303 28.3624 43.5448 29.1477 43.896 29.8874C44.1784 30.4816 44.2526 31.1389 44.4926 31.7419C44.6056 32.0259 44.6162 32.3519 44.8121 32.599C44.9127 32.7253 44.9568 32.8392 44.9745 33.004C45.0609 33.7717 45.1845 34.5307 45.1721 35.3125C45.1651 35.7121 45.1315 36.1153 45.1598 36.5167C45.1986 37.0916 45.1192 37.6595 44.9745 38.2099C44.9127 38.443 44.955 38.6832 44.895 38.8883C44.7591 39.358 44.6126 39.8383 44.2808 40.2257C44.1979 40.3221 44.1378 40.4255 44.0778 40.5377C43.8113 41.0302 43.4901 41.486 43.07 41.8646C42.9976 41.9295 42.9164 41.9891 42.8776 42.0995L42.8829 42.0907Z" fill="#17AF82"/>
<path d="M14.7803 74.7919C14.7944 74.1854 14.8138 73.5754 14.9568 72.9864C15.0397 72.6446 14.9215 72.287 15.0839 71.9452C15.278 71.5351 15.248 71.039 15.5092 70.6534C15.7881 70.2415 15.9081 69.7787 16.0317 69.3125C16.0458 69.2581 16.0882 69.2038 16.044 69.16C15.7934 68.9216 15.7334 68.5377 15.3839 68.3677C14.9515 68.1556 14.3708 68.1065 14.1166 68.3817C13.8484 68.6727 13.5501 68.9409 13.3577 69.3054C13.2377 69.5333 13.1388 69.8015 12.92 69.954C12.7893 70.0451 12.7505 70.1573 12.6887 70.28C12.6287 70.3975 12.6693 70.543 12.5846 70.6359C12.2969 70.9549 12.2881 71.3808 12.1575 71.7559C12.078 71.9838 12.1098 72.2818 12.0939 72.5237C12.0763 72.8006 12.0427 73.0811 12.0427 73.358C12.0286 73.5806 12.0074 73.805 12.0057 74.0276C12.0057 74.2327 12.071 74.4395 12.0198 74.6429C11.9245 75.0145 12.041 75.372 12.078 75.7244C12.1292 76.1906 12.1345 76.6621 12.2157 77.1284C12.2722 77.4509 12.3022 77.784 12.341 78.1135C12.4258 78.8427 12.5334 79.5684 12.627 80.2958C12.6517 80.4886 12.6358 80.6884 12.6693 80.8813C12.867 82.0241 12.9147 83.1792 12.8829 84.3326C12.8494 85.5228 12.8458 86.7165 12.6746 87.8997C12.6693 87.94 12.664 87.9803 12.6711 88.0206C12.7435 88.5272 12.6058 89.0162 12.5122 89.5C12.3922 90.1258 12.3093 90.7603 12.1169 91.372C11.9351 91.954 11.8009 92.5517 11.6315 93.1372C11.5697 93.3493 11.4179 93.528 11.3579 93.7472C11.1161 94.6148 10.7313 95.4264 10.276 96.1941C9.75175 97.0793 9.20283 97.9505 8.55153 98.7568C7.82435 99.6578 7.0548 100.52 6.31702 101.411C6.18994 101.565 6.02579 101.672 5.89871 101.823C5.31978 102.508 4.78498 103.227 4.25901 103.95C3.50181 104.992 2.91053 106.129 2.33161 107.274C1.8374 108.25 1.59206 109.304 1.29378 110.343C1.20376 110.657 1.20376 110.976 1.15963 111.293C1.08903 111.8 0.972542 112.306 1.08903 112.827C1.14198 113.064 1.22671 113.19 1.40321 113.186C1.57441 113.183 1.86035 112.979 1.85858 112.822C1.85329 112.485 2.00155 112.166 1.95919 111.826C1.94154 111.677 1.99096 111.525 2.00861 111.377C2.04744 111.05 2.21159 110.729 2.1251 110.396C2.05979 110.149 2.19041 110.092 2.3775 110.073C2.51693 110.057 2.6599 110.052 2.79934 110.066C3.01643 110.089 3.26707 110.303 3.25471 110.496C3.22647 110.878 3.35708 111.248 3.33414 111.617C3.30237 112.117 3.36767 112.611 3.36767 113.107C3.36767 113.339 3.45416 113.616 3.67302 113.796C3.82658 113.684 3.88659 113.537 3.90953 113.388C3.9766 112.937 4.06839 112.48 3.98896 112.028C3.93954 111.747 3.9819 111.481 3.99602 111.207C4.01191 110.894 4.09486 110.781 4.34902 110.713C4.68261 110.622 4.85911 110.72 5.06739 110.951C5.2686 111.172 5.17505 111.418 5.14328 111.612C5.06033 112.128 5.10975 112.604 5.33567 113.099C5.40627 112.808 5.54747 112.539 5.47864 112.266C5.31096 111.595 5.5916 110.923 5.44863 110.255C5.43275 110.184 5.47334 110.084 5.51923 110.019C5.72397 109.731 5.74515 109.376 5.77692 109.065C5.84576 108.399 5.98873 107.749 6.15464 107.113C6.46705 105.905 6.84653 104.713 7.55253 103.654C7.88436 103.156 8.13675 102.608 8.53035 102.145C8.92748 101.677 9.25578 101.158 9.68115 100.708C9.92472 100.45 10.2159 100.262 10.4683 100.022C11.2185 99.3089 11.8151 98.4518 12.604 97.7752C12.7011 97.6928 12.7258 97.5578 12.784 97.4474C13.0153 97.0057 13.2235 96.5482 13.5059 96.1416C13.7107 95.8471 13.8942 95.5368 14.0725 95.2336C14.3867 94.6972 14.6144 94.1082 14.8491 93.5298C15.0415 93.053 15.1704 92.5517 15.368 92.0784C15.5657 91.6052 15.5445 91.0811 15.7616 90.6113C15.834 90.4571 15.864 90.2642 15.8411 90.0767C15.8322 89.9961 15.8411 89.9032 15.8711 89.8278C16.1058 89.2406 15.9734 88.6306 15.9911 88.0294C15.9999 87.7331 15.8905 87.4492 15.887 87.1582C15.8781 86.571 15.6222 86.0171 15.661 85.4246C15.661 85.3983 15.654 85.3668 15.6399 85.344C15.4351 85.0022 15.6222 84.5675 15.3733 84.2362C15.4863 83.8611 15.3469 83.4912 15.3574 83.1214C15.3698 82.6323 15.2816 82.1538 15.2816 81.6648C15.2816 80.6411 15.0574 79.6297 15.0062 78.6008C14.9709 77.9032 14.918 77.1915 14.7538 76.4991C14.662 76.117 14.7644 75.6893 14.7768 75.2984C14.7821 75.1302 14.7856 74.9619 14.7891 74.7936L14.7803 74.7919Z" fill="#17AF82"/>
<path d="M36.9224 79.0232C37.3054 79.1109 37.6796 78.9373 37.9814 78.7585C38.3944 78.5114 38.8533 78.3571 39.254 78.0749C39.5099 77.8944 39.7835 77.7349 40.0147 77.5175C40.1277 77.4106 40.2353 77.2949 40.3783 77.2318C40.6413 77.1144 40.8531 76.9286 41.0455 76.7252C41.5044 76.2397 42.0745 75.8909 42.604 75.4983C43.0047 75.202 43.3259 74.7848 43.8342 74.6376C43.8678 74.6288 43.8854 74.5745 43.9154 74.5447C44.2984 74.1573 44.7061 73.791 45.1739 73.5123C46.014 73.011 46.743 72.3659 47.5213 71.7857C48.305 71.202 48.9298 70.4413 49.7294 69.8734C50.1883 69.5456 50.6278 69.1845 51.039 68.7971C51.385 68.4693 51.7892 68.2222 52.1333 67.8909C52.4334 67.6017 52.7123 67.2791 53.0476 67.0337C53.5806 66.6464 54.0254 66.1661 54.5143 65.7349C54.6803 65.5894 54.8621 65.4404 54.8974 65.1985C54.9079 65.1161 54.9574 65.0548 55.0297 65.0741C55.1903 65.1161 55.1956 64.9794 55.2715 64.911C55.6863 64.5307 56.0234 64.082 56.4223 63.6858C56.7948 63.3142 57.1354 62.9075 57.3225 62.3957C57.6049 61.628 57.9155 60.8672 58.0267 60.0504C58.0638 59.7735 58.175 59.4772 58.0356 59.2055C57.8997 58.9408 57.7585 58.6639 57.5572 58.4483C57.1954 58.0609 56.883 57.6315 56.4982 57.2634C56.35 57.1214 56.1929 56.9742 56.0746 56.8094C55.794 56.4203 55.4657 56.0784 55.1074 55.7682C54.7526 55.4614 54.4843 55.0793 54.1031 54.7883C53.5401 54.3607 53.1076 53.7822 52.5658 53.3177C52.2957 53.0863 52.0451 52.8146 51.805 52.5394C51.2755 51.933 50.6366 51.4352 50.0824 50.8532C49.6588 50.4097 49.2493 49.9522 48.8151 49.5193C48.2768 48.9812 47.7173 48.4641 47.1683 47.933C46.6459 47.4281 46.0758 46.9724 45.5745 46.4448C45.2957 46.1503 45.068 45.812 44.752 45.5473C44.2808 45.1512 43.8554 44.7042 43.423 44.273C42.9588 43.8103 42.5157 43.3195 42.0533 42.8532C41.9245 42.7217 41.7991 42.5973 41.5891 42.6025C41.455 42.6061 41.3279 42.5272 41.3032 42.394C41.2608 42.1591 41.0896 42.0241 40.9625 41.8471C40.7931 41.6139 40.5425 41.4755 40.3765 41.2581C40.1171 40.9181 39.7782 40.6692 39.4499 40.4132C38.7351 39.8576 37.9885 39.344 37.2719 38.7901C37.1007 38.6586 36.8995 38.6236 36.7212 38.5167C36.0505 38.1188 35.3762 37.7033 34.5661 37.628C34.3331 37.6069 34.0772 37.5018 33.876 37.5386C33.4665 37.6139 33.0499 37.6946 32.6511 37.8173C31.8515 38.0627 31.1367 38.4991 30.4095 38.9023C30.1059 39.0706 29.8164 39.2564 29.6382 39.5771C29.5852 39.6735 29.4652 39.8278 29.3416 39.7366C28.9922 39.4772 28.7592 39.7489 28.588 39.933C28.0038 40.5587 27.3913 41.1459 26.6782 41.6245C26.5476 41.7121 26.4241 41.798 26.3411 41.9347C26.1823 42.1941 25.9246 42.3484 25.6916 42.5254C25.6175 42.5833 25.5433 42.6446 25.4674 42.6972C24.9644 43.046 24.6061 43.5491 24.1031 43.9049C23.63 44.2397 23.247 44.6937 22.7934 45.0635C22.4069 45.3791 22.038 45.7209 21.6691 46.0592C21.4167 46.2905 21.1784 46.543 20.926 46.7743C20.5183 47.1494 19.9941 47.3756 19.6376 47.819C19.5317 47.9505 19.4964 48.1959 19.2881 48.2046C19.1134 48.2117 19.0375 48.3273 18.9421 48.4132C18.6615 48.6639 18.3897 48.9233 18.132 49.195C17.599 49.7577 17.0659 50.3186 16.4835 50.8374C15.8957 51.3615 15.345 51.9312 14.8226 52.5184C14.3019 53.1039 13.7318 53.642 13.1864 54.2029C12.9146 54.4816 12.604 54.755 12.2721 54.9917C11.8874 55.2669 11.4938 55.5614 11.3737 56.0714C11.3384 56.2204 11.2167 56.3186 11.0984 56.4255C10.8213 56.6814 10.5989 57.0092 10.6095 57.3931C10.6183 57.677 10.7383 57.9663 10.8125 58.2485C11.0031 58.9742 11.5555 59.4527 11.9491 60.0276C12.2527 60.4728 12.6834 60.8602 13.1176 61.2143C13.7106 61.6998 14.3354 62.1486 14.8879 62.6814C15.0591 62.8462 15.2762 62.9444 15.4421 63.1231C15.8392 63.5508 16.2823 63.933 16.6494 64.3957C16.9671 64.7971 17.3519 65.1494 17.7296 65.4983C17.8867 65.6437 17.9573 65.8453 18.132 65.975C18.4568 66.2152 18.7604 66.4869 19.0816 66.7288C19.9994 67.4211 20.7884 68.2607 21.7344 68.9268C22.2886 69.316 22.8305 69.7384 23.3653 70.1626C24.0113 70.6762 24.6626 71.1827 25.2927 71.7156C25.7816 72.1293 26.237 72.5868 26.7488 72.9671C27.3507 73.4141 27.9473 73.8664 28.5297 74.3379C28.9622 74.6902 29.4122 75.0215 29.8553 75.358C30.5313 75.8716 31.1049 76.5114 31.8056 77.0092C32.1798 77.2756 32.5593 77.5438 32.9335 77.812C33.5336 78.2415 34.2272 78.5167 34.9103 78.7989C35.0621 78.862 35.198 78.9496 35.3709 78.9864C35.8828 79.0951 36.3894 79.0916 36.9206 79.0302L36.9224 79.0232Z" fill="#FF5E2C"/>
<path d="M33.1558 45.9908C32.568 46.0206 32.065 45.9119 31.802 46.4518C31.7914 46.4746 31.7561 46.4833 31.7367 46.5026C31.2125 47.0478 30.4624 47.2774 29.9187 47.8225C29.4987 48.2432 29.0786 48.7024 28.5209 48.9741C28.4856 48.9917 28.4538 49.032 28.4414 49.0688C28.392 49.223 28.2508 49.2651 28.129 49.3317C28.0302 49.3861 27.9119 49.4141 27.8307 49.486C27.01 50.2222 26.094 50.8409 25.2556 51.5561C24.7702 51.9698 24.2124 52.2975 23.6971 52.6797C23.3052 52.9689 22.961 53.3177 22.5763 53.6192C22.3221 53.8173 22.0591 54.0276 21.8138 54.2485C21.1042 54.8935 20.3559 55.4982 19.7858 56.28C19.5987 56.5359 19.5387 56.8655 19.6534 57.1126C19.7717 57.3668 19.8493 57.67 20.0594 57.8681C20.4388 58.2257 20.6806 58.6919 21.0725 59.0407C21.7149 59.6139 22.188 60.3554 22.8957 60.8742C23.0846 61.0127 23.3352 61.1599 23.4235 61.3913C23.4941 61.5719 23.5982 61.7244 23.7288 61.8313C24.0748 62.1152 24.3678 62.4518 24.7119 62.7322C25.1638 63.1003 25.5644 63.5245 25.9898 63.9189C26.6252 64.5079 27.3048 65.0057 28.0778 65.3896C28.1431 65.4211 28.2067 65.4264 28.2738 65.4422C28.8986 65.5806 29.4387 65.3037 29.9999 65.1214C30.3671 65.0022 30.623 64.6867 31.0113 64.5973C31.2107 64.5517 31.3431 64.3344 31.5214 64.2572C31.9997 64.0504 32.3774 63.6875 32.8522 63.4825C32.9616 63.4351 33.0764 63.3633 33.124 63.2318C33.1523 63.1494 33.207 63.0968 33.3076 63.0863C33.6465 63.0565 33.7983 62.6902 34.123 62.6306C34.529 62.1836 35.0673 61.8909 35.4927 61.4667C35.7521 61.209 36.1034 61.0513 36.3346 60.7831C36.6099 60.4623 36.9382 60.2011 37.2312 59.8996C37.4713 59.6525 37.7007 59.3966 37.999 59.1932C38.2355 59.032 38.3855 58.741 38.6415 58.5745C38.8498 58.4378 38.9062 58.1573 39.0951 58.0329C39.4463 57.7997 39.7111 57.4737 40.0464 57.2336C40.1859 57.1336 40.1717 56.9356 40.3147 56.8777C40.7048 56.7165 40.9537 56.443 41.0331 56.0364C41.1037 55.6788 41.3031 55.365 41.2766 54.9671C41.2608 54.7252 41.1107 54.557 41.0984 54.3396C41.0631 53.7542 40.7277 53.3002 40.4188 52.8409C39.9423 52.1328 39.261 51.6069 38.6715 51.0004C38.3538 50.6744 37.9937 50.3887 37.6866 50.0486C37.5613 49.9102 37.3971 49.9084 37.2489 49.8471C37.1059 49.7875 37.233 49.5351 37.0441 49.4088C36.6346 49.1337 36.3946 48.6832 36.024 48.3659C35.6286 48.0258 35.3638 47.5736 34.9596 47.2371C34.732 47.0478 34.4902 46.8637 34.2801 46.6358C33.9659 46.294 33.597 45.9049 33.154 45.9908H33.1558Z" fill="#F9B739"/>
<path d="M45.2533 1.86461C45.9964 1.54734 46.3935 1.44568 46.8595 2.21518C46.9866 2.42552 47.1313 2.64638 47.0272 2.91982C47.269 3.2774 47.1331 3.68056 47.1684 4.06268C47.1825 4.21868 47.1437 4.36242 47.0942 4.51141C46.976 4.86198 46.9407 5.23183 46.7942 5.57889C46.6247 5.9838 46.54 6.42552 46.3653 6.82692C46.2135 7.17399 46.1358 7.53157 46.0635 7.89441C46.0441 7.98906 45.9982 8.07845 45.9646 8.1696C45.8552 8.47986 45.7016 8.77959 45.7422 9.12666C45.7493 9.19327 45.7422 9.27039 45.714 9.33174C45.4369 9.954 45.4298 10.6218 45.3398 11.2809C45.2904 11.6402 45.2798 11.9943 45.2551 12.3519C45.2392 12.5745 45.4069 12.7761 45.3027 13.004C45.2816 13.0495 45.3204 13.1267 45.2957 13.1635C45.0768 13.4825 45.2268 13.8015 45.2833 14.1205C45.2957 14.1889 45.3292 14.2608 45.3186 14.3239C45.2039 14.9952 45.4157 15.6525 45.4016 16.3203C45.3945 16.6359 45.474 16.9531 45.5622 17.2616C45.6187 17.4579 45.6363 17.6648 45.6769 17.8664C45.7793 18.3817 45.8481 18.9058 45.9999 19.4071C46.2311 20.1766 46.3035 20.9847 46.5947 21.7366C46.7395 22.1083 46.9072 22.4728 47.0784 22.8339C47.4014 23.521 47.6855 24.2239 48.0244 24.904C48.305 25.4685 48.6704 26.0083 48.8257 26.6218C48.9581 27.1442 49.2917 27.5771 49.4188 28.0767C49.6112 28.8287 49.913 29.5456 50.0701 30.3116C50.2448 31.167 50.3966 32.0241 50.5484 32.883C50.589 33.1144 50.596 33.3598 50.5784 33.5947C50.5396 34.1135 50.5607 34.6306 50.5572 35.1477C50.5572 35.4001 50.5449 35.649 50.4813 35.8944C50.4672 35.947 50.446 35.9978 50.4425 36.0504C50.4337 36.1766 50.6737 36.11 50.6225 36.2835C50.5872 36.4062 50.4248 36.3887 50.3984 36.5132C50.3807 36.5955 50.3348 36.6744 50.3313 36.7551C50.3083 37.2634 50.093 37.7244 49.9659 38.2082C49.92 38.3817 49.8618 38.5517 49.8159 38.727C49.6871 39.2196 49.5494 39.7104 49.3076 40.1678C49.1593 40.4483 49.0481 40.7568 48.9669 41.0636C48.8328 41.5771 48.6192 42.0574 48.4268 42.5482C48.3898 42.6429 48.3792 42.7375 48.3809 42.8357C48.3809 42.9075 48.3756 42.9794 48.3174 43.0267C47.9009 43.365 47.7438 43.8786 47.4508 44.3011C47.1843 44.6867 46.8895 45.0443 46.5894 45.4001C46.4465 45.5701 46.4518 45.7594 46.6336 45.8962C47.5161 46.571 48.2733 47.3756 49.0816 48.131C49.8688 48.8672 50.5907 49.663 51.3568 50.4168C51.8104 50.8655 52.2269 51.3563 52.7052 51.7805C53.1694 52.1906 53.5013 52.7288 53.9902 53.1021C54.4032 53.4159 54.7368 53.8103 55.1392 54.138C55.5328 54.4571 55.8876 54.8409 56.2476 55.209C56.6095 55.5771 56.9854 55.933 57.3631 56.2853C57.4973 56.4097 57.5485 56.5815 57.6844 56.7165C58.1874 57.216 58.6375 57.7629 59.0452 58.3449C59.347 58.7761 59.4264 59.2511 59.3682 59.7366C59.3258 60.0837 59.3205 60.4045 59.3682 60.7533C59.4158 61.1179 59.4105 61.5018 59.3947 61.8769C59.3611 62.699 59.2376 63.5123 59.1581 64.3309C59.1087 64.8287 58.9393 65.3212 59.0275 65.8313C59.0328 65.8593 59.0346 65.8891 59.0275 65.9154C58.784 66.713 58.7257 67.5456 58.5563 68.3571C58.3833 69.181 58.1415 69.9873 57.8891 70.7919C57.5308 71.9382 57.1884 72.869 56.7065 73.7384C56.583 73.9628 56.4241 74.1538 56.2547 74.3414C56.0588 74.5587 55.9246 74.8059 55.8452 75.0898C55.7781 75.337 55.5381 75.4702 55.4004 75.6753C55.3581 75.7384 55.2327 75.784 55.2451 75.8576C55.2998 76.1871 55.0351 76.3361 54.8656 76.5237C54.728 76.6762 54.7227 76.8129 54.8074 76.9654C54.9768 77.2686 55.178 77.5543 55.3316 77.8646C55.5787 78.3677 55.9899 78.7989 56.0199 79.3983C56.0217 79.4509 56.0535 79.5053 56.08 79.5526C56.4506 80.1976 56.6395 80.9163 56.9183 81.5982C57.2113 82.3151 57.2996 83.0706 57.432 83.8208C57.4937 84.1696 57.589 84.5219 57.6967 84.8532C57.8238 85.2388 57.732 85.628 57.845 85.9996C57.8644 86.0644 57.8326 86.1468 57.8573 86.2082C58.0762 86.7603 58.0885 87.3493 58.1909 87.9224C58.2968 88.5184 58.3533 89.1266 58.4892 89.7103C58.6181 90.2642 58.6216 90.8392 58.8281 91.3808C58.9234 91.6332 58.9269 91.9277 58.9358 92.2047C58.9569 92.8129 58.9799 93.4229 58.9887 94.0294C58.9958 94.4465 59.0099 94.8883 58.9216 95.3107C58.8863 95.4772 58.9146 95.6455 58.9005 95.8067C58.8634 96.1871 58.8775 96.5727 58.7593 96.9479C58.6569 97.2739 58.6039 97.6174 58.5545 97.9575C58.4239 98.8444 58.1556 99.6841 57.6685 100.441C57.582 100.575 57.529 100.708 57.4796 100.85C57.259 101.5 56.8495 102.045 56.4894 102.617C56.2317 103.027 55.9952 103.458 55.6828 103.823C55.2981 104.273 55.0686 104.816 54.705 105.276C54.6026 105.405 54.495 105.532 54.3926 105.661C53.9655 106.199 53.6425 106.809 53.3336 107.409C53.0335 107.991 52.6452 108.518 52.3769 109.111C52.1263 109.665 51.7486 110.152 51.5244 110.718C51.3956 111.043 51.152 111.309 51.0532 111.647C51.0108 111.794 50.9084 111.94 50.9155 112.082C50.9261 112.266 50.8043 112.347 50.7355 112.475C50.5625 112.792 50.2872 113.062 50.3048 113.47C50.3136 113.667 50.1354 113.819 50.0718 114.001C49.7877 114.801 49.3994 115.558 49.1364 116.369C48.8222 117.342 48.3315 118.255 48.1109 119.262C47.9838 119.835 47.9132 120.413 47.9644 121.002C47.9856 121.248 48.1391 121.421 48.3403 121.516C48.6722 121.672 48.9705 121.882 49.2811 122.07C49.853 122.415 50.2695 122.925 50.6225 123.477C50.7319 123.649 50.6808 123.894 50.6225 124.089C50.469 124.594 50.1477 124.937 49.627 125.125C49.2264 125.269 48.824 125.353 48.4074 125.414C48.0085 125.474 47.6449 125.435 47.2584 125.314C46.946 125.216 46.6036 125.191 46.2735 125.132C45.8128 125.05 45.4122 124.816 44.9709 124.688C44.925 124.674 44.8933 124.611 44.8544 124.574C44.7838 124.506 44.7026 124.448 44.6391 124.373C44.4944 124.205 44.2155 124.241 44.1114 123.993C44.0337 123.803 43.926 123.612 43.7619 123.472C43.6542 123.381 43.6189 123.267 43.6242 123.137C43.6489 122.315 43.5942 121.493 43.6966 120.669C43.7725 120.05 43.799 119.423 43.8996 118.806C44.0108 118.122 44.1202 117.439 44.3055 116.767C44.4732 116.159 44.6797 115.563 44.8297 114.948C44.9586 114.426 45.1209 113.903 45.3769 113.416C45.7458 112.713 46.0935 111.998 46.3882 111.258C46.5294 110.901 46.773 110.578 46.9901 110.254C47.0678 110.136 47.1437 110.024 47.2054 109.898C47.5602 109.165 48.035 108.503 48.4886 107.837C48.9104 107.216 49.3464 106.604 49.7347 105.963C50.2254 105.155 50.739 104.357 51.1414 103.502C51.3109 103.141 51.468 102.766 51.6303 102.401C51.8474 101.917 52.0081 101.419 52.1951 100.927C52.4564 100.236 52.6576 99.5315 52.8041 98.8059C52.9082 98.2888 52.9823 97.7664 53.0971 97.2529C53.2277 96.6639 53.2524 96.0662 53.3071 95.4685C53.3724 94.7568 53.3724 94.0434 53.3548 93.3317C53.3406 92.7182 53.3406 92.103 53.2312 91.4965C53.2012 91.3335 53.2877 91.1985 53.2753 91.0425C53.2383 90.5307 53.24 90.0153 53.1712 89.5088C53.1006 88.9864 53.0918 88.4553 52.9576 87.9417C52.6858 86.8953 52.5958 85.8032 52.1934 84.7884C51.8792 83.9943 51.4997 83.2318 51.0108 82.5272C50.9102 82.3799 50.792 82.2344 50.6508 82.1275C50.3878 81.9312 50.2113 81.67 50.0295 81.4071C49.6888 81.6648 49.3464 81.9277 48.9863 82.1205C48.5151 82.3712 48.1391 82.7323 47.7102 83.0285C47.1931 83.3861 46.6371 83.6718 46.1005 83.9926C45.8428 84.1468 45.857 84.124 45.9064 84.4115C46.0035 84.9794 46.2876 85.4825 46.4394 86.0294C46.4659 86.1223 46.5083 86.2082 46.5118 86.3098C46.5224 86.6586 46.5983 86.9934 46.6918 87.3335C46.8189 87.7997 46.9107 88.2888 46.9301 88.7708C46.9548 89.4264 46.9919 90.0837 46.9883 90.7358C46.9866 91.3913 47.0501 92.0574 46.9583 92.7042C46.8383 93.5473 46.773 94.4045 46.4712 95.2196C46.3723 95.4842 46.3582 95.7822 46.24 96.0522C46.0529 96.4834 45.8993 96.9286 45.7316 97.3685C45.5834 97.7559 45.4351 98.1521 45.2498 98.5149C45.0733 98.862 44.9074 99.2441 44.5985 99.5175C44.5667 99.5456 44.5244 99.5754 44.5173 99.6104C44.3902 100.224 43.9896 100.699 43.6683 101.209C43.3595 101.7 43.1247 102.241 42.7911 102.699C42.3887 103.253 42.0533 103.851 41.628 104.385C41.4268 104.638 41.2626 104.908 41.1338 105.204C40.9467 105.63 40.6007 105.954 40.3554 106.345C40.0024 106.909 39.6441 107.472 39.2699 108.024C38.6222 108.985 38.0167 109.97 37.4519 110.983C36.9913 111.81 36.5747 112.657 36.1511 113.504C35.7946 114.213 35.5316 114.967 35.1009 115.642C34.9844 115.824 34.9703 116.068 34.8715 116.266C34.5379 116.927 34.4055 117.656 34.1778 118.348C33.9978 118.899 33.7948 119.491 33.9007 120.103C33.9484 120.38 33.726 120.646 33.8901 120.92C33.8019 121.518 34.1867 122.047 34.1408 122.638C34.3861 122.943 34.3226 123.358 34.5344 123.688C34.725 123.984 34.9862 124.187 35.2633 124.357C35.6922 124.62 36.1547 124.82 36.4953 125.216C36.5959 125.335 36.7512 125.386 36.8554 125.5C36.933 125.584 36.9983 125.7 37.0583 125.796C37.2295 126.078 37.2684 126.424 37.1642 126.738C37.0283 127.144 36.6895 127.46 36.3011 127.649C35.9128 127.838 35.4804 127.912 35.0515 127.954C34.4302 128.015 33.8019 128.015 33.1806 127.954C32.6705 127.903 32.0422 127.863 31.5833 127.619C31.2885 127.461 30.992 127.307 30.7025 127.135C30.0247 126.736 29.2164 126.238 28.941 125.465C28.7645 124.971 28.8969 124.39 28.9057 123.87C28.9216 122.993 28.9816 122.105 29.1475 121.246C29.3311 120.298 29.2976 119.335 29.4511 118.392C29.5658 117.693 29.6735 116.992 29.8729 116.306C30.1183 115.463 30.3972 114.634 30.729 113.821C30.9955 113.163 31.3132 112.529 31.645 111.901C32.1198 111 32.6864 110.15 33.1824 109.26C33.5548 108.594 33.9484 107.931 34.4532 107.344C34.8891 106.837 35.1962 106.238 35.5987 105.707C36.3594 104.702 36.9507 103.593 37.632 102.539C38.0256 101.933 38.4121 101.312 38.8322 100.732C39.4252 99.9102 39.9141 99.0337 40.4119 98.1626C40.7366 97.5947 40.9979 96.9934 41.2185 96.3712C41.3597 95.9733 41.4991 95.5701 41.6297 95.1687C41.7709 94.7393 41.8804 94.294 41.9263 93.8383C41.9669 93.4387 42.0392 93.0443 42.071 92.6446C42.1239 91.9645 42.2881 91.2932 42.2157 90.5973C42.184 90.2958 42.2528 89.9855 42.2104 89.6665C42.1098 88.9005 41.9157 88.1678 41.6086 87.4632C41.5256 87.2721 41.4479 87.0793 41.4091 86.8304C41.012 87.0337 40.6078 87.1757 40.2848 87.4229C39.9247 87.6998 39.5347 87.9207 39.1464 88.1398C38.4404 88.5377 37.7361 88.9373 37.0619 89.3843C36.9701 89.4457 36.8571 89.4737 36.7495 89.5088C36.1494 89.6998 35.5245 89.8085 34.928 89.9978C34.2202 90.2239 33.5177 90.1258 32.8082 90.1223C32.7182 90.1223 32.6511 90.0732 32.5752 90.0381C32.4499 89.9785 32.3104 89.8961 32.1834 89.9049C31.7527 89.9382 31.4332 89.6946 31.0855 89.5228C30.6972 89.3317 30.3442 89.067 29.9135 88.9601C29.8553 88.9461 29.8023 88.9181 29.7812 88.8655C29.7017 88.6534 29.497 88.6096 29.324 88.5237C29.2746 88.4991 29.2005 88.4904 29.1758 88.4501C28.9304 88.0574 28.445 88.0223 28.1185 87.7419C27.9632 87.6087 27.8096 87.4947 27.679 87.3282C27.5414 87.1512 27.3084 87.0513 27.1319 86.8988C26.8018 86.6166 26.4753 86.3273 26.1576 86.0294C25.9458 85.8295 25.6934 85.6753 25.4675 85.5035C25.1762 85.2844 24.9256 85.0197 24.6697 84.7778C24.1878 84.3238 23.5965 84.0066 23.1553 83.5193C22.7423 83.0653 22.2445 82.7025 21.7556 82.3554C21.2879 82.0224 20.8449 81.663 20.416 81.2897C19.6447 80.6218 18.8169 80.0224 18.0685 79.3265C17.5178 78.8146 16.9142 78.3589 16.3335 77.8786C16.2699 77.826 16.2046 77.7472 16.1164 77.7805C15.9964 77.8243 16.0264 77.9417 16.0317 78.0346C16.0546 78.5359 16.0652 79.0443 16.1287 79.5386C16.187 79.9891 16.2858 80.4413 16.3388 80.8953C16.3864 81.2949 16.4323 81.6928 16.4553 82.096C16.4765 82.4781 16.4659 82.862 16.5418 83.2458C16.6177 83.6262 16.6 84.0224 16.6547 84.408C16.7518 85.0933 16.8524 85.7787 16.9883 86.4571C17.0748 86.8883 17.0307 87.3195 17.0695 87.7507C17.0836 87.9137 17.0748 88.0925 17.1172 88.245C17.2036 88.5605 17.1772 88.8777 17.2001 89.1933C17.2213 89.479 17.1225 89.7419 17.0589 90.0136C16.9018 90.6744 16.7836 91.344 16.6194 92.0031C16.5329 92.3519 16.4023 92.6954 16.2558 93.025C15.9964 93.6122 15.8711 94.2485 15.571 94.8181C15.3186 95.2967 15.1015 95.7927 14.782 96.2397C14.572 96.5324 14.4308 96.8742 14.2419 97.1827C13.9719 97.6245 13.686 98.0574 13.4089 98.4939C13.3859 98.5289 13.3824 98.578 13.3541 98.6061C12.6164 99.3282 12.0374 100.194 11.2326 100.858C10.9608 101.083 10.6448 101.291 10.4842 101.633C10.4401 101.726 10.3607 101.786 10.2618 101.816C10.1771 101.842 10.0959 101.887 10.0624 101.963C9.84351 102.441 9.39167 102.746 9.12515 103.181C8.67684 103.915 8.20911 104.638 7.8914 105.447C7.61253 106.163 7.47486 106.929 7.10773 107.61C7.02301 107.768 7.11656 107.945 7.0689 108.106C6.85181 108.83 6.84828 109.589 6.68413 110.327C6.55881 110.885 6.51645 111.481 6.56411 112.073C6.58882 112.383 6.63824 112.697 6.58176 113.02C6.53234 113.304 6.37525 113.549 6.3523 113.84C6.34524 113.926 6.23581 113.984 6.32053 114.113C6.38055 114.203 6.24464 114.32 6.17051 114.306C5.94812 114.262 5.8175 114.459 5.77161 114.548C5.64277 114.795 5.52628 114.745 5.39566 114.601C5.21034 114.396 4.95088 114.454 4.72672 114.399C4.58729 114.364 4.55198 114.555 4.46197 114.638C4.13368 114.941 3.77361 115.141 3.29882 115.104C2.95641 115.078 2.77461 114.867 2.62458 114.61C2.52751 114.441 2.46044 114.257 2.36866 114.054C2.12332 114.31 1.84092 114.433 1.49497 114.376C1.45438 114.369 1.38731 114.362 1.37142 114.382C1.23904 114.567 1.17727 114.543 1.0696 114.343C1.00077 114.215 0.83662 114.301 0.751899 114.397C0.709538 114.445 0.683063 114.476 0.623052 114.452C0.547157 114.42 0.591282 114.368 0.596577 114.317C0.608932 114.219 0.538332 114.142 0.467731 114.124C0.0353011 114.008 0.0353011 113.623 0.0158859 113.319C-0.0211795 112.692 0.0158859 112.059 0.0335361 111.428C0.0388311 111.277 0.0776616 111.123 0.125317 110.978C0.284169 110.501 0.261224 109.989 0.40419 109.511C0.533036 109.078 0.638938 108.629 0.834855 108.224C1.05372 107.77 1.24081 107.304 1.4332 106.841C1.63264 106.359 1.92034 105.928 2.15156 105.467C2.78697 104.201 3.6783 103.1 4.49727 101.956C4.83615 101.482 5.26329 101.069 5.69395 100.667C5.87575 100.497 6.02931 100.294 6.1811 100.094C6.6453 99.4825 7.2101 98.9514 7.61429 98.2888C7.76608 98.0416 7.98671 97.8348 8.1738 97.6087C8.8551 96.7813 9.284 95.8032 9.82586 94.8935C9.98118 94.6323 10.0624 94.3274 10.1647 94.0381C10.4101 93.3563 10.666 92.6797 10.8602 91.9803C11.1443 90.9601 11.3561 89.9295 11.5203 88.8865C11.6544 88.0311 11.6685 87.1652 11.6809 86.3011C11.6844 86.0381 11.725 85.777 11.755 85.5193C11.8009 85.1161 11.7639 84.7147 11.7639 84.3168C11.7639 84.0031 11.8133 83.677 11.7691 83.3791C11.718 83.0355 11.8592 82.6727 11.6491 82.3431C11.5979 82.2625 11.6456 82.1258 11.635 82.0153C11.5732 81.3107 11.5079 80.606 11.3985 79.9049C11.335 79.4983 11.2785 79.0811 11.2608 78.6621C11.2432 78.2765 11.1655 77.8874 11.0843 77.514C10.9925 77.1004 10.9837 76.6902 10.9643 76.28C10.9431 75.8138 10.9096 75.3528 10.8584 74.8883C10.7843 74.2152 10.7031 73.5351 10.8125 72.862C10.8566 72.5955 10.816 72.4606 10.5972 72.273C9.94235 71.7121 9.37049 71.0706 8.85334 70.3764C8.62035 70.0644 8.47386 69.7139 8.29559 69.3808C8.11379 69.0408 7.92847 68.6972 7.79786 68.3274C7.64253 67.8874 7.55428 67.4439 7.55605 66.9794C7.55605 66.6061 7.59488 66.2309 7.56134 65.8576C7.53663 65.5771 7.58605 65.3072 7.68313 65.0355C7.76609 64.8024 7.80492 64.5482 7.82786 64.2993C7.84728 64.0995 7.88611 63.9067 7.99024 63.7419C8.09791 63.5736 7.95141 63.3878 8.09791 63.195C8.23028 63.0197 8.15439 62.72 8.22322 62.4728C8.44385 61.6806 8.6786 60.8918 8.79156 60.0697C8.84098 59.7086 9.00513 59.3545 9.02631 58.9812C9.06337 58.3133 9.38108 57.7121 9.46227 57.0583C9.52051 56.5938 9.70055 56.1889 9.9247 55.791C9.97412 55.7033 10.0094 55.6104 10.1171 55.5859C10.3183 55.5403 10.4224 55.4579 10.3095 55.2336C10.2671 55.1494 10.3624 55.0828 10.426 55.032C10.5672 54.9181 10.7031 54.7866 10.8655 54.7095C11.0843 54.6043 11.2944 54.5026 11.4197 54.2818C11.432 54.259 11.4585 54.2309 11.4815 54.2274C11.7462 54.1924 11.8468 53.9768 11.9933 53.798C12.131 53.628 12.3039 53.486 12.4893 53.3563C13.0117 52.9917 13.3788 52.4728 13.8113 52.0171C14.069 51.7454 14.1943 51.3528 14.6108 51.2213C14.7503 51.1775 14.8579 50.9882 14.9391 50.8725C15.1809 50.5237 15.5269 50.3063 15.8216 50.0276C16.4076 49.4737 17.0077 48.9338 17.5249 48.3133C17.9044 47.8576 18.3721 47.4983 18.808 47.1021C19.2105 46.7375 19.6076 46.3624 20.0188 46.0066C20.2059 45.8453 20.4001 45.6893 20.5978 45.5421C20.8343 45.365 21.0655 45.1898 21.2579 44.9636C21.5191 44.6551 21.8809 44.4571 22.1616 44.1643C22.564 43.7437 23.0088 43.3633 23.4395 42.9689C23.593 42.8287 23.7625 42.7007 23.9266 42.5745C24.3979 42.2082 24.8338 41.7997 25.3033 41.4299C25.7234 41.0986 26.1011 40.7007 26.4965 40.3274C26.5353 40.2905 26.56 40.2029 26.5953 40.1994C27.0348 40.1749 27.1531 39.7384 27.4566 39.5368C27.769 39.33 28.0356 39.053 28.318 38.8024C28.4133 38.7182 28.5104 38.6324 28.5827 38.5324C28.791 38.2432 29.0646 38.082 29.414 37.9908C29.7512 37.9032 30.0865 37.798 30.3601 37.5421C30.5278 37.3861 30.7572 37.2774 30.9796 37.202C31.4403 37.046 31.8462 36.7726 32.3281 36.6569C32.6493 36.5798 32.9476 36.4255 33.2989 36.4834C33.3783 36.4956 33.4754 36.4097 33.5618 36.3642C33.8407 36.2134 34.1214 36.2012 34.4055 36.3414C34.4673 36.3712 34.5361 36.4518 34.5926 36.4132C34.8221 36.2572 34.9809 36.3396 35.1239 36.5342C35.1698 36.5955 35.2492 36.592 35.318 36.599C35.9393 36.6657 36.4371 36.9899 36.9489 37.3125C37.3019 37.5351 37.6549 37.7664 38.0273 37.9593C38.4298 38.1661 38.7881 38.4308 39.1517 38.6955C39.9583 39.2827 40.6519 39.9926 41.3897 40.6534C41.5662 40.8129 41.748 40.9671 41.9174 41.1354C42.0639 41.2827 42.1645 41.2178 42.2581 41.0846C42.6376 40.5465 42.9853 39.9891 43.4018 39.4772C43.536 39.3125 43.6295 39.1302 43.6472 38.8935C43.6754 38.5395 43.8501 38.2134 43.9243 37.8593C43.979 37.5982 43.9755 37.344 44.009 37.0916C44.0496 36.7726 44.0972 36.4483 44.0708 36.1363C44.009 35.4054 44.1714 34.6657 43.9825 33.9417C43.9349 33.7559 43.9454 33.5666 43.9013 33.3773C43.8307 33.0811 43.716 32.8304 43.5342 32.6008C43.4053 32.4378 43.596 32.1731 43.3542 32.0487C43.2783 31.2827 42.7947 30.6411 42.6958 29.8821C42.6852 29.7945 42.6287 29.7331 42.5564 29.6806C42.4611 29.6122 42.4116 29.5035 42.3799 29.4001C42.0163 28.2082 41.372 27.1372 40.8814 25.9996C40.7843 25.7717 40.7402 25.5105 40.5037 25.3633C40.4048 24.9216 40.1383 24.55 39.983 24.1328C39.7835 23.5999 39.5911 23.0636 39.4129 22.5237C39.2276 21.961 39.0581 21.3931 38.8922 20.8252C38.8622 20.72 38.8728 20.6026 38.871 20.4921C38.871 20.4238 38.9063 20.3431 38.8816 20.287C38.5974 19.6262 38.6857 18.9093 38.5621 18.2257C38.4633 17.6841 38.488 17.1302 38.3962 16.585C38.3345 16.2204 38.398 15.8348 38.3574 15.465C38.285 14.8164 38.2533 14.1626 38.3044 13.5175C38.3592 12.8532 38.3856 12.1871 38.4774 11.5228C38.571 10.8374 38.7492 10.1643 38.7828 9.47022C38.7916 9.26689 38.8145 9.06005 38.8957 8.86023C38.9752 8.66566 38.9981 8.46058 38.9646 8.24498C38.9346 8.03989 38.9557 7.83481 39.0493 7.63148C39.1199 7.47548 39.2011 7.29318 39.1128 7.10562C39.0705 7.01448 39.134 6.94612 39.1587 6.86899C39.2787 6.48336 39.3229 6.08547 39.397 5.69108C39.4747 5.27214 39.4711 4.82867 39.6829 4.43954C39.7588 4.29931 39.75 4.13981 39.7729 3.99782C39.8788 3.36329 40.2283 2.80238 40.3007 2.16084C40.3342 1.86811 40.576 1.68407 40.7225 1.45269C40.8443 1.25988 40.9749 1.06531 41.1144 0.883014C41.4568 0.434284 41.9227 0.17311 42.4522 0.0223651C42.7876 -0.0740415 43.2059 0.153829 43.3559 0.464083C43.3912 0.53595 43.3718 0.637615 43.4971 0.695459C43.7319 0.45006 44.0408 0.436037 44.3585 0.532444C44.5579 0.592041 44.6991 0.725257 44.7415 0.939105C44.7644 1.19327 44.8756 1.44392 44.7556 1.70685C44.715 1.79625 44.7803 1.89265 44.8068 1.98556C44.8756 2.23095 44.925 2.24848 45.1298 2.11702C45.2269 2.05392 45.248 1.97153 45.2604 1.87337L45.2533 1.86461ZM36.9207 79.0232C37.3037 79.1109 37.6779 78.9373 37.9797 78.7585C38.3927 78.5114 38.8516 78.3571 39.2523 78.0749C39.5082 77.8944 39.7818 77.7349 40.013 77.5175C40.1259 77.4106 40.2336 77.2949 40.3766 77.2318C40.6396 77.1144 40.8514 76.9286 41.0438 76.7253C41.5027 76.2397 42.0728 75.8909 42.6023 75.4983C43.0029 75.202 43.3242 74.7848 43.8325 74.6376C43.866 74.6288 43.8837 74.5745 43.9137 74.5447C44.2967 74.1573 44.7044 73.791 45.1721 73.5123C46.0123 73.011 46.7412 72.3659 47.5196 71.7857C48.3033 71.202 48.9281 70.4413 49.7276 69.8734C50.1866 69.5456 50.626 69.1845 51.0373 68.7971C51.3832 68.4693 51.7874 68.2222 52.1316 67.8909C52.4317 67.6017 52.7105 67.2791 53.0459 67.0338C53.5789 66.6464 54.0237 66.1661 54.5126 65.7349C54.6785 65.5894 54.8603 65.4404 54.8956 65.1985C54.9062 65.1161 54.9556 65.0548 55.028 65.0741C55.1886 65.1161 55.1939 64.9794 55.2698 64.911C55.6846 64.5307 56.0217 64.082 56.4206 63.6858C56.793 63.3142 57.1337 62.9075 57.3208 62.3957C57.6032 61.628 57.9138 60.8672 58.025 60.0504C58.0621 59.7735 58.1733 59.4772 58.0338 59.2055C57.8979 58.9408 57.7567 58.6639 57.5555 58.4483C57.1937 58.0609 56.8813 57.6315 56.4965 57.2634C56.3482 57.1214 56.1912 56.9742 56.0729 56.8094C55.7923 56.4203 55.464 56.0784 55.1057 55.7682C54.7509 55.4614 54.4826 55.0793 54.1014 54.7883C53.5383 54.3607 53.1059 53.7822 52.564 53.3177C52.294 53.0863 52.0434 52.8146 51.8033 52.5394C51.2738 51.933 50.6349 51.4352 50.0807 50.8532C49.657 50.4097 49.2476 49.9522 48.8134 49.5193C48.275 48.9812 47.7155 48.4641 47.1666 47.933C46.6442 47.4281 46.0741 46.9724 45.5728 46.4448C45.2939 46.1503 45.0662 45.812 44.7503 45.5473C44.279 45.1512 43.8537 44.7042 43.4212 44.273C42.957 43.8103 42.514 43.3195 42.0516 42.8532C41.9227 42.7217 41.7974 42.5973 41.5874 42.6026C41.4532 42.6061 41.3262 42.5272 41.3014 42.394C41.2591 42.1591 41.0879 42.0241 40.9608 41.8471C40.7914 41.6139 40.5407 41.4755 40.3748 41.2581C40.1154 40.9181 39.7765 40.6692 39.4482 40.4132C38.7333 39.8576 37.9867 39.344 37.2701 38.7901C37.0989 38.6586 36.8977 38.6236 36.7195 38.5167C36.0488 38.1188 35.3745 37.7033 34.5644 37.628C34.3314 37.6069 34.0755 37.5018 33.8742 37.5386C33.4648 37.6139 33.0482 37.6946 32.6493 37.8173C31.8498 38.0627 31.1349 38.4991 30.4077 38.9023C30.1042 39.0706 29.8147 39.2564 29.6364 39.5771C29.5835 39.6735 29.4635 39.8278 29.3399 39.7366C28.9904 39.4772 28.7575 39.7489 28.5863 39.933C28.002 40.5587 27.3896 41.1459 26.6765 41.6245C26.5459 41.7121 26.4223 41.798 26.3394 41.9347C26.1805 42.1941 25.9228 42.3484 25.6899 42.5254C25.6157 42.5833 25.5416 42.6446 25.4657 42.6972C24.9627 43.046 24.6044 43.5491 24.1013 43.9049C23.6283 44.2397 23.2453 44.6937 22.7917 45.0635C22.4052 45.3791 22.0363 45.7209 21.6674 46.0592C21.415 46.2905 21.1767 46.543 20.9243 46.7743C20.5166 47.1494 19.9924 47.3756 19.6358 47.819C19.5299 47.9505 19.4946 48.1959 19.2864 48.2047C19.1116 48.2117 19.0357 48.3274 18.9404 48.4132C18.6598 48.6639 18.388 48.9233 18.1303 49.195C17.5972 49.7577 17.0642 50.3186 16.4818 50.8374C15.894 51.3615 15.3433 51.9312 14.8209 52.5184C14.3002 53.1039 13.7301 53.642 13.1847 54.2029C12.9129 54.4816 12.6022 54.755 12.2704 54.9917C11.8856 55.2669 11.492 55.5614 11.372 56.0714C11.3367 56.2204 11.2149 56.3186 11.0967 56.4255C10.8196 56.6814 10.5972 57.0092 10.6078 57.3931C10.6166 57.677 10.7366 57.9663 10.8107 58.2485C11.0014 58.9742 11.5538 59.4527 11.9474 60.0276C12.251 60.4728 12.6817 60.8602 13.1159 61.2143C13.7089 61.6998 14.3337 62.1486 14.8862 62.6814C15.0574 62.8462 15.2745 62.9444 15.4404 63.1231C15.8375 63.5508 16.2805 63.933 16.6477 64.3957C16.9654 64.7971 17.3501 65.1494 17.7279 65.4983C17.8849 65.6437 17.9555 65.8453 18.1303 65.975C18.455 66.2152 18.7586 66.4869 19.0799 66.7288C19.9977 67.4211 20.7866 68.2607 21.7327 68.9268C22.2869 69.316 22.8288 69.7384 23.3636 70.1626C24.0096 70.6762 24.6608 71.1827 25.291 71.7156C25.7799 72.1293 26.2352 72.5868 26.7471 72.9671C27.349 73.4141 27.9455 73.8664 28.528 74.3379C28.9604 74.6902 29.4105 75.0215 29.8535 75.358C30.5295 75.8716 31.1032 76.5114 31.8039 77.0092C32.1781 77.2756 32.5575 77.5438 32.9317 77.812C33.5318 78.2415 34.2255 78.5167 34.9086 78.7989C35.0603 78.862 35.1962 78.9496 35.3692 78.9864C35.8811 79.0951 36.3876 79.0916 36.9189 79.0302L36.9207 79.0232ZM57.9138 63.8208C57.4602 64.0627 57.2449 64.4974 56.9007 64.7954C56.4718 65.1652 56.2265 65.6823 55.8081 66.0644C55.6316 66.2257 55.5028 66.4553 55.3351 66.6446C55.1639 66.8374 54.9627 66.9654 54.7597 67.1126C54.4014 67.372 54.0343 67.6297 53.7078 67.9347C53.5436 68.0872 53.4112 68.273 53.24 68.415C52.6646 68.8988 52.1422 69.4527 51.4574 69.7997C51.4327 69.812 51.4185 69.8418 51.3956 69.8558C50.9173 70.131 50.6278 70.6078 50.2024 70.9444C49.56 71.4544 48.9687 72.0294 48.3439 72.5622C47.9644 72.8865 47.5708 73.1985 47.1613 73.4842C46.7995 73.7349 46.3865 73.9154 46.0882 74.252C46.0282 74.3203 45.947 74.3361 45.8817 74.3817C45.511 74.6323 45.1227 74.8672 44.7944 75.1652C44.5103 75.4229 44.2314 75.6718 43.9154 75.8961C43.1724 76.4202 42.4664 76.9952 41.7815 77.5947C41.5309 77.8155 41.2979 78.0627 41.0226 78.2485C40.696 78.4693 40.3342 78.6358 40.0906 78.9619C40.0606 79.0022 39.9971 79.025 39.9441 79.0373C39.4888 79.1407 39.2117 79.6034 38.721 79.6332C38.4933 79.8926 38.1509 79.9207 37.8579 80.0434C37.6037 80.1486 37.3302 80.2327 37.0566 80.2643C36.7 80.3046 36.3382 80.2695 35.9764 80.2783C35.4469 80.2923 34.928 80.1521 34.4267 79.9733C33.8584 79.7699 33.3465 79.4632 32.8258 79.1652C32.667 79.0741 32.584 78.8742 32.3863 78.855C31.9363 78.8111 31.765 78.2888 31.315 78.245C31.285 78.2415 31.2603 78.1538 31.2391 78.103C31.2038 78.0241 31.1544 77.9628 31.0785 77.9154C30.4254 77.5053 29.9277 76.9093 29.3099 76.4518C28.821 76.0907 28.355 75.6911 27.8697 75.3265C27.2872 74.8883 26.8018 74.3379 26.1576 73.9698C25.8416 73.7892 25.5645 73.5158 25.3015 73.2423C24.9274 72.8515 24.4349 72.5903 24.0413 72.2134C23.8119 71.9926 23.4942 71.8558 23.2841 71.621C22.8676 71.1547 22.3275 70.8497 21.8421 70.4781C21.3726 70.117 20.9243 69.7244 20.4336 69.3948C20.0594 69.1442 19.8053 68.727 19.3375 68.6096C19.2952 68.599 19.2669 68.571 19.2599 68.5237C19.2175 68.2415 18.9722 68.1223 18.7851 67.9628C18.3809 67.6157 17.9644 67.2827 17.5531 66.9426C16.6318 66.1819 15.8816 65.2529 15.0521 64.4027C14.7414 64.0837 14.4343 63.7647 14.0796 63.4895C13.6842 63.1827 13.2818 62.8795 12.9164 62.543C12.454 62.117 11.9457 61.7419 11.5115 61.2897C11.2255 60.9899 10.9219 60.706 10.7031 60.3396C10.5195 60.0311 10.3007 59.7331 10.0235 59.4702C9.89646 59.6788 9.96 59.8856 9.89823 60.0732C9.70761 60.6551 9.67584 61.2721 9.51875 61.8646C9.36519 62.4465 9.29636 63.0513 9.16574 63.6402C9.0369 64.2204 8.83392 64.7831 8.8251 65.3913C8.81804 65.8751 8.69272 66.3466 8.73861 66.8479C8.80392 67.5859 9.08102 68.245 9.38637 68.89C9.65995 69.465 10.0271 70.0031 10.4542 70.4816C10.6731 70.7253 10.8513 71.0215 11.1779 71.202C11.2308 71.0092 11.2008 70.8234 11.3367 70.6762C11.4091 70.5973 11.3914 70.4501 11.3508 70.3519C11.2891 70.2011 11.312 70.0539 11.2961 69.9049C11.2785 69.7454 11.2997 69.5806 11.2167 69.4176C11.0931 69.1757 11.0702 68.9163 11.1143 68.6306C11.1655 68.2975 11.2449 68.0031 11.4603 67.7349C11.7974 67.3177 12.0445 66.8427 12.5616 66.5727C13.0276 66.3291 13.4724 66.0504 13.9684 65.8628C14.4043 65.6981 14.8473 65.777 15.2745 65.8663C15.4651 65.9049 15.6275 66.0048 15.8305 65.9067C15.8852 65.8804 16.0193 65.8628 16.007 65.9996C15.984 66.2432 16.1764 66.3046 16.33 66.3361C16.5223 66.3747 16.6706 66.4763 16.8047 66.5868C16.9848 66.7358 17.1295 66.9286 17.2919 67.1021C17.4331 67.2529 17.509 67.493 17.6449 67.5876C17.9008 67.7647 17.9467 68.0031 18.035 68.2485C18.1179 68.4781 18.1391 68.7305 18.2944 68.9373C18.3403 68.9987 18.358 69.0986 18.3491 69.1775C18.2944 69.7226 18.2044 70.266 18.0544 70.7936C17.9873 71.0285 17.8708 71.2669 17.7173 71.4544C17.3625 71.8891 16.9318 72.238 16.3882 72.4255C16.2258 72.4816 16.127 72.578 16.1111 72.7533C16.0528 73.4176 15.9064 74.0732 15.9258 74.7445C15.9293 74.8848 15.9346 75.018 15.9046 75.1582C15.7899 75.6893 15.9187 76.11 16.3882 76.4658C16.7995 76.7761 17.2036 77.1021 17.5955 77.4404C17.9132 77.7139 18.2079 78.0171 18.5504 78.2537C18.8063 78.4325 18.9528 78.7323 19.2493 78.8427C19.394 78.897 19.4858 78.9829 19.567 79.0951C19.6517 79.2108 19.7541 79.2984 19.8706 79.3826C20.1653 79.5947 20.4901 79.7805 20.7354 80.0399C21.1608 80.4921 21.6462 80.8672 22.1316 81.2406C22.6752 81.6595 23.3318 81.9417 23.7201 82.5465C24.2037 82.8217 24.5744 83.2406 25.0209 83.5631C25.1339 83.6455 25.3051 83.6455 25.3827 83.7699C25.6581 84.2117 26.1417 84.4185 26.5194 84.7393C26.7895 84.9689 27.1301 85.1652 27.3631 85.4176C27.9773 86.0802 28.7557 86.5219 29.4493 87.0741C30.1059 87.5964 30.8843 87.9347 31.5691 88.4202C31.6256 88.4606 31.6997 88.5061 31.7598 88.4991C32.0174 88.4711 32.201 88.6148 32.404 88.7323C32.5964 88.8427 32.8135 88.904 33.0429 88.8935C33.17 88.8865 33.3059 88.8655 33.4206 88.9005C33.8372 89.0267 34.2272 88.9303 34.6156 88.8006C34.7109 88.7691 34.8044 88.755 34.9033 88.7445C35.4681 88.6797 35.994 88.4956 36.49 88.2222C36.6383 88.1415 36.7759 88.0329 36.933 87.9803C37.3584 87.8348 37.7467 87.6209 38.1138 87.3738C38.3256 87.2318 38.5445 87.1161 38.7686 87.0039C39.0069 86.8848 39.277 86.8076 39.4994 86.585C39.1975 86.4606 39.0493 86.2082 38.8181 86.0451C38.0009 85.4649 37.5384 84.6481 37.3655 83.6858C37.2507 83.053 37.3655 82.4027 37.5614 81.8033C37.6973 81.3861 37.9514 80.9777 38.2815 80.6569C38.4315 80.5114 38.5533 80.2695 38.6998 80.2169C39.0634 80.089 39.3423 79.8348 39.6812 79.6841C40.5972 79.2774 41.5662 79.0583 42.5493 78.8953C42.6587 78.8777 42.7664 78.8883 42.8794 78.9216C43.5854 79.1214 44.1926 79.4387 44.6197 80.0732C45.1033 80.7936 45.4687 81.5333 45.3645 82.4325C45.3398 82.6464 45.301 82.8742 45.4616 83.1004C46.6689 82.4255 47.7226 81.5368 48.8646 80.7848C48.801 80.6446 48.7057 80.6131 48.6263 80.5552C48.4109 80.3992 48.1232 80.3396 47.9591 80.1258C47.5867 79.642 47.3096 79.1144 47.2143 78.4974C47.1384 78.0118 47.2372 77.5158 47.1119 77.0373C47.0342 76.7445 47.2213 76.4991 47.2231 76.2257C47.2248 75.9768 47.2796 75.7594 47.3784 75.5175C47.5761 75.0285 47.8108 74.5745 48.125 74.1538C48.4745 73.6876 48.951 73.3738 49.4417 73.0793C50.0365 72.7235 50.7019 72.8637 51.3391 72.8252C51.9445 72.7884 52.4211 73.1582 52.9382 73.3931C53.0812 73.4579 53.1977 73.5561 53.3089 73.6665C53.5842 73.9435 53.8896 74.1854 54.0396 74.571C54.1331 74.8129 54.3502 74.8287 54.4791 74.6446C54.9044 74.0416 55.3263 73.4387 55.7464 72.8322C55.8011 72.7533 55.8629 72.6604 55.8682 72.571C55.8823 72.3642 55.9741 72.1854 56.0747 72.0276C56.2953 71.6805 56.3518 71.2739 56.5036 70.904C56.5724 70.7358 56.7365 70.5973 56.733 70.436C56.7259 70.0171 56.9483 69.6718 57.0472 69.2897C57.289 68.3642 57.4531 67.4264 57.6138 66.4869C57.7214 65.8506 57.7832 65.209 57.9173 64.5763C57.965 64.3484 58.0427 64.0925 57.9067 63.8313L57.9138 63.8208ZM42.8829 42.0907C42.9694 42.2257 43.0806 42.3501 43.213 42.4553C43.9278 43.0267 44.4997 43.7454 45.1651 44.3677C45.4404 44.6253 45.7069 44.6131 45.9099 44.273C46.0388 44.0557 46.1923 43.8576 46.3335 43.6508C46.4783 43.4404 46.6318 43.2318 46.7659 43.0127C46.8666 42.8462 46.9495 42.6727 47.0872 42.5254C47.216 42.3887 47.1313 42.1643 47.3025 42.0013C47.4296 41.8786 47.3943 41.6034 47.4949 41.4352C47.7861 40.9514 47.8373 40.3817 48.1021 39.8856C48.3015 39.514 48.335 39.0671 48.5257 38.6762C48.6898 38.3396 48.7887 37.9891 48.824 37.6017C48.8593 37.2178 49.1028 36.8795 49.147 36.4623C49.1946 36.0259 49.2599 35.5754 49.2599 35.1442C49.2599 34.7463 49.3605 34.3536 49.304 33.9505C49.2776 33.7682 49.1275 33.5824 49.1805 33.4422C49.2846 33.1722 49.1487 32.9356 49.147 32.6867C49.1452 32.1854 49.0075 31.6841 48.9299 31.1827C48.9069 31.032 48.9299 30.8795 48.8557 30.7323C48.6051 30.2204 48.6104 29.621 48.3068 29.1249C48.2874 29.0916 48.2962 29.0425 48.2874 29.0022C48.1621 28.3834 47.8903 27.8068 47.6079 27.2581C47.4278 26.9093 47.3837 26.5026 47.1066 26.1819C46.9866 26.0434 46.9548 25.7717 46.8401 25.5824C46.3706 24.8041 46.0917 23.9435 45.7264 23.1196C45.5975 22.8287 45.4651 22.543 45.3751 22.231C45.181 21.5544 44.978 20.8813 44.8809 20.1836C44.8491 19.9558 44.7062 19.7822 44.662 19.5579C44.5703 19.0951 44.5208 18.6253 44.4291 18.1661C44.3143 17.5947 44.2049 17.025 44.1149 16.4501C43.9896 15.6543 43.9313 14.8567 43.9384 14.0522C43.9419 13.7226 43.8837 13.3896 43.9684 13.0636C44.0302 12.8287 44.0355 12.6026 43.9807 12.3624C43.9278 12.1345 43.9243 11.8891 43.979 11.6595C44.0743 11.2511 44.0919 10.8339 44.1449 10.4203C44.1961 10.0311 44.1996 9.61395 44.3867 9.28441C44.5614 8.97591 44.5773 8.69195 44.5614 8.37469C44.5579 8.30983 44.5773 8.22044 44.6214 8.18012C44.918 7.91544 44.7379 7.46671 45.0186 7.20028C44.9286 6.7831 45.1968 6.46583 45.3398 6.12052C45.5587 5.59116 45.631 5.00922 45.9452 4.51316C45.9911 4.4413 46.0052 4.33087 45.9699 4.2292C45.9258 4.1065 45.9435 3.97679 45.9805 3.85584C46.0476 3.63674 45.9434 3.44743 45.8834 3.25111C45.8411 3.11088 45.7528 3.10738 45.6222 3.17574C45.2074 3.3966 44.9003 3.69809 44.805 4.17311C44.7432 4.47285 44.602 4.71299 44.3249 4.8725C43.9878 5.06706 43.7213 4.97591 43.6101 4.61307C43.5236 4.32736 43.5095 4.03463 43.5607 3.74366C43.633 3.32298 43.7054 2.90405 43.6913 2.46759C43.5713 2.5377 43.4459 2.6271 43.4336 2.73928C43.4001 3.05129 43.1371 3.21956 43.01 3.47197C42.867 3.75593 42.5528 3.78398 42.3057 3.58065C42.1063 3.41588 42.0339 2.86724 42.1469 2.59379C42.2651 2.30633 42.3534 2.00834 42.4505 1.71386C42.4628 1.6753 42.4593 1.62973 42.4505 1.58941C42.4364 1.51579 42.3958 1.4597 42.3163 1.44568C42.2599 1.43691 42.2122 1.44568 42.1716 1.50177C41.8627 1.91369 41.5291 2.32736 41.365 2.80939C41.2556 3.13016 41.1426 3.45619 41.042 3.78222C40.9379 4.11702 40.9926 4.49914 40.7472 4.79537C40.7261 4.82166 40.7313 4.87775 40.7402 4.91807C40.8037 5.21605 40.696 5.50352 40.6096 5.76294C40.4348 6.28179 40.4172 6.82692 40.3254 7.35102C40.223 7.93472 40.1101 8.52718 40.013 9.11439C39.8771 9.94524 39.7924 10.7796 39.667 11.6104C39.5594 12.3239 39.547 13.0513 39.4694 13.7717C39.4411 14.0381 39.5152 14.2941 39.5011 14.55C39.487 14.8041 39.5011 15.0478 39.5276 15.2984C39.5911 15.8523 39.57 16.4097 39.6159 16.9671C39.6423 17.2809 39.6635 17.5982 39.6776 17.9119C39.6988 18.3852 39.75 18.8585 39.8471 19.309C39.96 19.8331 39.9406 20.3817 40.1224 20.8813C40.2742 21.3019 40.3766 21.7349 40.4878 22.1626C40.7225 23.0618 41.0949 23.9067 41.538 24.7112C41.8539 25.2844 42.0869 25.8927 42.3993 26.4658C42.6023 26.8374 42.7629 27.2388 42.9464 27.621C43.303 28.3624 43.5448 29.1477 43.896 29.8874C44.1784 30.4816 44.2526 31.1389 44.4926 31.7419C44.6056 32.0259 44.6162 32.3519 44.8121 32.599C44.9127 32.7253 44.9568 32.8392 44.9745 33.004C45.0609 33.7717 45.1845 34.5307 45.1721 35.3125C45.1651 35.7121 45.1315 36.1153 45.1598 36.5167C45.1986 37.0916 45.1192 37.6595 44.9745 38.2099C44.9127 38.443 44.955 38.6832 44.895 38.8883C44.7591 39.358 44.6126 39.8383 44.2808 40.2257C44.1978 40.3221 44.1378 40.4255 44.0778 40.5377C43.8113 41.0302 43.4901 41.486 43.07 41.8646C42.9976 41.9295 42.9164 41.9891 42.8776 42.0995L42.8829 42.0907ZM14.7803 74.7919C14.7944 74.1854 14.8138 73.5754 14.9568 72.9864C15.0397 72.6446 14.9215 72.287 15.0839 71.9452C15.278 71.5351 15.248 71.039 15.5092 70.6534C15.7881 70.2415 15.9081 69.7787 16.0317 69.3125C16.0458 69.2581 16.0882 69.2038 16.044 69.16C15.7934 68.9216 15.7334 68.5377 15.3839 68.3677C14.9515 68.1556 14.3708 68.1065 14.1166 68.3817C13.8483 68.6727 13.5501 68.9408 13.3577 69.3054C13.2376 69.5333 13.1388 69.8015 12.9199 69.954C12.7893 70.0451 12.7505 70.1573 12.6887 70.28C12.6287 70.3975 12.6693 70.5429 12.5846 70.6358C12.2969 70.9549 12.2881 71.3808 12.1575 71.7559C12.078 71.9838 12.1098 72.2818 12.0939 72.5237C12.0763 72.8006 12.0427 73.0811 12.0427 73.358C12.0286 73.5806 12.0074 73.805 12.0057 74.0276C12.0057 74.2327 12.071 74.4395 12.0198 74.6429C11.9245 75.0145 12.041 75.372 12.078 75.7244C12.1292 76.1906 12.1345 76.6621 12.2157 77.1284C12.2722 77.4509 12.3022 77.784 12.341 78.1135C12.4257 78.8427 12.5334 79.5684 12.6269 80.2958C12.6517 80.4886 12.6358 80.6884 12.6693 80.8812C12.867 82.0241 12.9146 83.1792 12.8829 84.3326C12.8493 85.5228 12.8458 86.7165 12.6746 87.8997C12.6693 87.94 12.664 87.9803 12.6711 88.0206C12.7434 88.5272 12.6058 89.0162 12.5122 89.5C12.3922 90.1258 12.3092 90.7603 12.1169 91.372C11.9351 91.954 11.8009 92.5517 11.6315 93.1372C11.5697 93.3493 11.4179 93.528 11.3579 93.7472C11.1161 94.6148 10.7313 95.4264 10.2759 96.1941C9.75173 97.0793 9.20281 97.9505 8.55152 98.7568C7.82433 99.6578 7.05478 100.52 6.317 101.411C6.18992 101.565 6.02578 101.672 5.89869 101.823C5.31977 102.508 4.78497 103.227 4.25899 103.95C3.5018 104.992 2.91052 106.129 2.33159 107.274C1.83739 108.25 1.59205 109.304 1.29376 110.343C1.20374 110.657 1.20374 110.976 1.15962 111.293C1.08902 111.8 0.972526 112.306 1.08902 112.827C1.14197 113.064 1.22669 113.19 1.40319 113.186C1.5744 113.183 1.86033 112.979 1.85857 112.822C1.85327 112.485 2.00153 112.166 1.95917 111.826C1.94152 111.677 1.99094 111.525 2.00859 111.377C2.04742 111.05 2.21157 110.729 2.12508 110.396C2.05978 110.149 2.19039 110.092 2.37748 110.073C2.51692 110.057 2.65988 110.052 2.79932 110.066C3.01642 110.089 3.26705 110.303 3.2547 110.496C3.22646 110.878 3.35707 111.248 3.33412 111.617C3.30235 112.117 3.36766 112.611 3.36766 113.107C3.36766 113.339 3.45414 113.616 3.67301 113.796C3.82656 113.684 3.88657 113.537 3.90952 113.388C3.97659 112.937 4.06837 112.48 3.98894 112.028C3.93952 111.747 3.98188 111.481 3.996 111.207C4.01189 110.894 4.09484 110.781 4.34901 110.713C4.6826 110.622 4.8591 110.72 5.06737 110.951C5.26858 111.172 5.17504 111.418 5.14327 111.612C5.06031 112.128 5.10973 112.604 5.33565 113.099C5.40625 112.808 5.54746 112.539 5.47862 112.266C5.31094 111.595 5.59158 110.923 5.44861 110.255C5.43273 110.184 5.47332 110.084 5.51922 110.019C5.72396 109.731 5.74514 109.376 5.77691 109.065C5.84574 108.399 5.98871 107.749 6.15462 107.113C6.46703 105.905 6.84651 104.713 7.55252 103.654C7.88434 103.156 8.13674 102.608 8.53034 102.145C8.92747 101.677 9.25576 101.158 9.68113 100.708C9.9247 100.45 10.2159 100.262 10.4683 100.022C11.2185 99.3089 11.815 98.4518 12.604 97.7752C12.7011 97.6928 12.7258 97.5578 12.784 97.4474C13.0153 97.0057 13.2235 96.5482 13.5059 96.1415C13.7107 95.8471 13.8942 95.5368 14.0725 95.2336C14.3867 94.6972 14.6144 94.1082 14.8491 93.5298C15.0415 93.053 15.1703 92.5517 15.368 92.0784C15.5657 91.6052 15.5445 91.0811 15.7616 90.6113C15.834 90.4571 15.864 90.2642 15.841 90.0767C15.8322 89.9961 15.841 89.9032 15.8711 89.8278C16.1058 89.2406 15.9734 88.6306 15.9911 88.0294C15.9999 87.7331 15.8905 87.4492 15.8869 87.1582C15.8781 86.571 15.6222 86.0171 15.661 85.4246C15.661 85.3983 15.654 85.3668 15.6398 85.344C15.4351 85.0022 15.6222 84.5675 15.3733 84.2362C15.4863 83.8611 15.3468 83.4912 15.3574 83.1214C15.3698 82.6323 15.2815 82.1538 15.2815 81.6648C15.2815 80.6411 15.0574 79.6297 15.0062 78.6008C14.9709 77.9032 14.9179 77.1915 14.7538 76.4991C14.662 76.117 14.7644 75.6893 14.7767 75.2984C14.782 75.1302 14.7856 74.9619 14.7891 74.7936L14.7803 74.7919ZM42.4575 86.4062C42.5546 86.5394 42.6446 86.6762 42.7099 86.8164C42.9976 87.4352 43.1318 88.1082 43.2747 88.7691C43.3348 89.0478 43.4565 89.337 43.4371 89.6139C43.4001 90.1188 43.4795 90.6271 43.3842 91.1301C43.3436 91.3493 43.2677 91.5719 43.2765 91.7892C43.2977 92.252 43.2412 92.7112 43.19 93.1652C43.1494 93.521 43.1247 93.8821 43.0594 94.238C42.9482 94.8549 42.6693 95.4229 42.5723 96.0469C42.5158 96.4097 42.3393 96.7656 42.1628 97.0951C41.9722 97.4527 41.7886 97.8085 41.6509 98.1906C41.5662 98.4255 41.4991 98.6709 41.3579 98.8848C40.9732 99.4685 40.5672 100.04 40.2142 100.641C39.5311 101.807 38.6857 102.864 37.9832 104.017C37.4908 104.827 36.9789 105.624 36.3876 106.369C36.2747 106.511 36.2411 106.694 36.1282 106.844C35.6728 107.458 35.1521 108.028 34.7974 108.713C34.4691 109.346 33.996 109.887 33.6624 110.518C33.5583 110.716 33.4595 110.918 33.3324 111.1C32.7782 111.896 32.321 112.752 31.9486 113.635C31.4844 114.734 31.0643 115.856 30.7978 117.025C30.6584 117.635 30.5189 118.257 30.5172 118.876C30.5154 119.707 30.3707 120.517 30.2966 121.335C30.1907 122.497 30.0389 123.651 30.0547 124.822C30.0583 125.128 30.1642 125.311 30.3495 125.502C30.5648 125.724 30.8702 125.807 31.1085 125.996C31.292 126.143 31.4968 126.317 31.7139 126.354C32.2769 126.45 32.7499 126.818 33.3553 126.801C33.643 126.792 33.9307 126.836 34.2184 126.83C34.5061 126.825 34.7585 126.729 35.0427 126.715C35.2386 126.706 35.4416 126.697 35.6199 126.615C35.7981 126.532 35.9481 126.357 35.9358 126.163C35.9234 125.973 35.7663 125.824 35.6093 125.717C35.2563 125.477 34.8909 125.414 34.4938 125.295C34.1178 125.183 33.8019 124.965 33.6042 124.632C33.3906 124.275 33.223 123.893 33.1118 123.484C32.9282 122.809 32.8594 122.117 32.7164 121.437C32.6052 120.913 32.5928 120.387 32.6387 119.859C32.7023 119.121 32.8664 118.399 33.0888 117.698C33.313 116.988 33.5513 116.282 33.8442 115.591C34.1425 114.887 34.5344 114.224 34.7779 113.496C34.7903 113.46 34.8256 113.428 34.8538 113.397C35.1927 113.018 35.2368 112.497 35.5051 112.08C35.7293 111.731 35.7946 111.298 36.0505 110.962C36.1617 110.816 36.2464 110.66 36.3347 110.501C36.6047 110.017 36.8713 109.53 37.1678 109.06C37.3337 108.799 37.5737 108.589 37.7008 108.315C38.0768 107.511 38.6963 106.862 39.1181 106.087C39.4182 105.537 39.8259 105.046 40.1277 104.503C40.5354 103.77 41.0596 103.118 41.4815 102.396C41.831 101.798 42.2581 101.244 42.6093 100.641C42.9712 100.017 43.3312 99.3913 43.7054 98.7743C44.2614 97.8576 44.6815 96.869 45.0062 95.8453C45.0786 95.6192 45.1986 95.4176 45.2551 95.181C45.4528 94.3554 45.6257 93.5245 45.7246 92.6832C45.7599 92.3834 45.8658 92.0802 45.804 91.7787C45.7546 91.5403 45.7652 91.3054 45.7599 91.0688C45.7475 90.3905 45.7669 89.7086 45.714 89.032C45.6593 88.3414 45.5569 87.6543 45.4228 86.9706C45.2833 86.2678 45.0574 85.5841 44.8262 84.9075C44.7097 84.5657 44.5685 84.2327 44.4008 83.9119C44.2437 83.6139 44.0655 83.2599 43.799 83.0513C43.6242 82.9146 43.4583 82.7673 43.2889 82.6236C43.0435 82.4185 42.7876 82.2222 42.4946 82.0907C42.0551 81.8926 41.6862 81.7577 41.2132 81.9365C40.8408 82.0767 40.5195 82.3554 40.3395 82.7095C40.253 82.8812 40.2283 83.0373 40.2813 83.2213C40.3201 83.3563 40.3501 83.5333 40.4384 83.6525C40.6184 83.8979 40.8055 84.1363 40.9961 84.3712C41.1867 84.6061 41.4197 84.8322 41.5786 85.0863C41.7692 85.3913 41.9651 85.6911 42.1628 85.989C42.2528 86.1258 42.3605 86.2625 42.4611 86.4027L42.4575 86.4062ZM53.1359 76.5219C53.0229 76.422 52.8888 76.3431 52.7705 76.2415C52.5711 76.0732 52.3699 75.9032 52.1369 75.784C51.8969 75.6613 51.6727 75.7139 51.445 75.6841C51.2968 75.6648 51.205 75.7997 51.1185 75.9137C51.0867 75.9557 51.032 75.9996 50.9843 76.0048C50.769 76.0259 50.6949 76.1854 50.5943 76.3414C50.3436 76.727 50.1583 77.1284 50.1601 77.5982C50.1601 77.6525 50.1477 77.7086 50.1371 77.7629C50.0206 78.3238 50.1866 78.8269 50.3895 79.3405C50.5925 79.8541 50.8343 80.3028 51.1714 80.7112C51.5421 81.1617 51.9004 81.6262 52.2093 82.1205C52.6805 82.876 53.1606 83.6069 53.4271 84.4834C53.6213 85.1231 53.789 85.7699 53.9178 86.415C54.0519 87.0898 54.179 87.7752 54.2284 88.4711C54.2867 89.2739 54.4614 90.0644 54.4614 90.8777C54.4614 91.8401 54.5479 92.8024 54.5585 93.7664C54.562 94.1012 54.4491 94.4518 54.6185 94.7813C54.6326 94.8094 54.6168 94.869 54.5938 94.8953C54.4897 95.011 54.5232 95.16 54.4844 95.2897C54.3608 95.7103 54.4403 96.1433 54.4049 96.5657C54.3396 97.3598 54.1649 98.1275 54.0096 98.897C53.7537 100.154 53.3036 101.355 52.8394 102.55C52.6329 103.083 52.3981 103.61 52.1457 104.115C51.8439 104.716 51.5703 105.351 51.1238 105.877C51.0708 105.94 51.0355 106.019 50.9985 106.094C50.6931 106.723 50.2589 107.272 49.8794 107.854C49.2635 108.799 48.568 109.686 48.0209 110.68C47.509 111.609 47.0236 112.55 46.5789 113.511C46.1182 114.51 45.774 115.554 45.5728 116.639C45.5393 116.822 45.4669 116.985 45.4122 117.156C45.3257 117.43 45.1615 117.686 45.1721 117.98C45.1845 118.322 45.1139 118.646 45.0274 118.971C44.9692 119.188 44.955 119.409 44.9515 119.635C44.9462 119.903 44.9091 120.171 44.8915 120.44C44.8615 120.869 44.7715 121.305 44.8244 121.724C44.865 122.049 44.8686 122.375 44.9091 122.695C44.9374 122.925 45.0715 123.132 45.2569 123.286C45.9117 123.833 46.7395 123.961 47.5231 124.196C47.5496 124.203 47.5796 124.196 47.6079 124.199C47.9926 124.257 48.3562 124.119 48.7322 124.082C48.9104 124.064 49.0675 123.943 49.1805 123.791C49.2158 123.742 49.2493 123.679 49.2017 123.642C48.9599 123.451 48.8381 123.144 48.561 122.99C48.2521 122.818 47.9414 122.648 47.6202 122.499C47.3431 122.371 47.1031 122.15 46.9654 121.936C46.8277 121.723 46.7342 121.412 46.7201 121.113C46.6971 120.653 46.7624 120.206 46.8171 119.752C46.8948 119.114 46.9936 118.482 47.246 117.894C47.592 117.09 47.7879 116.234 48.1533 115.435C48.4462 114.794 48.6722 114.121 48.9369 113.465C49.1505 112.936 49.4788 112.457 49.6182 111.898C49.7577 111.333 50.2289 110.904 50.2889 110.305C50.2925 110.268 50.3366 110.236 50.356 110.199C50.7372 109.458 51.2544 108.79 51.5633 108.008C51.6198 107.866 51.6639 107.707 51.761 107.596C52.0804 107.235 52.2093 106.767 52.4917 106.382C52.6452 106.173 52.8182 105.963 52.9365 105.73C53.3 105.004 53.7537 104.331 54.2267 103.682C54.592 103.183 54.9521 102.676 55.2875 102.159C55.7093 101.509 56.1064 100.837 56.4206 100.119C56.5812 99.7507 56.7665 99.4018 56.8848 99.0092C57.0366 98.5079 57.3278 98.0487 57.3049 97.5C57.3049 97.4737 57.3102 97.4422 57.3208 97.4176C57.5096 97.0022 57.529 96.5535 57.5767 96.1117C57.6014 95.8856 57.7567 95.6788 57.7055 95.4579C57.5608 94.8409 57.7603 94.2274 57.6738 93.5999C57.5961 93.0338 57.6526 92.4395 57.5837 91.8593C57.5555 91.6245 57.5926 91.3791 57.5467 91.1494C57.4125 90.4693 57.229 89.8032 57.116 89.1144C56.9642 88.1976 56.9325 87.2634 56.6765 86.3571C56.5336 85.8541 56.4594 85.3282 56.4224 84.7936C56.3835 84.2222 56.2088 83.6507 56.027 83.1091C55.8381 82.5429 55.764 81.9435 55.501 81.4018C55.4534 81.3037 55.4128 81.1915 55.4075 81.0828C55.3969 80.8146 55.2645 80.6078 55.1198 80.3975C54.9256 80.117 54.9415 79.7244 54.6397 79.4983C54.6256 79.4877 54.6326 79.4457 54.6326 79.4176C54.6326 79.181 54.5109 78.9864 54.3908 78.8006C54.239 78.564 54.1031 78.3221 53.9955 78.0609C53.7943 77.5719 53.5736 77.0881 53.263 76.6569C53.2242 76.6025 53.18 76.557 53.1324 76.5149L53.1359 76.5219Z" fill="#252525"/>
<path d="M28.6039 66.7042C28.3551 66.7533 28.0903 66.5517 27.8432 66.7743C27.7691 66.841 27.6085 66.7551 27.5661 66.6464C27.4478 66.3414 27.1372 66.3186 26.9148 66.2871C26.6077 66.2432 26.5089 66.0189 26.3429 65.8506C26.2935 65.7998 26.2653 65.7104 26.1947 65.6613C26.0129 65.5351 25.8205 65.4299 25.5946 65.4019C25.6369 65.1197 25.3757 65.0548 25.2433 64.89C24.9556 64.536 24.5762 64.2835 24.269 63.9488C23.9337 63.5842 23.5277 63.2792 23.18 62.9146C22.6823 62.3922 22.1669 61.8874 21.655 61.3773C21.3338 61.0566 21.0391 60.7095 20.6578 60.4536C20.6225 60.4308 20.5749 60.4115 20.5572 60.3782C20.2766 59.8366 19.7276 59.5246 19.3905 59.0232C19.0958 58.5868 18.7198 58.2047 18.4798 57.7279C18.4215 57.6122 18.3403 57.5158 18.4268 57.3843C18.4604 57.3335 18.4498 57.2739 18.4198 57.2248C18.2468 56.9461 18.3668 56.6552 18.3721 56.3677C18.3774 56.0557 18.5363 55.8243 18.6916 55.5736C18.9034 55.2301 19.2511 55.0425 19.5194 54.7673C19.7453 54.5377 19.9677 54.3046 20.1848 54.0679C20.386 53.8471 20.6031 53.6508 20.8502 53.4737C21.092 53.2984 21.3938 53.1863 21.5368 52.883C21.595 52.7621 21.7274 52.6902 21.8686 52.6411C22.1793 52.5342 22.4122 52.3133 22.6576 52.1013C23.0035 51.8015 23.3159 51.4685 23.7378 51.2476C24.1173 51.0495 24.4932 50.8041 24.7721 50.4729C25.0862 50.0977 25.5151 49.8821 25.8876 49.5894C26.2582 49.2984 26.6677 49.0443 27.0348 48.7551C27.6667 48.2573 28.3268 47.7928 28.9199 47.2389C29.3541 46.8339 29.8712 46.5044 30.3107 46.096C30.6108 45.8173 30.9408 45.5631 31.1809 45.2248C31.2409 45.1407 31.3132 45.1021 31.4191 45.0776C31.7457 45.004 32.074 44.9268 32.3881 44.8129C32.6917 44.7025 33.0306 44.8374 33.3254 44.6376C33.433 44.5658 33.5742 44.7305 33.7119 44.7638C34.0667 44.8497 34.3861 45.025 34.6862 45.2301C34.7321 45.2616 34.7797 45.2792 34.8133 45.33C35.0851 45.7332 35.4416 46.0574 35.7999 46.3817C36.2112 46.7551 36.5624 47.188 36.9295 47.6052C37.2878 48.0119 37.6867 48.3835 38.0715 48.7656C38.338 49.0303 38.6504 49.2494 38.8305 49.5929C38.8993 49.7226 39.0546 49.7594 39.1552 49.8541C39.7165 50.387 40.3184 50.8795 40.832 51.4615C41.3191 52.0154 41.7604 52.5938 42.0569 53.2879C42.2775 53.805 42.4558 54.3098 42.4487 54.8725C42.7417 55.2757 42.4223 55.6718 42.4099 56.0697C42.4011 56.3239 42.2246 56.5973 42.0587 56.8164C41.838 57.1091 41.6404 57.4317 41.3297 57.6473C41.065 57.8313 40.8726 58.0872 40.6608 58.3204C40.2831 58.7358 39.7518 58.9812 39.4182 59.4439C39.3547 59.5333 39.2664 59.5982 39.2293 59.7139C39.1711 59.8909 39.0017 60.0399 38.8622 60.0872C38.4774 60.2204 38.2356 60.5132 37.9903 60.7849C37.6232 61.1898 37.1802 61.5088 36.7742 61.8664C36.3806 62.2152 36.0064 62.5868 35.5969 62.9198C35.2934 63.167 34.9951 63.4141 34.6685 63.6315C33.9166 64.1311 33.1842 64.6622 32.4111 65.1267C31.9716 65.3896 31.5003 65.6052 31.052 65.8576C30.7255 66.0417 30.4166 66.2537 30.0565 66.3905C29.5835 66.571 29.0875 66.6131 28.6004 66.7025L28.6039 66.7042ZM33.1559 45.9908C32.5682 46.0206 32.0651 45.9119 31.8021 46.4518C31.7916 46.4746 31.7563 46.4834 31.7368 46.5027C31.2126 47.0478 30.4625 47.2774 29.9189 47.8225C29.4988 48.2432 29.0787 48.7025 28.521 48.9742C28.4857 48.9917 28.4539 49.032 28.4415 49.0688C28.3921 49.2231 28.2509 49.2651 28.1291 49.3318C28.0303 49.3861 27.912 49.4141 27.8309 49.486C27.0101 50.2222 26.0941 50.841 25.2557 51.5561C24.7703 51.9698 24.2126 52.2976 23.6972 52.6797C23.3053 52.9689 22.9612 53.3177 22.5764 53.6192C22.3222 53.8173 22.0592 54.0276 21.8139 54.2485C21.1044 54.8935 20.356 55.4983 19.7859 56.28C19.5988 56.536 19.5388 56.8655 19.6535 57.1126C19.7718 57.3668 19.8494 57.67 20.0595 57.8681C20.439 58.2257 20.6808 58.692 21.0726 59.0408C21.7151 59.614 22.1881 60.3554 22.8959 60.8743C23.0847 61.0127 23.3353 61.16 23.4236 61.3913C23.4942 61.5719 23.5983 61.7244 23.7289 61.8313C24.0749 62.1153 24.3679 62.4518 24.7121 62.7323C25.1639 63.1004 25.5646 63.5246 25.9899 63.919C26.6253 64.5079 27.3049 65.0057 28.078 65.3896C28.1433 65.4211 28.2068 65.4264 28.2739 65.4422C28.8987 65.5807 29.4388 65.3037 30.0001 65.1214C30.3672 65.0022 30.6231 64.6867 31.0114 64.5973C31.2109 64.5517 31.3432 64.3344 31.5215 64.2573C31.9998 64.0504 32.3775 63.6876 32.8523 63.4825C32.9618 63.4352 33.0765 63.3633 33.1241 63.2318C33.1524 63.1495 33.2071 63.0969 33.3077 63.0864C33.6466 63.0566 33.7984 62.6902 34.1231 62.6306C34.5291 62.1836 35.0674 61.8909 35.4928 61.4667C35.7523 61.2091 36.1035 61.0513 36.3347 60.7831C36.6101 60.4623 36.9383 60.2012 37.2313 59.8997C37.4714 59.6525 37.7008 59.3966 37.9991 59.1933C38.2356 59.032 38.3857 58.741 38.6416 58.5745C38.8499 58.4378 38.9063 58.1573 39.0952 58.0329C39.4464 57.7998 39.7112 57.4737 40.0465 57.2336C40.186 57.1337 40.1719 56.9356 40.3148 56.8778C40.7049 56.7165 40.9538 56.4431 41.0332 56.0364C41.1038 55.6788 41.3032 55.3651 41.2768 54.9672C41.2609 54.7253 41.1109 54.557 41.0985 54.3396C41.0632 53.7542 40.7278 53.3002 40.419 52.841C39.9424 52.1328 39.2611 51.6069 38.6716 51.0005C38.3539 50.6744 37.9938 50.3887 37.6867 50.0487C37.5614 49.9102 37.3973 49.9084 37.249 49.8471C37.106 49.7875 37.2331 49.5351 37.0443 49.4089C36.6348 49.1337 36.3947 48.6832 36.0241 48.3659C35.6287 48.0259 35.364 47.5736 34.9598 47.2371C34.7321 47.0478 34.4903 46.8637 34.2802 46.6359C33.9661 46.2941 33.5972 45.9049 33.1541 45.9908H33.1559Z" fill="#252525"/>
<path d="M38.1879 68.3011C38.1332 68.245 38.0767 68.2555 38.022 68.2555C37.5596 68.2485 37.1095 68.3606 36.6577 68.4115C36.0558 68.4781 35.5139 68.7323 34.9138 68.7778C34.9915 69.0162 35.2174 69.0881 35.3215 69.2669C35.4769 69.5316 35.6745 69.7647 35.8969 69.9785C36.0964 70.1731 36.3311 70.3571 36.4617 70.592C36.6859 70.9969 37.0301 71.3002 37.2789 71.6805C37.3531 71.7945 37.459 71.8874 37.5666 72.0083C37.9797 70.7761 37.902 69.5035 38.1844 68.2993L38.1879 68.3011Z" fill="#2EC7C7"/>
<path d="M34.206 69.9189C34.3454 70.1083 34.3595 70.3712 34.5855 70.5009C34.6967 70.5657 34.7214 70.7077 34.7337 70.8339C34.7426 70.9163 34.7284 71.0075 34.8026 71.0671C34.9614 71.1933 34.9967 71.365 35.0038 71.5508C35.0073 71.6192 34.9932 71.6998 35.0638 71.7402C35.3056 71.8751 35.3215 72.1416 35.3709 72.3554C35.4344 72.6306 35.5562 72.8182 35.8104 72.9146C35.8828 72.9426 35.9163 72.9689 35.9516 73.0373C36.0751 73.2827 36.0804 73.2792 36.4458 73.5298C36.4758 73.5509 36.5023 73.5912 36.5111 73.6262C36.5482 73.77 36.4582 74.0171 36.7105 73.9961C36.9577 73.9768 36.8112 73.7174 36.8782 73.5789C37.023 73.2757 36.8994 73.0338 36.6558 72.8497C36.5146 72.7428 36.4087 72.6061 36.3523 72.4571C36.2181 72.1065 35.911 71.9014 35.6992 71.6175C35.4539 71.2879 35.1432 71.0057 34.9014 70.6744C34.6967 70.394 34.4443 70.1643 34.2042 69.9207L34.206 69.9189Z" fill="#158080"/>
<path d="M42.987 63.6875C43.3347 63.8751 43.52 64.2116 43.7618 64.4903C44.076 64.8532 44.3425 65.2598 44.6849 65.6017C44.9444 65.8611 45.1544 65.8488 45.4315 65.6017C45.9399 65.1512 46.4606 64.7095 47.0571 64.3764C47.2319 64.2783 47.2301 64.1801 47.156 64.0399C47.0854 63.9031 46.9565 63.7769 46.9406 63.635C46.8965 63.2388 46.5982 63.046 46.3246 62.8584C46.2099 62.7796 46.1764 62.6954 46.1075 62.6025C45.9434 62.3799 45.8622 62.0907 45.5586 61.9733C45.2109 61.8383 44.9056 61.9592 44.692 62.1748C44.166 62.7024 43.4883 63.0513 42.9852 63.6858L42.987 63.6875Z" fill="#2EC7C7"/>
<path d="M45.4651 67.8488C45.6646 67.7033 45.8569 67.6069 46.0299 67.4579C46.2558 67.2634 46.5259 67.1109 46.8171 67.0039C47.0836 66.9075 47.2937 66.7007 47.449 66.4834C47.5531 66.3396 47.4525 66.1082 47.3925 65.9259C47.3696 65.8593 47.396 65.7612 47.3166 65.7279C46.7165 66.0416 46.2929 66.5745 45.7052 66.8865C45.661 66.9111 45.5922 66.9777 45.601 67.0004C45.7193 67.2967 45.4175 67.514 45.4651 67.8471V67.8488Z" fill="#158080"/>
<path d="M42.1822 64.8024C42.2387 64.9829 42.2846 65.0986 42.2598 65.2231C42.2016 65.5158 42.3304 65.7174 42.5581 65.8874C42.8035 66.0697 43.0188 66.2818 43.2377 66.4974C43.5465 66.8041 43.7601 67.2125 44.1872 67.4229C44.2296 67.3125 44.4502 67.2546 44.2826 67.0881C44.0725 66.8813 43.9278 66.6253 43.7478 66.3975C43.4459 66.0153 43.1124 65.663 42.7805 65.3107C42.6199 65.1389 42.5105 64.883 42.1804 64.8041L42.1822 64.8024Z" fill="#158080"/>
<path d="M41.215 65.3317C41.1885 64.7603 41.2979 64.2187 41.1885 63.6806C41.1708 63.5912 41.162 63.5386 41.2644 63.4825C41.5221 63.3405 41.7197 63.1372 41.891 62.89C41.9916 62.7445 42.1857 62.6516 42.3569 62.571C42.4752 62.5149 42.5881 62.4536 42.6711 62.3677C43.1371 61.8856 43.7125 61.5421 44.2155 61.1109C44.4608 60.9005 44.6832 60.6744 44.9639 60.4991C45.0927 60.4185 45.1792 60.3677 45.3239 60.394C45.391 60.4062 45.4669 60.4062 45.5304 60.3834C45.9911 60.2239 46.2029 60.5447 46.4271 60.8357C46.6812 61.167 46.8771 61.5754 47.2001 61.8138C47.449 61.9978 47.5125 62.2362 47.6608 62.4483C47.9591 62.8795 48.1832 63.3633 48.6016 63.7086C48.8981 63.954 48.9475 64.6604 48.7869 64.9338C48.7375 65.0197 48.6704 65.0969 48.6898 65.202C48.7887 65.7174 48.5839 66.2415 48.7392 66.7533C48.801 66.9566 48.7216 67.053 48.561 67.1985C48.125 67.5894 47.5743 67.7664 47.1013 68.0785C46.8454 68.2467 46.5771 68.4045 46.3494 68.6061C46.1411 68.7901 45.8958 68.8567 45.6469 68.9076C45.4175 68.9549 45.2463 69.0776 45.0715 69.2073C44.8721 69.3563 44.6409 69.3791 44.4714 69.2196C44.0249 68.7971 43.5995 68.3537 43.1441 67.9435C42.9182 67.7402 42.7117 67.5316 42.5458 67.2774C42.3481 66.9777 42.0039 66.8462 41.7303 66.6324C41.5803 66.5149 41.5115 66.3063 41.2979 66.2625C41.2414 66.2502 41.2238 66.1714 41.2379 66.1188C41.3085 65.8418 41.0685 65.5771 41.215 65.3317ZM42.987 63.6876C43.3347 63.8751 43.5201 64.2117 43.7619 64.4904C44.076 64.8532 44.3426 65.2599 44.685 65.6017C44.9444 65.8611 45.1545 65.8488 45.4316 65.6017C45.9399 65.1512 46.4606 64.7095 47.0572 64.3764C47.2319 64.2783 47.2301 64.1801 47.156 64.0399C47.0854 63.9032 46.9566 63.777 46.9407 63.635C46.8966 63.2388 46.5983 63.046 46.3247 62.8585C46.21 62.7796 46.1764 62.6955 46.1076 62.6026C45.9434 62.3799 45.8622 62.0907 45.5587 61.9733C45.211 61.8383 44.9056 61.9593 44.692 62.1749C44.1661 62.7025 43.4883 63.0513 42.9853 63.6858L42.987 63.6876ZM45.4634 67.8488C45.6628 67.7033 45.8552 67.6069 46.0282 67.4579C46.2541 67.2634 46.5241 67.1109 46.8154 67.004C47.0819 66.9075 47.2919 66.7007 47.4472 66.4834C47.5514 66.3396 47.4508 66.1083 47.3908 65.926C47.3678 65.8593 47.3943 65.7612 47.3149 65.7279C46.7148 66.0416 46.2911 66.5745 45.7034 66.8865C45.6593 66.9111 45.5904 66.9777 45.5993 67.0005C45.7175 67.2967 45.4157 67.514 45.4634 67.8471V67.8488ZM42.1822 64.8024C42.2387 64.9829 42.2846 65.0986 42.2598 65.2231C42.2016 65.5158 42.3304 65.7174 42.5581 65.8874C42.8035 66.0697 43.0188 66.2818 43.2377 66.4974C43.5465 66.8041 43.7601 67.2125 44.1872 67.4229C44.2296 67.3125 44.4502 67.2546 44.2826 67.0881C44.0725 66.8813 43.9278 66.6253 43.7478 66.3975C43.4459 66.0154 43.1123 65.663 42.7805 65.3107C42.6199 65.1389 42.5105 64.883 42.1804 64.8041L42.1822 64.8024Z" fill="#252525"/>
<path d="M36.8536 75.77C36.7124 75.7822 36.6065 75.7296 36.4724 75.5771C36.0929 75.1512 35.8317 74.6324 35.3869 74.259C35.221 74.1205 35.1257 73.8997 35.0004 73.7156C34.9615 73.6595 34.9368 73.5841 34.8839 73.5456C34.492 73.2616 34.3667 72.8357 34.2467 72.4062C34.2096 72.2695 34.1761 72.1381 34.0508 72.0469C34.0102 72.0171 33.9678 71.961 33.9608 71.9137C33.9114 71.5368 33.6978 71.2494 33.493 70.9444C33.3677 70.7586 33.2565 70.5885 33.0712 70.4448C32.877 70.2941 32.7394 70.0574 32.7817 69.7875C32.8682 69.2423 32.9141 68.692 32.9741 68.1451C33.0059 67.8593 33.2636 67.7086 33.5636 67.6876C34.4338 67.6262 35.311 67.621 36.1494 67.323C36.5042 67.1968 36.8783 67.1319 37.2561 67.1021C37.4379 67.0881 37.6197 67.0548 37.7944 67.0075C38.0009 66.9514 38.1986 66.9181 38.4174 66.9374C38.5745 66.9514 38.7404 66.9338 38.9064 66.8637C39.2082 66.7358 39.5082 66.8427 39.6988 67.0723C39.8418 67.2441 39.8542 67.4246 39.7624 67.6175C39.3388 68.5061 39.1393 69.4492 39.0581 70.4255C39.0193 70.897 38.9205 71.3615 38.8216 71.826C38.7422 72.1994 38.6804 72.578 38.6098 72.9549C38.5463 73.2967 38.3768 73.6087 38.3521 73.9628C38.3451 74.0557 38.2939 74.1889 38.165 74.2204C37.6497 74.3466 37.5879 74.7866 37.5279 75.1898C37.4661 75.5999 37.3214 75.77 36.8536 75.7717V75.77ZM38.188 68.3028C38.1333 68.2467 38.0768 68.2572 38.0221 68.2572C37.5596 68.2502 37.1096 68.3624 36.6577 68.4132C36.0558 68.4799 35.514 68.734 34.9139 68.7796C34.9915 69.018 35.2175 69.0898 35.3216 69.2686C35.4769 69.5333 35.6746 69.7664 35.897 69.9803C36.0964 70.1749 36.3312 70.3589 36.4618 70.5938C36.686 70.9987 37.0301 71.3019 37.279 71.6823C37.3531 71.7962 37.459 71.8891 37.5667 72.0101C37.9797 70.7778 37.9021 69.5053 38.1845 68.3011L38.188 68.3028ZM34.2079 69.9207C34.3473 70.11 34.3614 70.3729 34.5874 70.5026C34.6985 70.5675 34.7233 70.7095 34.7356 70.8357C34.7444 70.9181 34.7303 71.0092 34.8045 71.0688C34.9633 71.195 34.9986 71.3668 35.0057 71.5526C35.0092 71.621 34.9951 71.7016 35.0657 71.7419C35.3075 71.8769 35.3234 72.1433 35.3728 72.3572C35.4363 72.6324 35.5581 72.8199 35.8123 72.9163C35.8846 72.9444 35.9182 72.9707 35.9535 73.039C36.077 73.2844 36.0823 73.2809 36.4477 73.5316C36.4777 73.5526 36.5042 73.5929 36.513 73.628C36.5501 73.7717 36.46 74.0189 36.7124 73.9978C36.9595 73.9785 36.813 73.7191 36.8801 73.5806C37.0248 73.2774 36.9013 73.0355 36.6577 72.8515C36.5165 72.7445 36.4106 72.6078 36.3541 72.4588C36.22 72.1083 35.9129 71.9032 35.7011 71.6192C35.4557 71.2897 35.1451 71.0075 34.9033 70.6762C34.6985 70.3957 34.4462 70.1661 34.2061 69.9225L34.2079 69.9207Z" fill="#252525"/>
<path d="M31.4509 59.2108C30.7502 59.2301 30.1218 59.0127 29.5817 58.578C29.3134 58.3607 29.0169 58.2239 28.701 58.1047C28.4203 57.9996 28.3233 57.7033 28.4574 57.3756C28.5739 57.0863 28.8422 56.9812 29.1246 57.0969C29.6064 57.2949 30.0636 57.5193 30.4907 57.8295C30.8367 58.0802 31.292 58.096 31.7033 57.9768C32.1304 57.8541 32.5523 57.6928 32.8753 57.3615C32.9159 57.3212 32.967 57.2897 32.96 57.2301C32.907 56.7901 33.1065 56.3554 32.9494 55.9049C32.8894 55.7331 32.8241 55.5736 32.7341 55.4176C32.6282 55.2353 32.6529 54.9356 32.7729 54.7971C32.9547 54.585 33.2141 54.6394 33.4224 54.6727C33.8301 54.7375 34.0949 54.9847 34.1549 55.4229C34.1937 55.7104 34.2714 55.9855 34.1814 56.2853C34.1337 56.4448 34.2096 56.6323 34.1973 56.8164C34.1725 57.167 34.019 57.486 33.9907 57.8313C33.9855 57.8962 33.9625 57.9347 33.9096 57.961C33.7772 58.0294 33.6766 58.1223 33.666 58.2783C33.6607 58.3466 33.6148 58.3782 33.5689 58.4027C33.2759 58.5622 33.0306 58.7989 32.6899 58.8813C32.5046 58.9268 32.3087 58.9654 32.1428 59.0828C31.9363 59.2283 31.6856 59.181 31.4526 59.209L31.4509 59.2108Z" fill="#252525"/>
<path d="M35.1398 51.4597C34.845 51.5859 34.702 51.3948 34.5997 51.1968C34.5079 51.0197 34.3737 50.9251 34.2061 50.8427C34.0684 50.7743 33.9378 50.6919 33.8072 50.6113C33.4453 50.3887 33.0464 50.45 32.6546 50.4676C32.6175 50.4676 32.5717 50.4991 32.5487 50.5289C32.3175 50.8339 31.9998 51.0741 31.8515 51.4404C31.7492 51.6946 31.585 51.9224 31.5691 52.2134C31.555 52.4623 31.6168 52.5727 31.878 52.6236C31.9521 52.6376 32.0369 52.6692 32.0139 52.748C31.9257 53.0337 31.8851 53.344 31.5885 53.521C31.1791 53.7647 30.7166 53.5719 30.5736 53.0811C30.5313 52.9338 30.5013 52.7848 30.4219 52.6499C30.3142 52.4658 30.3036 52.28 30.4289 52.0977C30.4695 52.0399 30.5066 51.9803 30.5066 51.9067C30.5066 51.3317 30.7396 50.8462 31.1049 50.4185C31.2355 50.2642 31.2285 50.0609 31.3467 49.8979C31.5126 49.6683 31.8092 49.5876 31.9415 49.3317C31.9521 49.3124 31.9892 49.2949 32.0139 49.2949C32.5628 49.2721 33.117 49.06 33.6554 49.223C33.9501 49.3124 34.2978 49.316 34.5432 49.5543C34.5714 49.5824 34.6138 49.6069 34.6526 49.6104C34.9474 49.642 35.1556 49.8155 35.3657 50.0048C35.6993 50.3046 35.7734 50.5447 35.6145 50.9619C35.581 51.053 35.5369 51.1407 35.5033 51.2318C35.4398 51.4089 35.3798 51.5806 35.1415 51.4597H35.1398Z" fill="#252525"/>
<path d="M23.9567 57.1056C23.8879 56.9671 23.9391 56.7989 23.9161 56.6411C23.849 56.1784 24.0238 55.7664 24.142 55.3387C24.1773 55.2073 24.2885 55.1389 24.3838 55.0583C24.7669 54.7393 25.1569 54.4325 25.5276 54.1012C25.6617 53.9803 25.8665 54.145 25.9688 53.9435C26.0836 53.7174 26.2406 53.9312 26.366 53.947C26.6272 53.9803 26.8796 54.0714 27.1373 54.138C27.2185 54.1591 27.3155 54.2099 27.3826 54.1854C27.7356 54.0592 27.8927 54.3554 28.0869 54.5202C28.281 54.6849 28.4063 54.9181 28.4822 55.1722C28.5687 55.4614 28.3251 55.8365 28.0304 55.8103C27.755 55.7875 27.4762 55.7419 27.2749 55.514C27.2114 55.4422 27.0967 55.3983 27.0614 55.3177C26.9572 55.0776 26.8143 55.0968 26.6254 55.2055C26.5689 55.2388 26.4842 55.2581 26.4242 55.2423C26.2495 55.1933 26.0836 55.1056 25.9088 55.2493C25.6317 55.4755 25.2875 55.6332 25.141 55.9943C24.9592 56.4413 24.931 56.883 25.1534 57.3265C25.2787 57.5771 25.1799 57.9084 24.9716 58.1082C24.7722 58.2993 24.4527 58.2222 24.2374 58.0749C24.0856 57.9715 23.8826 57.8313 23.9761 57.5649C24.0273 57.4194 23.8226 57.2844 23.9567 57.1039V57.1056Z" fill="#252525"/>
</svg>
