<svg width="117" height="56" viewBox="0 0 117 56" fill="none" xmlns="http://www.w3.org/2000/svg">
<path fill-rule="evenodd" clip-rule="evenodd" d="M84.679 15.3243C84.478 14.3421 84.299 13.3555 84.1422 12.3656C83.5365 12.4733 82.9306 12.5808 82.3244 12.688C81.6938 12.7962 81.1313 12.5258 80.9271 11.8994C80.7502 11.3541 81.1358 10.615 81.721 10.5114C82.4235 10.3872 83.1255 10.2625 83.8272 10.1376C83.4545 7.1399 83.2836 4.11771 83.318 1.09733V1.08831C83.3362 -0.362771 85.6044 -0.362771 85.5863 1.08831C85.5591 3.39112 85.6498 5.69393 85.863 7.98322C85.9183 8.57012 85.9818 9.15622 86.0536 9.74132C86.6219 9.64027 87.1903 9.53937 87.7591 9.43883C88.3897 9.33067 88.9522 9.60106 89.1564 10.2275C89.3333 10.7727 88.9477 11.5118 88.3625 11.6155C87.697 11.7331 87.0319 11.8512 86.367 11.9695C86.7795 14.5671 87.3525 17.1396 88.0768 19.6685C88.3581 20.6554 88.6621 21.6378 88.9932 22.6112L89.0051 22.6465C89.2737 23.4425 89.5545 24.275 90.082 24.9411C90.4585 25.4188 91.1118 25.919 91.7605 25.8469C92.2005 25.8018 92.627 25.3782 92.5181 24.9681C92.1416 23.5621 94.3282 22.9672 94.7047 24.3688C95.0313 25.59 94.5187 26.7797 93.4798 27.5233C92.441 28.2669 91.1072 28.2128 89.9822 27.6945C87.9256 26.7426 87.1858 24.428 86.5457 22.4251L86.4754 22.2056C85.7541 19.9479 85.1553 17.6496 84.679 15.3243ZM74.1133 16.0769C71.7317 15.9372 70.0259 17.8254 69.1867 19.8353C68.4608 21.5748 67.8983 23.6703 68.4336 25.5405C68.9689 27.4107 70.8289 28.6815 72.8522 28.4336C74.6724 28.209 76.0686 27.0198 76.8001 25.4309C77.4865 26.8354 78.2478 28.204 79.0808 29.5287C79.8521 30.7545 81.8164 29.6278 81.0406 28.3931C79.4667 25.8915 78.1667 23.2492 77.1556 20.4926C76.9091 19.3503 76.5028 18.2283 76.0867 17.1449C75.8799 16.6057 75.3786 16.225 74.7847 16.3347C74.6134 16.1924 74.3896 16.0977 74.1133 16.0814V16.0769ZM75.0105 21.2312C74.6607 20.2761 74.344 19.309 74.0613 18.3322C72.3044 18.267 71.4413 20.0971 70.9741 21.5162C70.6066 22.6293 70.2528 24.0714 70.6883 25.1664C71.1238 26.2615 72.4076 26.4508 73.3875 25.9821C74.5806 25.4143 75.0796 24.0218 75.1295 22.787C75.15 22.2623 75.103 21.7436 75.0105 21.2312ZM54.908 26.7031C54.6324 24.6887 54.3568 22.6744 54.0801 20.66L54.0755 20.6555C53.9939 20.0471 54.2162 19.4477 54.8694 19.2675C55.4047 19.1233 56.185 19.4522 56.2667 20.0561C56.4809 21.6158 56.6945 23.1756 56.908 24.7353C57.1263 24.0076 57.3878 23.2908 57.7047 22.5887C58.9069 19.9254 60.9483 17.7082 63.6793 16.5726C64.2509 16.3383 64.9314 16.834 65.0766 17.3612C65.2535 18.0056 64.8452 18.5149 64.2827 18.7492C62.0779 19.664 60.4947 21.755 59.5919 23.8866C58.4758 26.5177 58.2245 29.4238 57.981 32.24V32.24L57.9633 32.4444C57.9134 33.0212 57.5641 33.4674 56.9789 33.553C56.4889 33.6251 55.813 33.2916 55.7359 32.7463C55.4592 30.7319 55.1836 28.7175 54.908 26.7031ZM48.3596 19.8172C45.7737 18.8303 42.766 19.3441 40.6157 21.052C38.6196 22.6383 37.4764 25.3332 37.7577 27.8613C38.039 30.3894 39.5995 32.7283 42.081 33.4043C44.5625 34.0802 47.1846 32.5976 48.6091 30.5201C48.7812 30.2695 48.9346 30.0122 49.0708 29.7492C49.3634 31.286 49.6556 32.8228 49.9473 34.3596C50.057 34.9335 50.169 35.5071 50.281 36.0808C50.5859 37.6421 50.8907 39.2036 51.1495 40.7723C51.4671 42.7101 51.6712 44.729 51.3899 46.6848C50.9408 49.8078 49.2124 52.746 45.9733 53.5437C43.2968 54.2016 40.1484 53.3093 38.6196 50.9299C36.9321 48.3027 37.2088 44.5623 39.4408 42.3226C40.4705 41.2906 38.8646 39.6953 37.8348 40.7273C35.3534 43.2193 34.5958 47.1986 35.866 50.4567C37.2043 53.8907 40.4796 55.9727 44.1633 55.9997C45.8917 56.0132 47.67 55.5581 49.1398 54.6388C50.8138 53.5887 52.0114 51.9844 52.7645 50.1864C54.4928 46.0668 53.6334 41.5787 52.8229 37.3463L52.7464 36.9463C52.2315 34.2516 51.7177 31.5568 51.204 28.862C50.6902 26.1671 50.1764 23.4721 49.6615 20.7771C49.5656 20.2767 49.1514 20.0238 48.705 19.9848C48.6011 19.9097 48.4846 19.8471 48.3596 19.7992V19.8172ZM41.5911 23.1926C43.1389 21.6115 45.4834 21.2007 47.5433 21.8993C47.8142 23.986 48.0213 26.1802 47.2844 28.1812C46.7219 29.718 45.2294 31.2817 43.4873 31.3178C41.7453 31.3538 40.4978 29.8126 40.1122 28.2534C39.6721 26.4778 40.3208 24.4904 41.5911 23.1926ZM7.37731 28.1477C7.95612 27.6755 8.53514 27.2031 9.11415 26.7302L9.10961 26.7212C9.58595 26.3336 10.2483 26.257 10.7155 26.7212C11.1193 27.1222 11.1873 27.9289 10.7155 28.3165C9.97164 28.9225 9.22887 29.5297 8.4861 30.1369L8.48568 30.1372L8.48525 30.1376C7.7426 30.7446 6.99994 31.3517 6.25614 31.9577L4.06954 33.7423C3.92819 33.8573 3.77649 33.9718 3.62206 34.0884L3.62203 34.0884L3.62199 34.0885L3.62193 34.0885L3.62184 34.0886L3.62171 34.0887L3.62155 34.0888L3.62138 34.0889L3.62118 34.0891C3.32227 34.3146 3.01321 34.5479 2.74934 34.8078C4.85108 35.4856 7.02447 35.9283 9.23211 36.0946C17.2118 36.703 25.4139 34.0892 31.3476 28.7085V28.704C32.4273 27.7306 34.0333 29.3214 32.9536 30.2993C31.1526 31.9352 29.152 33.3637 27.0062 34.5264C19.8048 38.4268 11.0726 39.5144 3.17118 37.2887C3.58874 37.9647 4.00376 38.6407 4.41878 39.3166L4.41885 39.3168L7.3313 44.0486C8.09343 45.2878 6.13366 46.419 5.37152 45.1842C4.82724 44.3011 4.2841 43.418 3.74095 42.5349L3.74027 42.5338C3.19714 41.6507 2.65402 40.7676 2.10977 39.8846C1.93666 39.6024 1.75777 39.3183 1.57875 39.034L1.57869 39.0339L1.57862 39.0338C1.20877 38.4464 0.838394 37.8582 0.517448 37.2843C0.0411132 36.4326 -0.190249 35.5043 0.190818 34.5714C0.512911 33.7918 1.12988 33.2465 1.76953 32.7238C2.17725 32.3908 2.58497 32.0589 2.99269 31.727L2.9929 31.7268L2.99311 31.7266L2.99332 31.7265L2.99353 31.7263L2.99374 31.7261L2.99395 31.726L2.99416 31.7258L2.99437 31.7256C3.40266 31.3933 3.81096 31.0609 4.21925 30.7274C5.27007 29.8667 6.32278 29.0079 7.37616 28.1486L7.37731 28.1477ZM97.8734 18.7649L97.8734 18.7645L97.8733 18.7636C97.6975 16.7294 97.5218 14.6952 97.3449 12.661C97.2905 12.0526 97.9074 11.5344 98.479 11.5344C99.1278 11.5344 99.5587 12.0526 99.6132 12.661C99.7899 14.6939 99.9656 16.7269 100.141 18.7598C100.317 20.7962 100.493 22.8326 100.67 24.869C100.725 25.4774 100.108 25.9956 99.536 25.9956C98.8873 25.9956 98.4564 25.4774 98.4019 24.869C98.225 22.8343 98.0492 20.7996 97.8734 18.7649ZM97.7622 7.36587C99.2229 7.36587 99.2229 5.11264 97.7622 5.11264C96.3014 5.11264 96.3014 7.36587 97.7622 7.36587ZM107.978 8.21306C110.709 7.87057 113.695 8.90706 115.868 10.5159L115.854 10.5204C116.348 10.8854 116.602 11.4848 116.262 12.0616C115.976 12.5483 115.201 12.8322 114.711 12.4672C113.413 11.5028 111.966 10.8539 110.374 10.5564C109.308 10.3581 107.797 10.2049 106.872 10.9079C106.622 11.0972 106.45 11.3766 106.554 11.7506C106.677 12.1878 107.098 12.5258 107.475 12.7466C108.203 13.1729 109.062 13.2899 109.915 13.4059C110.396 13.4714 110.875 13.5366 111.326 13.6569C113.894 14.3419 115.79 16.7934 115.523 19.4837C115.255 22.1741 112.769 24.3372 110.165 24.4048C107.561 24.4724 105.093 22.3949 104.69 19.8488C104.594 19.2449 104.839 18.6365 105.483 18.4608C106.028 18.3166 106.785 18.6501 106.881 19.2494C107.262 21.6423 109.965 22.9988 112.002 21.4801C113.685 20.2273 113.663 17.7397 112.039 16.4374C111.269 15.821 110.242 15.6781 109.263 15.5418C108.989 15.5037 108.719 15.4662 108.459 15.4189C107.08 15.1665 105.783 14.5807 104.93 13.4316C104.154 12.3906 104.063 10.9305 104.785 9.88045C105.506 8.83045 106.754 8.36628 107.978 8.21306Z" fill="#EBEBEB" fill-opacity="0.7"/>
</svg>
